<svg class="source-image" xmlns="http://www.w3.org/2000/svg" viewBox="0 0 196 256"><title>add-file</title>
  <path d="M209.664,0H46.336A16.337,16.337,0,0,0,30,16.34V239.66C30,248.691,37.318,256,48.786,256H212.114c6.568,0,13.886-7.309,13.886-16.34V16.34A16.337,16.337,0,0,0,209.664,0ZM73.781,16.864A1.966,1.966,0,0,1,75.748,14.9H182.337a1.969,1.969,0,0,1,1.967,1.968v7.91a1.969,1.969,0,0,1-1.967,1.968H75.748a1.966,1.966,0,0,1-1.967-1.968ZM50.645,76.109V66.578a2.318,2.318,0,0,1,2.314-2.315H201.867a2.319,2.319,0,0,1,2.315,2.315v9.531a2.316,2.316,0,0,1-2.315,2.315H52.959A2.315,2.315,0,0,1,50.645,76.109ZM204.219,196.087a5.448,5.448,0,0,1-5.445,5.447H176.993a5.448,5.448,0,0,0-5.445,5.447v21.786a5.448,5.448,0,0,1-5.445,5.447h-10.89a5.448,5.448,0,0,1-5.445-5.447V206.981a5.448,5.448,0,0,0-5.445-5.447H122.541a5.448,5.448,0,0,1-5.445-5.447V185.194a5.448,5.448,0,0,1,5.445-5.447h21.781a5.448,5.448,0,0,0,5.445-5.447V152.515a5.448,5.448,0,0,1,5.445-5.447H166.1a5.448,5.448,0,0,1,5.445,5.447V174.3a5.448,5.448,0,0,0,5.445,5.447h21.781a5.448,5.448,0,0,1,5.445,5.447Z" transform="translate(-30)" fill="#9eeaf9" />
</svg>
