<svg class="source-image" xmlns="http://www.w3.org/2000/svg" viewBox="0 0 250.007 243.837"><title>scene</title><path d="M5,109.2h248.01v135.63H5Zm114.17,9.737V235.1h21.657V118.941Z" transform="translate(-3 -0.998)" fill="#9eeaf9" /><path d="M194.53,7.958l22.383,27.936-25.9,3.965L168.626,11.923Zm35.385-5.416,9.5-1.454a7.75,7.75,0,0,1,8.834,6.488L250.591,22.9a7.715,7.715,0,0,1-.7,4.578Zm-96.674,14.8,22.383,27.936-25.9,3.965L107.337,21.3ZM71.952,26.721,94.336,54.657l-25.9,3.965L46.049,30.686ZM10.664,36.1,33.047,64.038,14.27,66.912a7.75,7.75,0,0,1-8.834-6.488L3.091,45.1a7.75,7.75,0,0,1,6.488-8.834Z" transform="translate(-3 -0.998)" fill="#9eeaf9" /><path d="M219.206,70l-17.9,31H175.1L193,70Zm33.137,4.607a7.723,7.723,0,0,1,.664,3.143v15.5a7.75,7.75,0,0,1-7.75,7.75H237.1ZM157.2,70l-17.9,31H113.1L131,70Zm-62,0L77.3,101H51.1L69,70Zm-62,0L15.3,101H12.747A7.75,7.75,0,0,1,5,93.253v-15.5A7.75,7.75,0,0,1,12.747,70Z" transform="translate(-3 -0.998)" fill="#9eeaf9" /></svg>
