<svg viewBox="0 0 80 80" xmlns="http://www.w3.org/2000/svg">
<path d="M6.66681 0C4.89095 0.00843523 3.1911 0.721694 1.94094 1.98299C0.690784 3.24428 -0.0073757 4.95038 -6.52326e-05 6.72625V73.2738C-0.0073757 75.0496 0.690784 76.7557 1.94094 78.017C3.1911 79.2783 4.89095 79.9916 6.66681 80H73.3331C75.1089 79.9916 76.8088 79.2783 78.0589 78.017C79.3091 76.7557 80.0072 75.0496 79.9999 73.2738V6.72625C80.0072 4.95038 79.3091 3.24428 78.0589 1.98299C76.8088 0.721694 75.1089 0.00843523 73.3331 0H6.66681ZM69.3012 8.5525C69.8931 8.55531 70.4597 8.79303 70.8765 9.21341C71.2932 9.63379 71.526 10.2024 71.5237 10.7944V69.2056C71.526 69.7976 71.2932 70.3662 70.8765 70.7866C70.4597 71.207 69.8931 71.4447 69.3012 71.4475H10.6987C10.1067 71.4447 9.54014 71.207 9.1234 70.7866C8.70665 70.3662 8.47386 69.7976 8.47618 69.2056V10.7944C8.47386 10.2024 8.70665 9.63379 9.1234 9.21341C9.54014 8.79303 10.1067 8.55531 10.6987 8.5525" fill="currentColor"/>
<path d="M36.7637 20.9347L26.0944 28.6737H18.1564C16.8163 28.6737 15.73 29.76 15.73 31.1001V48.8987C15.73 49.5422 15.9856 50.1594 16.4407 50.6144C16.8957 51.0695 17.5128 51.3251 18.1564 51.3251H26.0937L36.7637 59.0653C37.5084 59.4362 38.392 59.3956 39.0995 58.9577C39.807 58.5199 40.2377 57.7473 40.2379 56.9153V23.0843C40.2375 22.2524 39.8068 21.4798 39.0994 21.0421C38.3919 20.6044 37.5083 20.5637 36.7637 20.9347Z" fill="currentColor"/>
<path d="M49.4541 23.0968L49.332 22.9364L46.0465 26.2136L46.1345 26.3349C52.2048 34.4415 52.1848 45.5849 46.0852 53.6696L45.9961 53.7909L49.2774 57.0631L49.3995 56.9035C57.173 46.982 57.1953 33.0436 49.4541 23.0968Z" fill="currentColor"/>
<path d="M55.6087 16.9459L55.4851 16.8L52.2356 20.0422L52.3372 20.1647C57.1456 25.9497 59.6869 32.797 59.6869 39.967C59.6869 47.1703 57.1267 54.0404 52.2838 59.8379L52.1806 59.9611L55.2917 63.0658L55.4278 63.2L55.5514 63.0555C61.247 56.3705 64.2576 48.3866 64.2576 39.967C64.2576 31.5763 61.2663 23.6158 55.6087 16.9459Z" fill="currentColor"/>
</svg>
