<svg class="source-image" xmlns="http://www.w3.org/2000/svg" viewBox="0 0 128 128"><title>blackmagic</title><path d="M74.25,0H53.75A10.25,10.25,0,0,0,43.5,10.25v20.5A10.25,10.25,0,0,0,53.75,41h20.5A10.25,10.25,0,0,0,84.5,30.75V10.25A10.25,10.25,0,0,0,74.25,0Zm4.165,28.483a6.433,6.433,0,0,1-6.433,6.433H56.017a6.433,6.433,0,0,1-6.433-6.433V12.517a6.433,6.433,0,0,1,6.433-6.433H71.983a6.433,6.433,0,0,1,6.433,6.433Z" fill="#9eeaf9"/><path d="M74.25,44H53.75A10.25,10.25,0,0,0,43.5,54.25v20.5A10.25,10.25,0,0,0,53.75,85h20.5A10.25,10.25,0,0,0,84.5,74.75V54.25A10.25,10.25,0,0,0,74.25,44Zm4.165,28.483a6.433,6.433,0,0,1-6.433,6.433H56.017a6.433,6.433,0,0,1-6.433-6.433V56.517a6.433,6.433,0,0,1,6.433-6.433H71.983a6.433,6.433,0,0,1,6.433,6.433Z" fill="#9eeaf9"/><path d="M74.25,87H53.75A10.25,10.25,0,0,0,43.5,97.25v20.5A10.25,10.25,0,0,0,53.75,128h20.5A10.25,10.25,0,0,0,84.5,117.75V97.25A10.25,10.25,0,0,0,74.25,87Zm4.165,28.483a6.433,6.433,0,0,1-6.433,6.433H56.017a6.433,6.433,0,0,1-6.433-6.433V99.517a6.433,6.433,0,0,1,6.433-6.433H71.983a6.433,6.433,0,0,1,6.433,6.433Z" fill="#9eeaf9"/></svg>
