<svg class="source-image" xmlns="http://www.w3.org/2000/svg" viewBox="0 0 256.013 256">
  <path d="M110.2,139.721c.784.122,1.536.245,2.14.326,2.41.344,5.563.637,8.83.833v-9.647c0-3.031,0-5.571-.008-7.589C117.082,126.732,113.137,132.458,110.2,139.721Z" fill="#9eeaf9"/>
  <path d="M110.221,212.955c3.153,7.532,6.968,13.062,10.946,16.085v-7.556c0-3.587,0-7.14-.016-9.713C117.442,211.992,113.889,212.375,110.221,212.955Z" fill="#9eeaf9"/>
  <path d="M104.175,166.016c-.1,1.095-.188,2.353-.253,3.5h17.244V154.465a120.527,120.527,0,0,1-14.989-1.675A109.294,109.294,0,0,0,104.175,166.016Z" fill="#9eeaf9"/>
  <path d="M100.532,128.316a55.081,55.081,0,0,0-8.487,5.988c-.139.122-.3.261-.482.425,1.682.67,3.464,1.3,5.285,1.879C97.951,133.765,99.307,130.718,100.532,128.316Z" fill="#9eeaf9"/>
  <path d="M90.411,168.753a121.315,121.315,0,0,1,2.582-19.123,92.9,92.9,0,0,1-9.909-3.807c-.294-.13-.621-.286-.939-.441A55.406,55.406,0,0,0,73.1,169.521H90.37C90.387,169.268,90.394,169.007,90.411,168.753Z" fill="#9eeaf9"/>
  <path d="M145.789,139.737c-.466-1.128-1.005-2.353-1.544-3.48-2.728-5.661-6.053-10.088-9.435-12.637v17.286c3.211-.188,6.87-.556,9.8-.989C144.972,139.867,145.372,139.811,145.789,139.737Z" fill="#9eeaf9"/>
  <path d="M95.238,216.615c-1.151.384-2.434.874-3.635,1.356.237.22.465.417.678.589a55.285,55.285,0,0,0,8.267,5.8,80.237,80.237,0,0,1-3.692-8.283C96.284,216.264,95.721,216.443,95.238,216.615Z" fill="#9eeaf9"/>
  <path d="M90.346,183.163H73.084a55.942,55.942,0,0,0,8.8,23.723c.082.13.171.269.278.416a89.105,89.105,0,0,1,10.823-4.215A124.781,124.781,0,0,1,90.346,183.163Z" fill="#9eeaf9"/>
  <path d="M106.169,199.9c1.258-.22,2.549-.433,3.447-.563,3.5-.515,7.05-.859,11.551-1.12V183.163H103.89A119.194,119.194,0,0,0,106.169,199.9Z" fill="#9eeaf9"/>
  <path d="M162.976,149.614a125.825,125.825,0,0,1,2.63,19.907h17.277a55.517,55.517,0,0,0-9.075-24.147A88.73,88.73,0,0,1,162.976,149.614Z" fill="#9eeaf9"/>
  <path d="M134.809,211.788v17.269a.549.549,0,0,0,.082-.066c4.109-3.1,7.923-8.716,10.9-16.01-3.5-.531-7.394-.964-10.734-1.177C134.973,211.8,134.891,211.8,134.809,211.788Z" fill="#9eeaf9"/>
  <path d="M0,89.4V234.666A21.333,21.333,0,0,0,21.334,256H234.679a21.333,21.333,0,0,0,21.334-21.334V89.4ZM193.617,197.222A72.744,72.744,0,0,1,184.06,216.3a69.843,69.843,0,0,1-30.7,24.065,69.42,69.42,0,0,1-65.017-7.719,70.991,70.991,0,0,1-18.037-18.675,69.156,69.156,0,0,1-.785-74.019,70.477,70.477,0,0,1,20.79-21.264,69.775,69.775,0,0,1,23.772-9.8,74.433,74.433,0,0,1,10.1-1.324c1.9-.13,8.928.057,10.864.27a68.275,68.275,0,0,1,36.27,15,89.954,89.954,0,0,1,9.615,9.467,68.87,68.87,0,0,1,12.686,64.927Z" fill="#9eeaf9" />
  <path d="M159.161,216.076a73.935,73.935,0,0,1-3.758,8.308,55.1,55.1,0,0,0,8.733-6.183c.082-.074.18-.155.278-.246a.354.354,0,0,0-.082-.032C163.033,217.4,160.934,216.656,159.161,216.076Z" fill="#9eeaf9"/>
  <path d="M165.566,183.956a117.453,117.453,0,0,1-2.573,19.1,85.213,85.213,0,0,1,10.831,4.24,54.824,54.824,0,0,0,9.043-24.131h-17.26C165.6,183.425,165.582,183.694,165.566,183.956Z" fill="#9eeaf9"/>
  <path d="M134.809,198.2a134.382,134.382,0,0,1,14.966,1.707c.449-2.149.98-4.893,1.258-6.829.433-2.932.833-6.894,1.03-9.917H134.809Z" fill="#9eeaf9"/>
  <path d="M163.94,134.893c.147-.057.294-.115.457-.18a57.6,57.6,0,0,0-8.961-6.388,76.186,76.186,0,0,1,3.684,8.283C160.77,136.069,162.665,135.4,163.94,134.893Z" fill="#9eeaf9"/>
  <path d="M134.809,154.465v15.055h17.253a104.95,104.95,0,0,0-2.255-16.73A122.866,122.866,0,0,1,134.809,154.465Z" fill="#9eeaf9"/>
  <path d="M234.679,0H21.334A21.333,21.333,0,0,0,0,21.334V67.2H256.013V21.334A21.333,21.333,0,0,0,234.679,0ZM33.128,50.709A19.267,19.267,0,1,1,52.394,31.442,19.267,19.267,0,0,1,33.128,50.709Zm49.472,0a19.267,19.267,0,1,1,19.267-19.267A19.267,19.267,0,0,1,82.6,50.709Zm49.473,0A19.267,19.267,0,1,1,151.34,31.442,19.267,19.267,0,0,1,132.073,50.709Z" fill="#9eeaf9"/>
</svg>
