<svg xmlns="http://www.w3.org/2000/svg" viewBox="0 0 128 128"><title>clipboard-copy</title><path d="M28.444,99.555H21.333v21.333h92.444V21.333H99.555v9.273a5,5,0,0,1-5.02,4.949H40.576a5.028,5.028,0,0,1-5.02-4.949V21.333H21.333V71.111h7.111V61.867a1.835,1.835,0,0,1,2.844-1.422c1.088.811,17.778,13.148,30.364,22.756a2.514,2.514,0,0,1,.071,4.267c-12.658,9.714-29.468,22.144-30.436,22.756s-2.844.156-2.844-1.422ZM14.222,71.111V19.257a5.009,5.009,0,0,1,5-5.035h18.7l3.164-9.486A7.426,7.426,0,0,1,47.623,0H87.488a7.365,7.365,0,0,1,6.535,4.736l3.164,9.486h18.7a4.964,4.964,0,0,1,5,5.035V122.965A5.013,5.013,0,0,1,115.9,128H19.221a4.964,4.964,0,0,1-5-4.927q0-.054,0-.107V99.555H2.119A2.119,2.119,0,0,1,0,97.436s0-.01,0-.014V73.244a2.18,2.18,0,0,1,2.119-2.133Zm7.111,0V64H14.222v7.111Zm0,28.444H14.222v7.111h7.111ZM46.521,8.484,45.212,12.85a1.013,1.013,0,0,0,1,1.372H88.9a1,1,0,0,0,1-1.372L88.59,8.484a2.051,2.051,0,0,0-1.785-1.372h-38.5a1.963,1.963,0,0,0-1.778,1.372ZM42.667,22.706v4.366A1.435,1.435,0,0,0,44.1,28.444h46.9a1.444,1.444,0,0,0,1.436-1.372V22.706a1.435,1.435,0,0,0-1.436-1.372H44.1A1.444,1.444,0,0,0,42.667,22.706Zm0,36.281a2.143,2.143,0,0,1,2.162-2.1H97.394a2.162,2.162,0,0,1,2.162,2.1V61.9A2.14,2.14,0,0,1,97.394,64H44.828a2.162,2.162,0,0,1-2.162-2.1ZM35.556,44.764a2.083,2.083,0,0,1,2.133-2.1H97.422a2.147,2.147,0,0,1,2.133,2.1V47.68a2.084,2.084,0,0,1-2.069,2.1h-59.8a2.148,2.148,0,0,1-2.133-2.1ZM64,73.209a2.158,2.158,0,0,1,2.119-2.1H97.436a2.133,2.133,0,0,1,2.119,2.1v2.916a2.155,2.155,0,0,1-2.119,2.1H66.119A2.133,2.133,0,0,1,64,76.124Zm7.111,14.222a2.109,2.109,0,0,1,2.133-2.1H97.422a2.151,2.151,0,0,1,2.133,2.1v2.916a2.112,2.112,0,0,1-2.126,2.1H73.244a2.148,2.148,0,0,1-2.133-2.1Zm0,14.222a2.109,2.109,0,0,1,2.133-2.1H97.422a2.151,2.151,0,0,1,2.133,2.1v2.916a2.112,2.112,0,0,1-2.126,2.1H73.244a2.148,2.148,0,0,1-2.133-2.1Z"/></svg>