<svg slot="media" class="source-image" xmlns="http://www.w3.org/2000/svg" viewBox="0 0 256 241.265">
  <path d="M67.885,191.433c57.491-7.7,23.346-71.184,78.442-81.9,22.857-4.443,31.812,14.892,55.437,21.586,19.973,5.66,54.349-14.391,54.235-38.081-.277-57.217-67.719-86.611-139.43-77.806S-7.844,80.19.962,151.9C3.748,174.592,29.279,196.6,67.885,191.433ZM204.826,58.3a24.526,24.526,0,1,1-21.354,27.333A24.526,24.526,0,0,1,204.826,58.3ZM138.366,28.36a24.526,24.526,0,1,1-21.354,27.333A24.526,24.526,0,0,1,138.366,28.36ZM71.381,56.633A24.526,24.526,0,1,1,50.027,83.965,24.526,24.526,0,0,1,71.381,56.633ZM41.954,124.548A24.526,24.526,0,1,1,20.6,151.88,24.525,24.525,0,0,1,41.954,124.548Z" transform="translate(0 -13.699)" fill="#9eeaf9" />
  <path d="M222.672,200.183c-10.969-5.236-11.861-8.39-22.957-6.615-9.728,1.556-13.411,17.949-13.829,21.338l-.177-1.189c-18.555-5.736-15.487-12.136-61.731-5.262C82.067,214.685,19.6,235.85,1.271,245.811l.812,6.65c20.429,4.2,86.058,3.087,127.969-3.143,46.244-6.874,41.447-12.106,57.531-22.992l-.261-1.754a17.034,17.034,0,0,0,4.216,6.355c6.46,5.81,18.347,12.449,31.522,8.944,16.5-4.39,22.763-12.778,29.572-26.07,5.993-11.7.577-35.529.577-35.529S242.646,209.719,222.672,200.183Z" transform="translate(0 -13.699)" fill="#9eeaf9" />
</svg>
