<svg class="source-image" xmlns="http://www.w3.org/2000/svg" viewBox="0 0 256 255.6"><title>display</title><path d="M256,68.7V22.9A22.961,22.961,0,0,0,233.1,0H22.9A22.961,22.961,0,0,0,0,22.9H0V175.6a22.961,22.961,0,0,0,22.9,22.9H233.1A22.961,22.961,0,0,0,256,175.6V68.7Zm-38.2,7.6v76.3a7.6,7.6,0,0,1-7.6,7.6H45.8a7.6,7.6,0,0,1-7.6-7.6V45.8a7.6,7.6,0,0,1,7.6-7.6H210.2a7.6,7.6,0,0,1,7.6,7.6Z" fill="#9eeaf9" /><path d="M225.8,224.8H164.5a5.869,5.869,0,0,1-5.8-5.8V202.7a5.574,5.574,0,0,1,3-5H94.3a5.768,5.768,0,0,1,3,5V219a5.869,5.869,0,0,1-5.8,5.8H30.2a5.869,5.869,0,0,0-5.8,5.8v25h207v-25A5.637,5.637,0,0,0,225.8,224.8Z" fill="#9eeaf9" /></svg>
