<svg class="source-image" xmlns="http://www.w3.org/2000/svg" viewBox="0 0 256.015 252.654"><title>video-capture</title><path d="M61.3,90.8a68.366,68.366,0,0,1,134.1,0h36.2a104.1,104.1,0,0,0-206.5,0Z" transform="translate(0.008 0.054)" fill="#9eeaf9" /><path d="M195.4,117.5a68.366,68.366,0,0,1-134.1,0H25.1a104.1,104.1,0,0,0,206.5,0Z" transform="translate(0.008 0.054)" fill="#9eeaf9" /><path d="M128.3,57.1a47.1,47.1,0,1,0,47.1,47.1h0A47.116,47.116,0,0,0,128.3,57.1Zm13.9,45.5a12.3,12.3,0,1,1,12.3-12.3,12.291,12.291,0,0,1-12.3,12.3Z" transform="translate(0.008 0.054)" fill="#9eeaf9" /><path d="M251.5,222.5,209,193c-23.4,16.9-50.9,26.7-80.4,26.7-29.7,0-57.4-9.9-80.9-27.1L4.5,222.5c-15,7.7,10.5,30.1,31.6,30.1,0,0,49.1-11.5,92.1-11.5s91.7,11.5,91.7,11.5C241,252.6,266.5,230.2,251.5,222.5Z" transform="translate(0.008 0.054)" fill="#9eeaf9" /></svg>
