<svg class="source-image" xmlns="http://www.w3.org/2000/svg" viewBox="0 0 255.901 256">
  <path d="M21.3,0A21.489,21.489,0,0,0,0,21.5v213A21.425,21.425,0,0,0,21.3,256H234.6a21.424,21.424,0,0,0,21.3-21.5V21.5A21.425,21.425,0,0,0,234.6,0ZM221.8,27.4a7.149,7.149,0,0,1,7.1,7.2V221.5a7.214,7.214,0,0,1-7.1,7.2H34.2a7.149,7.149,0,0,1-7.1-7.2V34.5a7.214,7.214,0,0,1,7.1-7.2" fill="#9eeaf9" /><path d="M155.9,180.6H70.4V90.2H160v86.3a4.118,4.118,0,0,1-4.1,4.1M207,102.7l-26.7,13.5V77.9a8.152,8.152,0,0,0-8.1-8.2H58.2a8.152,8.152,0,0,0-8.1,8.2v115a8.152,8.152,0,0,0,8.1,8.2h114a8.152,8.152,0,0,0,8.1-8.2V154.6L212.9,171V106.4a4.034,4.034,0,0,0-4-4.1,5.848,5.848,0,0,0-1.9.4" fill="#9eeaf9" /><path d="M212.9,67.6a14.251,14.251,0,1,1-14.3-14.4,14.382,14.382,0,0,1,14.3,14.4" fill="#9eeaf9" />
</svg>
