<svg class="source-image" xmlns="http://www.w3.org/2000/svg" viewBox="0 0 256 256">
 <title>image</title>
 <path d="M21.333,0A21.437,21.437,0,0,0,0,21.523V234.477A21.437,21.437,0,0,0,21.333,256H234.667A21.437,21.437,0,0,0,256,234.477V21.523A21.437,21.437,0,0,0,234.667,0Zm200.43,27.367a7.146,7.146,0,0,1,7.111,7.174V221.458a7.146,7.146,0,0,1-7.111,7.174H34.237a7.146,7.146,0,0,1-7.111-7.174V34.542a7.146,7.146,0,0,1,7.111-7.174" fill="#9eeaf9"/>
 <path d="M70.678,177.39,44.105,213.076a3.356,3.356,0,0,0,2.661,5.369l53.056-.1a3.353,3.353,0,0,0,2.654-5.362l-26.483-35.6a3.308,3.308,0,0,0-5.315,0" fill="#9eeaf9"/>
 <path d="M143.8,125.337,83.534,206.269a7.611,7.611,0,0,0,6.034,12.176l120.327-.22a7.6,7.6,0,0,0,6.019-12.16l-60.062-80.728a7.5,7.5,0,0,0-12.053,0" fill="#9eeaf9"/>
 <ellipse cx="86.631" cy="82.473" rx="41.009" ry="41.374" fill="#9eeaf9" />
</svg>
