<svg class="import-obs-image" xmlns="http://www.w3.org/2000/svg" viewBox="0 0 452.283 128.042">
  <title>n-air-obs-logo</title>
  <path d="M99.646,157.843l1.122-1.576-1.4-4.249c-5.13-15.521,4.184-31.171,20.153-33.865,11.6-1.953,23.779,5.147,27.979,16.315,1,2.66,1.03,2.688.7.646a29.511,29.511,0,0,0-8.813-16.414,30.718,30.718,0,0,0-18.325-8.843c-2.259-.3-2.493-.217-3.343,1.222a30.451,30.451,0,0,1-7.937,7.727c-7.585,4.846-19.278,4.848-26.881,0-8.59-5.472-13.448-15.95-11.871-25.6a25.985,25.985,0,0,1,6.88-13.862c2.68-2.839,2.862-3.152,1.313-2.265-2.608,1.493-8.712,8.126-10.445,11.35a36.459,36.459,0,0,0-3.609,14.631,36.785,36.785,0,0,0,2.422,12.284c.837,2.092.943,2.158,4.044,2.508a34.865,34.865,0,0,1,6.15,1.381,25.541,25.541,0,0,1,14.477,35.388c-4.6,9.4-15.259,15.451-25.219,14.322-4.054-.459-3.624.09.871,1.112a36.764,36.764,0,0,0,15.035-.5C89,167.706,96.247,162.616,99.646,157.843Z" transform="translate(-33.006 -63.505)" fill="#9eeaf9"/>
  <path d="M96.551,64.453A63.547,63.547,0,1,0,160.1,128,63.547,63.547,0,0,0,96.551,64.453Zm0,6.826A56.721,56.721,0,1,1,39.83,128h0A56.667,56.667,0,0,1,96.443,71.279Z" transform="translate(-33.006 -63.505)" fill="#9eeaf9"/>
  <path d="M245.029,105.573a3.684,3.684,0,0,0-6.306,2.588v8.074a3.363,3.363,0,0,1-3.361,3.361H205.724a3.358,3.358,0,0,0-3.361,3.355v10.09a3.358,3.358,0,0,0,3.355,3.361h29.644a3.363,3.363,0,0,1,3.361,3.361v8.074a3.684,3.684,0,0,0,6.306,2.588l19.5-19.778a3.8,3.8,0,0,0,0-5.3l-19.5-19.771" transform="translate(-33.006 -63.505)" fill="#70a0af"/>
  <path d="M361.316,80.7h15.619v-17.2H361.316a6.982,6.982,0,0,0-6.982,6.982v3.234A6.982,6.982,0,0,0,361.316,80.7Z" transform="translate(-33.006 -63.505)" fill="#9eeaf9"/>
  <path d="M429.137,73.721V70.487a6.982,6.982,0,0,0-6.982-6.982H406.536V80.7h15.619A6.982,6.982,0,0,0,429.137,73.721Z" transform="translate(-33.006 -63.505)" fill="#9eeaf9"/>
  <path d="M345.294,140.018h0c2.192,5.963,7.092,10.076,13.526,12.555,8.854,3.487,20.7,4.45,33.6,4.456,12.894-.009,24.5-.972,33.117-4.462,6.261-2.485,10.967-6.608,13.067-12.553a12.514,12.514,0,1,0-4.364-24.351,38.753,38.753,0,0,0-8.628-8.744,54.73,54.73,0,0,0-25.835-9.854h0V63.51H383.695v33.6a54.609,54.609,0,0,0-25.462,9.813,38.734,38.734,0,0,0-8.627,8.742,12.495,12.495,0,1,0-4.307,24.357Zm97.673-12.5a4.855,4.855,0,0,1-3.17,4.539c0,.153.031.3.031.454a27.767,27.767,0,0,0-1.856-9.832c.047,0,.091-.014.139-.014a4.866,4.866,0,0,1,4.854,4.851Zm-91.575,5.053v-.059c0-7.324,3.989-14.311,11.234-19.676,7.757-5.752,18.163-8.923,29.3-8.926s21.538,3.173,29.3,8.928c7.241,5.364,11.23,12.35,11.233,19.573v.228c.009,3.965-.98,9.632-9.683,13.087-6.583,2.666-16.229,3.913-30.345,3.923-14.267-.007-24.085-1.26-30.95-3.962-9.052-3.488-10.089-9.128-10.082-12.963Zm-5.658-9.905c.047,0,.092.012.139.014h0a27.783,27.783,0,0,0-1.856,9.832c0-.154.028-.3.031-.454a4.844,4.844,0,0,1,1.686-9.391Zm1.772-3.6-.011.023Z" transform="translate(-33.006 -63.505)" fill="#9eeaf9"/>
  <circle cx="339.047" cy="61.37" r="5.109" fill="#9eeaf9"/>
  <circle cx="378.782" cy="61.37" r="5.109" fill="#9eeaf9"/>
  <path d="M384.931,139.556a.227.227,0,0,0,.045,0,12.5,12.5,0,0,0,6.761-2.986,12.485,12.485,0,0,0,6.761,2.986.365.365,0,0,0,.426-.336l.492-4.273a.383.383,0,0,0-.084-.288.376.376,0,0,0-.264-.138,7.246,7.246,0,0,1-5.605-3.376h0a2.094,2.094,0,0,0-3.444,0,7.271,7.271,0,0,1-5.608,3.376.376.376,0,0,0-.264.138.383.383,0,0,0-.084.288l.492,4.273A.383.383,0,0,0,384.931,139.556Z" transform="translate(-33.006 -63.505)" fill="#9eeaf9"/>
  <path d="M358.747,169.452a11.7,11.7,0,0,0-3.311-2.541,17.507,17.507,0,0,0-3.873-1.424,17.918,17.918,0,0,0-8.212,0,17.474,17.474,0,0,0-3.866,1.424,11.345,11.345,0,0,0-3.295,2.541,6.281,6.281,0,0,0-1.611,3.951v14.066a2.824,2.824,0,0,0,.961,2.174,3.235,3.235,0,0,0,2.25.845h.009a2.991,2.991,0,0,0,2.986-3V174.646a2.443,2.443,0,0,1,.764-1.678,6.282,6.282,0,0,1,1.732-1.174,9.715,9.715,0,0,1,2.042-.668,10.358,10.358,0,0,1,4.275,0,9.848,9.848,0,0,1,2.042.668,6.313,6.313,0,0,1,1.732,1.173,2.429,2.429,0,0,1,.764,1.65v12.853a2.824,2.824,0,0,0,.958,2.174,3.243,3.243,0,0,0,2.253.845h.009a3.041,3.041,0,0,0,3.02-3.02V173.38A6.184,6.184,0,0,0,358.747,169.452Z" transform="translate(-33.006 -63.505)" fill="#9eeaf9"/>
  <path d="M414.9,173.515h-.019a3.146,3.146,0,0,0-2.2.85,2.986,2.986,0,0,0-.978,2.172v10.933a2.823,2.823,0,0,0,.962,2.174,3.218,3.218,0,0,0,2.25.845h.009a3.042,3.042,0,0,0,3.023-3.02v-10.95a3.017,3.017,0,0,0-.93-2.106A3.113,3.113,0,0,0,414.9,173.515Z" transform="translate(-33.006 -63.505)" fill="#9eeaf9"/>
  <path d="M402.265,167.669a12.593,12.593,0,0,0-3.69-1.959,21.423,21.423,0,0,0-5.24-.656,27.562,27.562,0,0,0-5.817.637,12.911,12.911,0,0,0-3.711,1.835,10.339,10.339,0,0,0-2.751,2.941,7.494,7.494,0,0,0-1.08,4v13.07a2.884,2.884,0,0,0,.858,2.095,2.924,2.924,0,0,0,5-2.095v-5.427h14.4v5.427a2.931,2.931,0,0,0,5.006,2.093l0,0a2.886,2.886,0,0,0,.851-2.09V174.967a8.2,8.2,0,0,0-1.08-4.183A10.521,10.521,0,0,0,402.265,167.669Zm-2.038,8.556h-14.4v-.177a5.3,5.3,0,0,1,.574-2.648,4.668,4.668,0,0,1,1.393-1.579,4.778,4.778,0,0,1,1.824-.794,33.412,33.412,0,0,1,3.712-.222,23.8,23.8,0,0,1,3.105.222,4.763,4.763,0,0,1,3.221,2.374,5.377,5.377,0,0,1,.565,2.646Z" transform="translate(-33.006 -63.505)" fill="#9eeaf9"/>
  <path d="M372.659,176.236h-6.022a2.935,2.935,0,1,0,0,5.869h6.022a2.935,2.935,0,1,0,0-5.869Z" transform="translate(-33.006 -63.505)" fill="#9eeaf9"/>
  <path d="M415.6,165.015h-1.546a2.894,2.894,0,1,0,0,5.788H415.6a2.894,2.894,0,1,0,0-5.788Z" transform="translate(-33.006 -63.505)" fill="#9eeaf9"/>
  <path d="M444.951,181.844a8.382,8.382,0,0,0,5.554-7.829c0-4.434-3.621-7.826-8.482-7.826H426.778a3.137,3.137,0,0,0-2.2.85,2.991,2.991,0,0,0-.978,2.172v18.26a2.825,2.825,0,0,0,.962,2.176,3.229,3.229,0,0,0,2.25.844h.009a3.018,3.018,0,0,0,3.014-2.959V172.083h12.191c1.734,0,2.587.906,2.587,1.931a2.526,2.526,0,0,1-2.587,2.449h-4.9a2.957,2.957,0,0,0-2.948,2.949,3.459,3.459,0,0,0,1.2,2.49l10.519,8.119a2.948,2.948,0,1,0,3.6-4.668h0Z" transform="translate(-33.006 -63.505)" fill="#9eeaf9"/>
  <path d="M455.333,92.484a.384.384,0,0,0-.281-.15.358.358,0,0,0-.3.111l-6.144,6.144a.383.383,0,0,0-.039.5,46.2,46.2,0,0,1-.1,55.411.385.385,0,0,0,.039.5l6.135,6.136a.384.384,0,0,0,.271.112h.026a.384.384,0,0,0,.281-.15,55.847,55.847,0,0,0,.111-68.608Z" transform="translate(-33.006 -63.505)" fill="#9eeaf9"/>
  <path d="M335.371,154.5a46.2,46.2,0,0,1-.1-55.411.383.383,0,0,0-.039-.5l-6.144-6.146a.351.351,0,0,0-.3-.111.384.384,0,0,0-.281.15,55.847,55.847,0,0,0,.111,68.608.384.384,0,0,0,.281.15h.026a.384.384,0,0,0,.271-.112l6.135-6.136A.385.385,0,0,0,335.371,154.5Z" transform="translate(-33.006 -63.505)" fill="#9eeaf9"/>
  <path d="M307.856,126.718a62.4,62.4,0,0,1,14.863-40.149.384.384,0,0,0-.024-.516l-6.073-6.072a.443.443,0,0,0-.288-.112.382.382,0,0,0-.276.136c-11.452,13.533-17.506,29.686-17.506,46.713,0,17.086,6.095,33.286,17.624,46.847a.386.386,0,0,0,.278.135h.015a.384.384,0,0,0,.271-.112l6.068-6.068a.385.385,0,0,0,.024-.518A62.4,62.4,0,0,1,307.856,126.718Z" transform="translate(-33.006 -63.505)" fill="#9eeaf9"/>
  <path d="M467.783,80.006a.381.381,0,0,0-.276-.136.421.421,0,0,0-.288.112l-6.074,6.071a.384.384,0,0,0-.024.516A61.669,61.669,0,0,1,461.01,167a.385.385,0,0,0,.024.518l6.068,6.068a.384.384,0,0,0,.271.112h.015a.386.386,0,0,0,.278-.135C479.192,160,485.289,143.8,485.289,126.719,485.29,109.691,479.235,93.538,467.783,80.006Z" transform="translate(-33.006 -63.505)" fill="#9eeaf9"/>
</svg>