<svg xmlns="http://www.w3.org/2000/svg" viewBox="0 0 256 174.285">
    <title>nair-logo</title>
    <path d="M86.044,64.433h21.412V40.858H86.044a9.572,9.572,0,0,0-9.572,9.572v4.433A9.572,9.572,0,0,0,86.044,64.433Z" transform="translate(0 -40.858)" fill="#9eeaf9"/>
    <path d="M179.02,54.862V50.429a9.572,9.572,0,0,0-9.572-9.572H148.036V64.433h21.412A9.572,9.572,0,0,0,179.02,54.862Z" transform="translate(0 -40.858)" fill="#9eeaf9"/>
    <path d="M64.08,145.749h0c3.005,8.174,9.722,13.813,18.543,17.211,12.138,4.78,28.384,6.1,46.059,6.109,17.676-.013,33.587-1.333,45.4-6.117,8.583-3.406,15.035-9.059,17.913-17.209a17.156,17.156,0,1,0-5.982-33.383,53.127,53.127,0,0,0-11.828-11.987c-9.48-7.029-21.758-11.82-35.417-13.509h0v-46H116.723V86.92c-13.457,1.746-25.546,6.51-34.906,13.452A53.1,53.1,0,0,0,69.99,112.357a17,17,0,0,0-5.305-.921,17.161,17.161,0,0,0-.6,34.312Zm133.9-17.13a6.656,6.656,0,0,1-4.346,6.223c0,.21.042.412.042.623a38.066,38.066,0,0,0-2.544-13.478c.065,0,.125-.019.19-.019A6.671,6.671,0,0,1,197.976,128.618ZM72.44,135.546v-.081c0-10.041,5.468-19.619,15.4-26.974,10.634-7.886,24.9-12.232,40.163-12.236s29.526,4.35,40.166,12.239c9.927,7.354,15.395,16.931,15.4,26.832l0,.233v.08c.013,5.435-1.343,13.205-13.274,17.941-9.025,3.655-22.248,5.364-41.6,5.378-19.558-.009-33.018-1.727-42.429-5.432-12.41-4.782-13.831-12.514-13.821-17.771Zm-7.756-13.579c.065,0,.126.017.191.019h0a38.087,38.087,0,0,0-2.545,13.478c0-.211.039-.413.042-.623a6.641,6.641,0,0,1,2.312-12.874Zm2.429-4.936-.015.031Z" transform="translate(0 -40.858)" fill="#9eeaf9"/>
    <circle cx="100.764" cy="84.131" r="7.004" fill="#9eeaf9"/><circle cx="155.236" cy="84.131" r="7.004" fill="#9eeaf9"/>
    <path d="M118.418,145.115a.311.311,0,0,0,.062,0,17.133,17.133,0,0,0,9.268-4.093,17.116,17.116,0,0,0,9.268,4.093.5.5,0,0,0,.584-.461l.675-5.858a.525.525,0,0,0-.115-.395.516.516,0,0,0-.362-.189,9.934,9.934,0,0,1-7.684-4.628h0a2.87,2.87,0,0,0-4.722,0,9.968,9.968,0,0,1-7.688,4.628.516.516,0,0,0-.362.189.525.525,0,0,0-.115.395l.675,5.858A.525.525,0,0,0,118.418,145.115Z" transform="translate(0 -40.858)" fill="#9eeaf9"/>
    <path d="M82.523,186.1a16.046,16.046,0,0,0-4.539-3.483,24,24,0,0,0-5.309-1.952,24.564,24.564,0,0,0-11.258,0,23.956,23.956,0,0,0-5.3,1.952A15.553,15.553,0,0,0,51.6,186.1a8.61,8.61,0,0,0-2.208,5.417V210.8a3.871,3.871,0,0,0,1.318,2.981,4.435,4.435,0,0,0,3.084,1.159h.013A4.1,4.1,0,0,0,57.9,210.8l0-17.58a3.349,3.349,0,0,1,1.047-2.3,8.612,8.612,0,0,1,2.374-1.61,13.318,13.318,0,0,1,2.8-.916,14.2,14.2,0,0,1,5.861,0,13.5,13.5,0,0,1,2.8.916,8.655,8.655,0,0,1,2.374,1.608,3.33,3.33,0,0,1,1.047,2.262V210.8a3.871,3.871,0,0,0,1.314,2.981,4.446,4.446,0,0,0,3.089,1.159h.013a4.169,4.169,0,0,0,4.14-4.14l0-19.315A8.478,8.478,0,0,0,82.523,186.1Z" transform="translate(0 -40.858)" fill="#9eeaf9"/>
    <path d="M159.506,191.67h-.026a4.313,4.313,0,0,0-3.018,1.165,4.093,4.093,0,0,0-1.341,2.977V210.8a3.87,3.87,0,0,0,1.319,2.981,4.412,4.412,0,0,0,3.084,1.159h.013a4.17,4.17,0,0,0,4.144-4.14V195.788a4.136,4.136,0,0,0-1.275-2.887A4.267,4.267,0,0,0,159.506,191.67Z" transform="translate(0 -40.858)" fill="#9eeaf9"/>
    <path d="M142.181,183.656a17.263,17.263,0,0,0-5.058-2.686,29.368,29.368,0,0,0-7.184-.9,37.784,37.784,0,0,0-7.975.873,17.7,17.7,0,0,0-5.088,2.516,14.174,14.174,0,0,0-3.771,4.032,10.274,10.274,0,0,0-1.481,5.486v17.918a3.954,3.954,0,0,0,1.176,2.872,4.009,4.009,0,0,0,6.852-2.872v-7.44h19.735v7.44a3.99,3.99,0,0,0,1.176,2.872,4.021,4.021,0,0,0,5.69-.006,3.956,3.956,0,0,0,1.167-2.865V193.66a11.239,11.239,0,0,0-1.481-5.734A14.423,14.423,0,0,0,142.181,183.656Zm-2.794,11.729H119.652v-.243a7.26,7.26,0,0,1,.787-3.63,6.4,6.4,0,0,1,1.91-2.164,6.55,6.55,0,0,1,2.5-1.088,45.806,45.806,0,0,1,5.089-.305,32.628,32.628,0,0,1,4.257.305,6.53,6.53,0,0,1,4.416,3.254,7.371,7.371,0,0,1,.774,3.627Z" transform="translate(0 -40.858)" fill="#9eeaf9"/>
    <path d="M101.595,195.4H93.339a4.023,4.023,0,1,0,0,8.046h8.255a4.023,4.023,0,1,0,0-8.046Z" transform="translate(0 -40.858)" fill="#9eeaf9"/>
    <path d="M160.461,180.017h-2.12a3.967,3.967,0,1,0,0,7.935h2.12a3.967,3.967,0,1,0,0-7.935Z" transform="translate(0 -40.858)" fill="#9eeaf9"/>
    <path d="M200.7,203.088a11.491,11.491,0,0,0,7.614-10.733c0-6.079-4.964-10.729-11.628-10.729h-20.9a4.3,4.3,0,0,0-3.018,1.165,4.1,4.1,0,0,0-1.341,2.977V210.8a3.873,3.873,0,0,0,1.319,2.983,4.426,4.426,0,0,0,3.084,1.157h.013a4.138,4.138,0,0,0,4.132-4.057V189.707h16.713c2.377,0,3.546,1.242,3.546,2.647a3.463,3.463,0,0,1-3.546,3.358h-6.714a4.054,4.054,0,0,0-4.041,4.043,4.742,4.742,0,0,0,1.647,3.414L202,214.3a4.04,4.04,0,1,0,4.937-6.4Z" transform="translate(0 -40.858)" fill="#9eeaf9"/>
    <path d="M214.932,80.584a.527.527,0,0,0-.385-.206.491.491,0,0,0-.407.152l-8.423,8.423a.525.525,0,0,0-.053.681,63.34,63.34,0,0,1-.14,75.963.528.528,0,0,0,.053.683l8.41,8.412a.526.526,0,0,0,.372.154.2.2,0,0,0,.035,0,.527.527,0,0,0,.385-.206,76.561,76.561,0,0,0,.152-94.055Z" transform="translate(0 -40.858)" fill="#9eeaf9"/>
    <path d="M50.476,165.6a63.34,63.34,0,0,1-.14-75.963.525.525,0,0,0-.053-.681L41.86,80.53a.481.481,0,0,0-.407-.152.527.527,0,0,0-.385.206,76.561,76.561,0,0,0,.152,94.055.527.527,0,0,0,.385.206.2.2,0,0,0,.035,0,.526.526,0,0,0,.372-.154l8.41-8.412A.528.528,0,0,0,50.476,165.6Z" transform="translate(0 -40.858)" fill="#9eeaf9"/>
    <path d="M12.756,127.516c0-19.932,7.044-38.964,20.375-55.04a.527.527,0,0,0-.033-.708l-8.326-8.324a.607.607,0,0,0-.395-.154.523.523,0,0,0-.378.187C8.3,82.03,0,104.173,0,127.516c0,23.423,8.355,45.632,24.161,64.223a.529.529,0,0,0,.381.185h.021a.526.526,0,0,0,.372-.154l8.318-8.318a.528.528,0,0,0,.033-.71C19.854,166.632,12.756,147.534,12.756,127.516Z" transform="translate(0 -40.858)" fill="#9eeaf9"/>
    <path d="M232,63.478a.523.523,0,0,0-.378-.187.577.577,0,0,0-.395.154L222.9,71.768a.527.527,0,0,0-.033.708c13.33,16.076,20.375,35.107,20.375,55.04,0,20.017-7.1,39.114-20.527,55.227a.528.528,0,0,0,.033.71l8.318,8.318a.526.526,0,0,0,.372.154h.021a.529.529,0,0,0,.381-.185c15.8-18.593,24.159-40.8,24.159-64.223C256,104.173,247.7,82.03,232,63.478Z" transform="translate(0 -40.858)" fill="#9eeaf9"/>
</svg>