<svg class="source-image" xmlns="http://www.w3.org/2000/svg" viewBox="0 0 256.004 256">
  <path d="M14.6,82.2A14.553,14.553,0,0,0,0,96.8V241.4A14.553,14.553,0,0,0,14.6,256H160.8a14.553,14.553,0,0,0,14.6-14.6V96.8a14.553,14.553,0,0,0-14.6-14.6Zm137.3,18.5a4.908,4.908,0,0,1,4.9,4.9V232.5a4.908,4.908,0,0,1-4.9,4.9H23.5a4.908,4.908,0,0,1-4.9-4.9V105.6a4.908,4.908,0,0,1,4.9-4.9" transform="translate(0.003)" fill="#9eeaf9" /><path d="M52.3,200.7,36.2,222.1a1.956,1.956,0,0,0,.4,2.8,1.746,1.746,0,0,0,1.2.4l32.1-.1a2.006,2.006,0,0,0,2-2,1.746,1.746,0,0,0-.4-1.2l-16-21.3a1.956,1.956,0,0,0-2.8-.4c-.2.1-.3.3-.4.4" transform="translate(0.003)" fill="#9eeaf9" /><path d="M96.5,169.5,60,218a4.545,4.545,0,0,0,3.6,7.3l72.7-.1a4.444,4.444,0,0,0,4.5-4.6,4.388,4.388,0,0,0-.9-2.7l-36.3-48.4a4.6,4.6,0,0,0-6.4-.9c-.2.3-.5.6-.7.9" transform="translate(0.003)" fill="#9eeaf9" /><circle cx="61.903" cy="143.9" r="24.8" fill="#9eeaf9" /><path d="M200.4,256a4.974,4.974,0,0,1-5-5.1V77a15.13,15.13,0,0,0-15.1-15.3H5a4.974,4.974,0,0,1-5-5.1H0V46.2a5.037,5.037,0,0,1,5-5.1H200.5a15.193,15.193,0,0,1,15.1,15.3V250.8a5.037,5.037,0,0,1-5,5.1H200.4Z" transform="translate(0.003)" fill="#9eeaf9" /><path d="M240.9,255.8a4.974,4.974,0,0,1-5-5.1V35.9a15.13,15.13,0,0,0-15.1-15.3H5.5a4.974,4.974,0,0,1-5-5.1h0V5.1A5.037,5.037,0,0,1,5.5,0H240.9A15.193,15.193,0,0,1,256,15.3V250.6a5.037,5.037,0,0,1-5,5.1Z" transform="translate(0.003)" fill="#9eeaf9" />
</svg>
