<svg viewBox="0 0 128 128" xmlns="http://www.w3.org/2000/svg">
<path d="M0 38C0 33.5817 3.58172 30 8 30C12.4183 30 16 33.5817 16 38V90C16 94.4183 12.4183 98 8 98C3.58172 98 0 94.4183 0 90V38Z" fill="currentColor"/>
<path d="M28 8C28 3.58172 31.5817 0 36 0C40.4183 0 44 3.58172 44 8V119.2C44 123.618 40.4183 127.2 36 127.2C31.5817 127.2 28 123.618 28 119.2V8Z" fill="currentColor"/>
<path d="M56 26C56 21.5817 59.5817 18 64 18C68.4183 18 72 21.5817 72 26V102C72 106.418 68.4183 110 64 110C59.5817 110 56 106.418 56 102V26Z" fill="currentColor"/>
<path d="M84 48.4286C84 44.0103 87.5817 40.4286 92 40.4286C96.4183 40.4286 100 44.0103 100 48.4286V79.5714C100 83.9897 96.4183 87.5714 92 87.5714C87.5817 87.5714 84 83.9897 84 79.5714V48.4286Z" fill="currentColor"/>
<path d="M112 33.4286C112 29.0103 115.582 25.4286 120 25.4286C124.418 25.4286 128 29.0103 128 33.4286V94.5714C128 98.9897 124.418 102.571 120 102.571C115.582 102.571 112 98.9897 112 94.5714V33.4286Z" fill="currentColor"/>
</svg>
