<svg class="source-image" xmlns="http://www.w3.org/2000/svg" viewBox="0 0 255.901 256">
  <path d="M21.3,0A21.489,21.489,0,0,0,0,21.5v213A21.425,21.425,0,0,0,21.3,256H234.6a21.424,21.424,0,0,0,21.3-21.5V21.5A21.425,21.425,0,0,0,234.6,0ZM221.8,27.4a7.149,7.149,0,0,1,7.1,7.2V221.5a7.214,7.214,0,0,1-7.1,7.2H34.2a7.149,7.149,0,0,1-7.1-7.2V34.5a7.214,7.214,0,0,1,7.1-7.2" fill="#9eeaf9" /><path d="M91.9,164.5l-7.1,20.8a26.829,26.829,0,0,0-1.5,8.9c0,15.9,18.7,16.5,26.3,16.7v6.3H43.3v-6.3c11.1-.2,23.8-.8,29.4-16.4L127.1,36.6h9.6l55.4,155.9c3.8,10.6,11.6,17.7,25.8,18.5v6.3H138V211c8.3-.2,21.8-.5,21.8-10.9a16.059,16.059,0,0,0-1-5.3l-10.6-30.1Zm27.6-82.7L94.7,155.7h50.6Z" fill="#9eeaf9" />
</svg>
