<svg class="source-image" xmlns="http://www.w3.org/2000/svg" viewBox="0 0 160 256"><title>audio-input</title><path d="M80,0C35.8,0,0,22.3,0,49.7v99.4c0,27.5,35.8,49.7,80,49.7s80-22.3,80-49.7V49.7C160,22.3,124.2,0,80,0Zm55,149.1c0,8.8-20.9,24.9-55,24.9s-55-16.1-55-24.9V49.7c0-8.8,20.9-24.9,55-24.9s55,16.1,55,24.9Z" fill="#9eeaf9" /><rect x="16.7" y="80.3" width="126.6" height="40.8" fill="#9eeaf9" /><path d="M138.1,226.9H99.8a5.463,5.463,0,0,1-5.5-5.4V202.4a5.309,5.309,0,0,1,2.8-4.7H62.9a5.428,5.428,0,0,1,2.8,4.7v19.1a5.4,5.4,0,0,1-5.5,5.4H21.9a5.463,5.463,0,0,0-5.5,5.4V256H143.6V232.3a5.463,5.463,0,0,0-5.5-5.4Z" fill="#9eeaf9" /></svg>
