<svg class="source-image" xmlns="http://www.w3.org/2000/svg" viewBox="0 0 256 256"><title>window</title><path d="M234.7,0H21.3A21.3,21.3,0,0,0,0,21.2H0V66.8H256V21.2A21.3,21.3,0,0,0,234.7,0ZM33.1,50.4A19.151,19.151,0,1,1,52.4,31.3,19.12,19.12,0,0,1,33.1,50.4Zm49.5,0a19.151,19.151,0,1,1,19.3-19.1A19.12,19.12,0,0,1,82.6,50.4Zm49.5,0a19.151,19.151,0,1,1,19.3-19.1,19.12,19.12,0,0,1-19.3,19.1Z" fill="#9eeaf9" /><path d="M0,90.4V234.8A21.3,21.3,0,0,0,21.3,256H234.6a21.3,21.3,0,0,0,21.3-21.2h0V90.4Z" fill="#9eeaf9" /></svg>
