<svg id="Layer_1" data-name="Layer 1" xmlns="http://www.w3.org/2000/svg" viewBox="0 0 240 210"><defs><style>.cls-1{fill:#42bb9f;}.cls-2{fill:#32a38c;}.cls-3{fill:#12191f;}.cls-4{fill:#fff;}</style></defs><title>imageNoPlay_dark_color</title><path id="Fill-41" class="cls-1" d="M174.85,33.3h-109a11,11,0,0,0-11.08,11v95.07a11.08,11.08,0,0,0,11.08,11.08h16.7A4.45,4.45,0,0,1,87,154.9v15.23l18.4-18.38a4.41,4.41,0,0,1,3.15-1.28h66.29a11.05,11.05,0,0,0,11.05-11.05V44.35A11.24,11.24,0,0,0,174.85,33.3"/><path id="Fill-45" class="cls-2" d="M185.76,134.53H131.42a4.5,4.5,0,0,1-4.18-2.89l-7.16-18.23-7.16,18.23a4.49,4.49,0,0,1-4.15,2.89H55.06v-9h50.73l10.33-25.87a4.44,4.44,0,0,1,8.33,0l10.33,26H186v9"/><path id="Fill-42" class="cls-3" d="M185.9,139.39a11.18,11.18,0,0,1-11.17,11.08H108.51a4.42,4.42,0,0,0-3.15,1.28L87,170.13V154.9a4.45,4.45,0,0,0-4.44-4.43H65.82a11.07,11.07,0,0,1-11.07-11.08v-95a11,11,0,0,1,11-11.05H174.85A11,11,0,0,1,185.9,44.35v95M174.85,24.54h-109a20,20,0,0,0-20,20v95a20,20,0,0,0,20,20H78.2V181A4.58,4.58,0,0,0,81,185.16a3.5,3.5,0,0,0,1.72.29,4.43,4.43,0,0,0,3.15-1.29l24.55-24.51H174.8a20,20,0,0,0,19.95-20v-95a20.12,20.12,0,0,0-19.9-20.19"/><path id="Fill-47" class="cls-4" d="M40.45,103.93a15,15,0,0,0,14.92,14.94h49.25l10.93-27.42a4.78,4.78,0,0,1,8.9,0l10.91,27.42h49a14.94,14.94,0,0,0,14.94-14.94h0l.14-44.22H40.31l.14,44.22"/><path id="Fill-48" class="cls-3" d="M199.4,103.93a15,15,0,0,1-14.93,14.94h-49L124.59,91.45a4.78,4.78,0,0,0-8.9,0l-10.93,27.42H55.53A14.93,14.93,0,0,1,40.6,103.93h0l-.15-44.22h159.1Zm8.19-52.26a4.94,4.94,0,0,0-3.32-1.43H35.56a4.13,4.13,0,0,0-3.29,1.43,5,5,0,0,0-1.43,3.44l.14,49a24.51,24.51,0,0,0,24.55,24.41H108a4.77,4.77,0,0,0,4.44-3l7.61-19.26,7.62,19.26a4.76,4.76,0,0,0,4.46,3h52.26A24.51,24.51,0,0,0,209,104.08h0l.14-49A6.92,6.92,0,0,0,207.59,51.67Z"/><path id="Fill-49" class="cls-3" d="M157.67,88.56A7.33,7.33,0,1,1,165,81.24h0A7.34,7.34,0,0,1,157.67,88.56Zm2.38-20A14.73,14.73,0,0,0,145.4,83.24V95.58a14.66,14.66,0,0,0,29.31,0V83.27a14.54,14.54,0,0,0-14.39-14.68Z"/><path id="Fill-50" class="cls-4" d="M165,81.24a7.33,7.33,0,1,0-7.33,7.32h0A7.34,7.34,0,0,0,165,81.24"/><path id="Fill-51" class="cls-3" d="M78.2,88.56a7.33,7.33,0,1,1,7.33-7.32h0A7.34,7.34,0,0,1,78.2,88.56Zm2.39-19.94A14.71,14.71,0,0,0,65.94,83.27V95.6a14.65,14.65,0,1,0,29.28,1.19c0-.4,0-.79,0-1.19V83.27A14.61,14.61,0,0,0,80.69,68.59h0Z"/><path id="Fill-52" class="cls-4" d="M85.53,81.24a7.33,7.33,0,1,0-7.33,7.32h0a7.33,7.33,0,0,0,7.33-7.32"/></svg>