<svg id="Layer_1" data-name="Layer 1" xmlns="http://www.w3.org/2000/svg" viewBox="0 0 260 260"><defs><style>.cls-1,.cls-2{fill:#eaedef;}.cls-1{stroke:#d0d7da;stroke-miterlimit:10;stroke-width:4.45px;}.cls-3{fill:#d0d7da;}.cls-4{opacity:0.45;}.cls-5{fill:#f3f6f7;}.cls-6{fill:#37474f;}.cls-7{fill:#fff;}</style></defs><title>imageBlackList_light</title><path class="cls-1" d="M93.81,78.05l42,21.51,38.3-23.18L160,47.64s-1.11-7.23-16.13-5.56L137.3,43a27.9,27.9,0,0,1-8.16-.09l-5.1-.83c-15-1.67-16.14,5.56-16.14,5.56L93.81,76.38"/><path class="cls-2" d="M132.75,124.54c-31.54,0-44.32-3.42-45.93-3.9-12.43-2.11-30.37-15.41-33.1-18-3.81-3.59-5.95-10.34-5.07-16C51.08,70.79,61,65.17,65.28,62.77a19,19,0,0,1,9.52-2.4c11.22,0,22.17,8.17,23.27,9s15.87,10.19,32.25,12.78l1.57.18a20.27,20.27,0,0,0,2.34.14,20,20,0,0,0,2.45-.15l1.48-.18c16.3-2.58,31.12-12.08,32.17-12.77s12.06-9,23.27-9a19.11,19.11,0,0,1,9.53,2.4c14.19,8,15.9,19.11,16.62,23.85.88,5.71-1.25,12.46-5.07,16-2.73,2.57-20.72,15.9-33.15,18C180.07,121,164.85,124.54,132.75,124.54Z"/><path class="cls-3" d="M193.6,62.6A16.93,16.93,0,0,1,202,64.7c12.8,7.23,14.73,17.06,15.52,22.25s-1.24,11.13-4.39,14.09-20.77,15.58-32.08,17.43c0,0-15.14,3.85-48.33,3.85s-45.43-3.85-45.43-3.85C76,116.62,58.4,104,55.25,101s-5.2-8.9-4.4-14.09,2.73-15,15.52-22.25a16.88,16.88,0,0,1,8.43-2.1c11,0,22,8.59,22,8.59S112.35,81.58,130,84.36l1.66.19a21.53,21.53,0,0,0,5.32,0l1.49-.18c17.61-2.78,33.19-13.17,33.19-13.17s11-8.59,22-8.59m0-4.45h0c-11.71,0-23,8.24-24.55,9.41-1.36.88-15.6,9.9-31.23,12.39l-1.41.17a17.6,17.6,0,0,1-2.18.14,18.15,18.15,0,0,1-2.08-.13L130.58,80c-15.69-2.5-29.86-11.5-31.23-12.39-1.53-1.16-12.83-9.41-24.55-9.41a21.29,21.29,0,0,0-10.62,2.68c-15.13,8.55-17,20.83-17.73,25.45-1,6.48,1.37,13.89,5.75,18,2.8,2.63,21.21,16.26,34.12,18.53,2.25.63,15.48,4,46.43,4,31.76,0,47.26-3.46,49.23-3.93,12.92-2.22,31.42-15.91,34.23-18.55,4.38-4.12,6.74-11.53,5.74-18-.71-4.62-2.59-16.9-17.73-25.45a21.27,21.27,0,0,0-10.62-2.68Z"/><path class="cls-3" d="M130.63,55.09,117.12,48a.37.37,0,0,1,.16-.7c2.28,0,6.59.06,8.55.63a34,34,0,0,0,7,.93h1.82a34.1,34.1,0,0,0,7-.93c1.95-.57,6.27-.64,8.54-.63a.37.37,0,0,1,.17.7l-13.52,7.07a5.13,5.13,0,0,1-2.4.59H133A5.17,5.17,0,0,1,130.63,55.09Z"/><g id="shield_kevin_light" data-name="shield kevin light"><g id="Ellipse_3" data-name="Ellipse 3" class="cls-4"><path id="path0_fill" data-name="path0 fill" class="cls-5" d="M206,222.94c0,10.61-33.87,19.21-75.65,19.21s-75.65-8.6-75.65-19.21,33.87-19.22,75.65-19.22S206,212.33,206,222.94Z"/></g></g><path id="Fill-41" class="cls-2" d="M161.15,95.12H101a6.1,6.1,0,0,0-6.11,6.09h0V153.7a6.11,6.11,0,0,0,6.11,6.11h9.23a2.48,2.48,0,0,1,2.45,2.46v8.4l10.16-10.14a2.45,2.45,0,0,1,1.73-.72h36.61a6.1,6.1,0,0,0,6.1-6.1h0V101.22a6.22,6.22,0,0,0-6.1-6.1"/><path id="Fill-42" class="cls-3" d="M167.25,153.7a6.17,6.17,0,0,1-6.17,6.11H124.52a2.47,2.47,0,0,0-1.74.72l-10.16,10.14v-8.4a2.48,2.48,0,0,0-2.45-2.46H101a6.11,6.11,0,0,1-6.12-6.11V101.22a6.1,6.1,0,0,1,6.1-6.1h60.22a6.1,6.1,0,0,1,6.1,6.1V153.7m-6.1-63.41H101a11,11,0,0,0-11,11v52.48a11.06,11.06,0,0,0,11,11h6.81v11.86a2.53,2.53,0,0,0,1.52,2.3,1.93,1.93,0,0,0,1,.16,2.46,2.46,0,0,0,1.74-.71l13.56-13.53h35.57a11.06,11.06,0,0,0,11-11V101.43a11.11,11.11,0,0,0-11-11.14"/><path id="Fill-50" class="cls-6" d="M155.68,121.59a4,4,0,1,0-4.05,4h0a4.07,4.07,0,0,0,4.05-4"/><path class="cls-2" d="M173.69,193c-2.23-2.45-7-9.09-7-15.75,0-6.12,4.38-16.52,7-22.25,2.66,5.73,7,16.13,7,22.25C180.73,183.9,175.93,190.54,173.69,193Z"/><path class="cls-3" d="M173.7,160.47c2.41,5.74,4.8,12.58,4.8,16.77,0,4.51-2.69,9.28-4.81,12.2-2.12-2.92-4.81-7.69-4.81-12.2,0-4.18,2.4-11,4.82-16.77m0-10.6s-9.26,18-9.26,27.37,8.39,18.65,9.26,18.65,9.26-9.27,9.26-18.65-9.26-27.37-9.26-27.37Z"/><circle class="cls-2" cx="172.9" cy="147.73" r="7.56"/><path class="cls-3" d="M172.9,142.39a5.34,5.34,0,1,1-5.34,5.34,5.35,5.35,0,0,1,5.34-5.34m0-4.45a9.79,9.79,0,1,0,9.79,9.79,9.79,9.79,0,0,0-9.79-9.79Z"/><path class="cls-2" d="M141.46,209.38a5.2,5.2,0,0,1-4.58-2.73l-5.27-9.82a.69.69,0,0,0-.39-.34l-26.09-9.74a5.2,5.2,0,0,1-3.38-4.86v-8a.75.75,0,0,0-.31-.6l-13.91-9.86a5.21,5.21,0,0,1-2.19-4.24v-8.66a5.2,5.2,0,0,1,5.19-5.19h.32l79.4,4.95a5.19,5.19,0,0,1,4.73,6.39L172.52,167a5.15,5.15,0,0,1-3.89,3.85l-6.88,1.59a.72.72,0,0,0-.52.44l-13.59,33.32a5.17,5.17,0,0,1-4.81,3.23Z"/><path class="cls-3" d="M90.53,147.52h.19l79.4,4.95a3,3,0,0,1,2.7,3.65l-2.47,10.31a3,3,0,0,1-2.22,2.2l-6.88,1.59a3,3,0,0,0-2.08,1.77l-13.59,33.32a3,3,0,0,1-2.75,1.85h-1.37a3,3,0,0,1-2.62-1.57l-5.27-9.81A3,3,0,0,0,132,194.4l-26.09-9.73a3,3,0,0,1-1.93-2.78v-8a3,3,0,0,0-1.25-2.42l-13.91-9.86a2.94,2.94,0,0,1-1.26-2.42v-8.66a3,3,0,0,1,3-3m0-4.45a7.42,7.42,0,0,0-7.42,7.41v8.66a7.41,7.41,0,0,0,3.13,6.05l13.29,9.42v7.28a7.44,7.44,0,0,0,4.82,7l25.57,9.54,5,9.32a7.42,7.42,0,0,0,6.54,3.91h1.37A7.4,7.4,0,0,0,149.7,207L163,174.38l6.13-1.41a7.38,7.38,0,0,0,5.55-5.5l2.46-10.32a7.41,7.41,0,0,0-6.75-9.12L91,143.08Z"/><line class="cls-6" x1="94.28" y1="168.24" x2="117.72" y2="182.01"/><path class="cls-3" d="M95.48,166.2,118.29,181a1.13,1.13,0,0,1-1.14,1.94L93.09,170.27a2.36,2.36,0,1,1,2.21-4.18Z"/><line class="cls-6" x1="165.14" y1="171.55" x2="139.52" y2="177.59"/><path class="cls-3" d="M165.65,173.71l-25.89,4.91a1.06,1.06,0,0,1-.49-2.06l25.36-7.18a2.23,2.23,0,1,1,1.21,4.29Z"/><line class="cls-6" x1="112.45" y1="146.94" x2="138.65" y2="159.42"/><path class="cls-3" d="M113.4,144.93l25.65,13.65a.93.93,0,0,1-.8,1.68L111.49,149a2.23,2.23,0,0,1,1.73-4.11Z"/><path id="Fill-48" class="cls-3" d="M174.71,134.12a8.3,8.3,0,0,1-8.25,8.25h-27l-6-15.14a2.64,2.64,0,0,0-4.92,0l-6,15.14H95.27A8.25,8.25,0,0,1,87,134.12h0l-.08-24.41h87.84Zm4.51-28.85a2.67,2.67,0,0,0-1.83-.79H84.24a2.28,2.28,0,0,0-1.82.79,2.72,2.72,0,0,0-.79,1.89l.08,27a13.54,13.54,0,0,0,13.56,13.48h29a2.65,2.65,0,0,0,2.46-1.66l4.2-10.63,4.2,10.63a2.63,2.63,0,0,0,2.47,1.66h28.85A13.53,13.53,0,0,0,180,134.2h0l.08-27A3.74,3.74,0,0,0,179.22,105.27Z"/><path id="Fill-47" class="cls-7" d="M86.94,134.12a8.29,8.29,0,0,0,8.24,8.25h27.19l6-15.14a2.64,2.64,0,0,1,4.91,0l6,15.14h27a8.25,8.25,0,0,0,8.25-8.25h0l.08-24.41H86.86l.08,24.41"/><path id="Fill-49" class="cls-3" d="M151.66,125.64a4,4,0,1,1,4.05-4h0A4.07,4.07,0,0,1,151.66,125.64Zm1.32-11a8.13,8.13,0,0,0-8.09,8.09v6.81a8.09,8.09,0,1,0,16.18,0v-6.8a8,8,0,0,0-7.95-8.1Z"/><path id="Fill-51" class="cls-3" d="M107.78,125.64a4,4,0,1,1,4-4h0A4.07,4.07,0,0,1,107.78,125.64Zm1.32-11a8.13,8.13,0,0,0-8.09,8.09v6.81a8.09,8.09,0,0,0,16.17.66q0-.33,0-.66v-6.81a8.06,8.06,0,0,0-8-8.1h-.06Z"/><rect class="cls-3" x="85.62" y="90.29" width="94.48" height="4.84" rx="2.42" ry="2.42"/><g id="Ellipse_9" data-name="Ellipse 9"><path id="path23_fill" data-name="path23 fill" class="cls-5" d="M204.1,164.85a4,4,0,1,1-4-4A4,4,0,0,1,204.1,164.85Z"/></g><g id="Ellipse_9-2" data-name="Ellipse 9"><path id="path24_fill" data-name="path24 fill" class="cls-5" d="M208.1,130.13a4,4,0,1,1-4-4A4,4,0,0,1,208.1,130.13Z"/></g><g id="Ellipse_9-3" data-name="Ellipse 9"><path id="path25_fill" data-name="path25 fill" class="cls-5" d="M219.73,144.85a2,2,0,1,1-2-2A2,2,0,0,1,219.73,144.85Z"/></g><g id="Union"><path id="path19_fill" data-name="path19 fill" class="cls-2" d="M49.68,137.14a1,1,0,0,0,2,0v-3h3a1,1,0,1,0,0-2h-3v-3a1,1,0,0,0-2,0v3h-3a1,1,0,0,0,0,2h3Z"/></g><g id="Union-2" data-name="Union"><path id="path22_fill" data-name="path22 fill" class="cls-2" d="M56.28,192.61a1,1,0,0,0,2,0v-1h1a1,1,0,0,0,0-2h-1v-1a1,1,0,0,0-2,0v1h-1a1,1,0,0,0,0,2h1Z"/></g><g id="Ellipse_9-4" data-name="Ellipse 9"><path id="path25_fill-2" data-name="path25 fill" class="cls-5" d="M29.27,107.28a2,2,0,1,1-2-2A2,2,0,0,1,29.27,107.28Z"/></g><g id="Ellipse_9-5" data-name="Ellipse 9"><path id="path24_fill-2" data-name="path24 fill" class="cls-5" d="M68.46,151.73a4,4,0,1,1-4-4A4,4,0,0,1,68.46,151.73Z"/></g><g id="Union-3" data-name="Union"><path id="path19_fill-2" data-name="path19 fill" class="cls-2" d="M88.94,40.6a1,1,0,0,0,2,0v-3h3a1,1,0,0,0,0-2h-3v-3a1,1,0,1,0-2,0v3h-3a1,1,0,0,0,0,2h3Z"/></g><g id="Union-4" data-name="Union"><path id="path19_fill-3" data-name="path19 fill" class="cls-2" d="M228.73,117.85a1,1,0,0,0,2,0v-3h3a1,1,0,0,0,0-2h-3v-3a1,1,0,0,0-2,0v3h-3a1,1,0,0,0,0,2h3Z"/></g><g id="Union-5" data-name="Union"><path id="path19_fill-4" data-name="path19 fill" class="cls-2" d="M182,49.78a1,1,0,0,0,2,0v-3h3a1,1,0,0,0,0-2h-3v-3a1,1,0,0,0-2,0v3h-3a1,1,0,0,0,0,2h3Z"/></g><g id="Ellipse_9-6" data-name="Ellipse 9"><path id="path25_fill-3" data-name="path25 fill" class="cls-5" d="M113.83,28.55a2,2,0,1,1-2-2A2,2,0,0,1,113.83,28.55Z"/></g><g id="Ellipse_9-7" data-name="Ellipse 9"><path id="path25_fill-4" data-name="path25 fill" class="cls-5" d="M223.73,40.6a2,2,0,1,1-2-2A2,2,0,0,1,223.73,40.6Z"/></g><g id="Ellipse_9-8" data-name="Ellipse 9"><path id="path25_fill-5" data-name="path25 fill" class="cls-5" d="M52.68,51.5a2,2,0,1,1-2-2A2,2,0,0,1,52.68,51.5Z"/></g><g id="Ellipse_9-9" data-name="Ellipse 9"><path id="path24_fill-3" data-name="path24 fill" class="cls-5" d="M159.71,21.85a4,4,0,1,1-4-4A4,4,0,0,1,159.71,21.85Z"/></g><g id="Ellipse_9-10" data-name="Ellipse 9"><path id="path25_fill-6" data-name="path25 fill" class="cls-5" d="M221.73,192.85a2,2,0,1,1-2-2A2,2,0,0,1,221.73,192.85Z"/></g></svg>