<svg id="Layer_1" data-name="Layer 1" xmlns="http://www.w3.org/2000/svg" viewBox="0 0 240 210"><defs><style>.cls-1{fill:#5f6c72;}.cls-2{fill:#37474f;}.cls-3{fill:#42bb9f;}.cls-4{fill:#32a38c;}.cls-5{fill:#fff;}</style></defs><title>imageAutoPlay_light_color</title><path id="Fill-40" class="cls-1" d="M33.88,60.88l-.77-.15A16.5,16.5,0,0,0,16.48,77.09v38.67a3.71,3.71,0,0,0,7.39.61,3.11,3.11,0,0,0,0-.61V77.14a9.27,9.27,0,0,1,9.34-9.2h0l.77-.15V60.88"/><path id="Fill-39" class="cls-1" d="M209.18,61.07h-.69v7.12h.74a9,9,0,0,1,8.91,9.07h0v38.11a3.58,3.58,0,1,0,7.13.6,3,3,0,0,0,0-.6V77.26a16.29,16.29,0,0,0-16-16.19"/><path id="Fill-38" class="cls-2" d="M224.94,112.68a3.47,3.47,0,0,1-6.92.57,5.42,5.42,0,0,1,0-.57V76.56a8.62,8.62,0,0,0-8.64-8.6h-.67V61.21h.72a15.4,15.4,0,0,1,15.41,15.35v36.12ZM23.82,76.13v36.12a3.47,3.47,0,0,1-6.91.57,2.72,2.72,0,0,1,0-.57V76.13A15.5,15.5,0,0,1,32.46,60.79l.72.14v6.46l-.72.14a8.62,8.62,0,0,0-8.64,8.6Zm184.89-19.2V51a33,33,0,0,0-33-33H66.43A33,33,0,0,0,33.32,51h0v4H31.45A21.19,21.19,0,0,0,10.14,76.13h0v36.12A21.17,21.17,0,0,0,31.4,133.34H47V106.67a6.75,6.75,0,0,0,.89-3.31V51.18A18.56,18.56,0,0,1,66.43,32.7H175.7a18.57,18.57,0,0,1,18.66,18.48h0v5.75h-1v78.12h15.31A21.15,21.15,0,0,0,229.86,114V77.85A21.1,21.1,0,0,0,208.71,56.93Z"/><path id="Fill-41" class="cls-3" d="M175.7,40H66.43a11,11,0,0,0-11.1,11v94.92A11.08,11.08,0,0,0,66.43,157H83.18a4.47,4.47,0,0,1,4.45,4.44v15.2l18.45-18.35a4.46,4.46,0,0,1,3.15-1.29H175.7a11,11,0,0,0,11.08-11V51A11.25,11.25,0,0,0,175.7,40"/><path id="Fill-42" class="cls-2" d="M186.63,145.94a11,11,0,0,1-11,11.05H109.19a4.48,4.48,0,0,0-3.16,1.29L87.58,176.63v-15.2A4.47,4.47,0,0,0,83.13,157H66.38a11.08,11.08,0,0,1-11.1-11.05V51A11.06,11.06,0,0,1,66.36,40H175.7a11.06,11.06,0,0,1,11.08,11v94.9M175.7,31.27H66.43a20,20,0,0,0-20,19.91v94.9a20,20,0,0,0,20,19.94H78.8v21.45a4.59,4.59,0,0,0,2.75,4.17,3.63,3.63,0,0,0,1.72.28,4.43,4.43,0,0,0,3.16-1.28l24.62-24.47h64.6a20,20,0,0,0,20-19.94V51.42a20.12,20.12,0,0,0-20-20.15"/><path id="Fill-45" class="cls-4" d="M186.63,141.08H132.15A4.49,4.49,0,0,1,128,138.2L120.79,120l-7.18,18.21a4.5,4.5,0,0,1-4.16,2.88H55.59v-9h50.87l10.36-25.83a4.46,4.46,0,0,1,8.35,0l10.36,25.95h51.39v9"/><polygon id="Fill-46" class="cls-2" points="186.63 141.08 186.78 141.08 186.78 132.05 186.63 132.05 186.63 141.08"/><path id="Fill-47" class="cls-5" d="M41,110.53A15,15,0,0,0,55.9,125.45h49.39l10.95-27.38a4.8,4.8,0,0,1,8.93,0l10.93,27.38h49.1a14.94,14.94,0,0,0,15-14.92h0l.15-44.15H40.81L41,110.53"/><path id="Fill-48" class="cls-2" d="M200.32,110.53a15,15,0,0,1-15,14.92H136.25L125.31,98.07a4.79,4.79,0,0,0-8.92,0l-11,27.38H56.07a15,15,0,0,1-15-14.92h0L41,66.38H200.46Zm8.2-52.17a4.92,4.92,0,0,0-3.32-1.43H36.05a4.19,4.19,0,0,0-3.31,1.43,5,5,0,0,0-1.43,3.43l.14,48.89a24.53,24.53,0,0,0,24.62,24.37h52.64a4.8,4.8,0,0,0,4.45-3l7.63-19.23,7.63,19.23a4.8,4.8,0,0,0,4.48,3h52.39A24.52,24.52,0,0,0,210,110.68h0l.14-48.89A6.86,6.86,0,0,0,208.52,58.36Z"/><path id="Fill-49" class="cls-2" d="M158.47,95.19a7.32,7.32,0,1,1,7.35-7.31h0A7.36,7.36,0,0,1,158.47,95.19Zm2.39-19.94a14.73,14.73,0,0,0-14.69,14.63V102.2a14.69,14.69,0,0,0,29.38,0V89.9a14.53,14.53,0,0,0-14.42-14.65Z"/><path id="Fill-50" class="cls-5" d="M165.77,87.88a7.35,7.35,0,1,0-7.35,7.31h.05a7.36,7.36,0,0,0,7.35-7.31"/><path id="Fill-51" class="cls-2" d="M78.8,95.19a7.32,7.32,0,1,1,7.35-7.31h0A7.36,7.36,0,0,1,78.8,95.19Zm2.39-19.92A14.74,14.74,0,0,0,66.5,89.9v12.32a14.69,14.69,0,0,0,29.36,1.18,11.61,11.61,0,0,0,0-1.18V89.9A14.61,14.61,0,0,0,81.29,75.25h0Z"/><path id="Fill-52" class="cls-5" d="M86.15,87.88a7.35,7.35,0,1,0-7.35,7.31h0a7.33,7.33,0,0,0,7.35-7.31"/></svg>