<svg xmlns="http://www.w3.org/2000/svg" viewBox="0 0 140 140"><defs><style>.cls-1{fill:#16242d;}.cls-2{fill:#37474f;}.cls-3{fill:#12191f;opacity:0.15;}.cls-4{fill:#2b383f;}.cls-5{fill:#253035;}</style></defs><title>iconConstruction_dark</title><g id="Layer_1" data-name="Layer 1"><path id="Fill-41" class="cls-1" d="M90.7,59.13H44.28a4.72,4.72,0,0,0-4.72,4.7h0v40.49a4.72,4.72,0,0,0,4.72,4.72h7.11a1.88,1.88,0,0,1,1.89,1.89v6.48l7.84-7.83a1.87,1.87,0,0,1,1.34-.54H90.7a4.71,4.71,0,0,0,4.71-4.71h0V63.84a4.8,4.8,0,0,0-4.71-4.71"/><path id="Fill-42" d="M95.41,104.33a4.76,4.76,0,0,1-4.76,4.72H62.44a1.87,1.87,0,0,0-1.34.54l-7.84,7.83v-6.48a1.89,1.89,0,0,0-1.89-1.89H44.26a4.72,4.72,0,0,1-4.72-4.72V63.84a4.71,4.71,0,0,1,4.71-4.71H90.7a4.71,4.71,0,0,1,4.71,4.71v40.49M90.7,55.4H44.28a8.52,8.52,0,0,0-8.51,8.5v40.49a8.53,8.53,0,0,0,8.51,8.51h5.25v9.15a2,2,0,0,0,1.17,1.78,1.52,1.52,0,0,0,.73.12,1.93,1.93,0,0,0,1.35-.55L63.24,113H90.68a8.51,8.51,0,0,0,8.5-8.51V64a8.57,8.57,0,0,0-8.48-8.6"/><path id="Fill-47" class="cls-2" d="M33.45,89.22a6.4,6.4,0,0,0,6.35,6.37h21l4.65-11.68a2,2,0,0,1,2.63-1.17,2,2,0,0,1,1.16,1.17l4.65,11.68H94.74a6.37,6.37,0,0,0,6.36-6.37h0l.06-18.83H33.39l.06,18.83"/><path id="Fill-48" d="M101.16,89.22a6.4,6.4,0,0,1-6.36,6.37H73.94L69.29,83.91a2,2,0,0,0-3.79,0L60.85,95.59h-21a6.37,6.37,0,0,1-6.37-6.37h0l-.06-18.83h67.78ZM104.65,67a2.14,2.14,0,0,0-1.41-.61H31.37A1.76,1.76,0,0,0,30,67a2.17,2.17,0,0,0-.61,1.46l.06,20.86a10.45,10.45,0,0,0,10.47,10.4H62.24a2,2,0,0,0,1.89-1.28l3.24-8.2,3.25,8.2a2,2,0,0,0,1.9,1.28H94.78a10.43,10.43,0,0,0,10.48-10.4h0l.06-20.86A2.88,2.88,0,0,0,104.65,67Z"/><path id="Fill-49" d="M83.38,82.68a3.13,3.13,0,1,1,3.13-3.12h0A3.14,3.14,0,0,1,83.38,82.68Zm1-8.51a6.27,6.27,0,0,0-6.24,6.24v5.25a6.24,6.24,0,1,0,12.48,0V80.42a6.18,6.18,0,0,0-6.13-6.25Z"/><path id="Fill-51" d="M49.53,82.68a3.13,3.13,0,1,1,3.12-3.12h0A3.13,3.13,0,0,1,49.53,82.68Zm1-8.5a6.26,6.26,0,0,0-6.24,6.24v5.26a6.24,6.24,0,0,0,12.47.5,4.17,4.17,0,0,0,0-.5V80.42a6.21,6.21,0,0,0-6.19-6.25h0Z"/><path class="cls-3" d="M98.64,80.34l4.11-8.49H32l4.11,8.49a2.56,2.56,0,0,0,2.31,1.41H96.33A2.54,2.54,0,0,0,98.64,80.34Z"/><path class="cls-4" d="M40.45,72.7a7.2,7.2,0,0,1-5.06-2.06l-7-6.83A1.28,1.28,0,0,1,28,62.58a1.32,1.32,0,0,1,.86-1l1.62-.55-.2-1.7A44.65,44.65,0,0,1,30,54.48C30,33.3,45.63,17.93,67.14,17.93s37.12,15.37,37.12,36.55a44.67,44.67,0,0,1-.26,4.73l-.18,1.69,1.61.55a1.64,1.64,0,0,1,.61,2.73L99.4,70.64a7.18,7.18,0,0,1-5.05,2.06Z"/><path d="M67.14,20.06c20.28,0,35,14.47,35,34.42a40.14,40.14,0,0,1-.25,4.49l-.37,3.39,2.47.85-6.06,5.91a5.11,5.11,0,0,1-3.57,1.45H40.45a5.11,5.11,0,0,1-3.57-1.45l-6.07-5.91,2-.68-.38-3.4a40.26,40.26,0,0,1-.26-4.65c0-19.95,14.71-34.42,35-34.42m0-4.26c-21.68,0-39.25,15.43-39.25,38.68a45.61,45.61,0,0,0,.29,5.13,3.45,3.45,0,0,0-1.29,5.73l7,6.83a9.38,9.38,0,0,0,6.54,2.66h53.9a9.4,9.4,0,0,0,6.54-2.66l6.63-6.46a3.77,3.77,0,0,0-1.4-6.27,45.11,45.11,0,0,0,.27-5c0-23.25-17.57-38.68-39.25-38.68Z"/><path d="M40.3,61.58a65.65,65.65,0,0,0,6.65.88c2.25.23,4.5.38,6.75.49,4.51.21,9,.35,13.55.31s9-.06,13.56-.27c2.25-.08,4.51-.23,6.75-.44a62.25,62.25,0,0,0,6.65-.85h.06a.58.58,0,0,1,.67.46.59.59,0,0,1-.41.66A73.85,73.85,0,0,1,80.93,65c-4.55.37-9.12.46-13.68.5s-9.13-.16-13.68-.56A74.35,74.35,0,0,1,40,62.69a.58.58,0,0,1,.26-1.12Z"/><path class="cls-5" d="M50.23,45.59c-5.95-13.53-4.69-18.77-4.69-18.77a30.55,30.55,0,0,1,4.37-2.71,34.29,34.29,0,0,1,6.21-2.46Z"/><path class="cls-5" d="M83.93,45.54C89.88,32,88.62,26.75,88.62,26.75a31.64,31.64,0,0,0-4.37-2.69A34.63,34.63,0,0,0,78,21.59Z"/><path class="cls-4" d="M50.91,44.61l7.31-29.79a1.7,1.7,0,0,1,1.68-1.37H74.62a1.69,1.69,0,0,1,1.67,1.37l7.32,29.79"/><path d="M49.82,44.35c1.33-6.6,2.73-13.18,4.12-19.75L56,14.73l.07-.3,0-.24a3.29,3.29,0,0,1,.09-.32,3.81,3.81,0,0,1,.7-1.26,3.91,3.91,0,0,1,2.48-1.37c.61-.06.67,0,.91-.05l.63,0,1.26,0c1.68-.05,3.36,0,5.05,0l5,.14,1.26,0,.63,0a8,8,0,0,1,.89.05,3.78,3.78,0,0,1,2.4,1.32,3.6,3.6,0,0,1,.67,1.21,2.66,2.66,0,0,1,.09.32l0,.22.07.31,2.13,9.85,2.08,9.87,2,9.89a1,1,0,0,1-2,.49l-2.8-9.72L77.08,25.4,74.4,15.64c-.17-.63-.1-.28-.06-.25a.39.39,0,0,0,.23.16c.16,0-.19,0-.37,0h-.63l-1.26,0-5,.13c-1.69,0-3.37.05-5.05,0l-1.26,0-.63,0c-.18,0-.55,0-.36,0a.51.51,0,0,0,.31-.2c.07-.06.14-.45,0,.19l-2.73,9.74c-1.82,6.5-3.64,13-5.51,19.47a1.12,1.12,0,0,1-2.18-.53Z"/></g></svg>