<svg id="Layer_1" data-name="Layer 1" xmlns="http://www.w3.org/2000/svg" viewBox="0 0 260 260"><defs><style>.cls-1{opacity:0.45;}.cls-2{fill:#09161d;}.cls-3,.cls-5,.cls-6{fill:#2b383f;}.cls-4{fill:#16242d;}.cls-5,.cls-6{stroke:#000;stroke-miterlimit:10;}.cls-5{stroke-width:4.26px;}.cls-6{stroke-linecap:round;stroke-width:4px;}</style></defs><title>imageTimer_dark</title><g id="Rectangle_16" data-name="Rectangle 16" class="cls-1"><path id="path0_fill" data-name="path0 fill" class="cls-2" d="M66.33,146.82c0-2.21,2.09-4,4.68-4H213.73c2.58,0,4.68,1.79,4.68,4h0c0,2.21-2.1,4-4.68,4H71c-2.59,0-4.68-1.79-4.68-4Z"/></g><g id="Rectangle_16-2" data-name="Rectangle 16" class="cls-1"><path id="path0_fill-2" data-name="path0 fill" class="cls-2" d="M40.08,212.3c0-2.21,2.09-4,4.68-4H187.48c2.58,0,4.68,1.79,4.68,4h0c0,2.21-2.1,4-4.68,4H44.76c-2.59,0-4.68-1.79-4.68-4Z"/></g><g id="Union"><path id="path17_fill" data-name="path17 fill" class="cls-3" d="M225.51,54.19a1,1,0,0,0,2,0v-3h3a1,1,0,0,0,0-2h-3v-3a1,1,0,0,0-2,0v3h-3a1,1,0,0,0,0,2h3Z"/></g><g id="Union-2" data-name="Union"><path id="path20_fill" data-name="path20 fill" class="cls-3" d="M135.51,51.19a1,1,0,0,0,2,0v-1h1a1,1,0,0,0,0-2h-1v-1a1,1,0,0,0-2,0v1h-1a1,1,0,0,0,0,2h1Z"/></g><g id="Ellipse_9" data-name="Ellipse 9"><path id="path23_fill" data-name="path23 fill" d="M118.51,84.19a4,4,0,1,1-4-4A4,4,0,0,1,118.51,84.19Z"/></g><g id="Ellipse_9-2" data-name="Ellipse 9"><path id="path25_fill" data-name="path25 fill" d="M179.51,45.7a2,2,0,1,1-2-2A2,2,0,0,1,179.51,45.7Z"/></g><g id="Ellipse_9-3" data-name="Ellipse 9"><path id="path25_fill-2" data-name="path25 fill" class="cls-3" d="M80.51,85.94a2,2,0,1,1-2-2A2,2,0,0,1,80.51,85.94Z"/></g><g id="Union-3" data-name="Union"><path id="path18_fill" data-name="path18 fill" d="M221.15,214.8a1,1,0,0,0,2,0v-3h3a1,1,0,1,0,0-2h-3v-3a1,1,0,0,0-2,0v3h-3a1,1,0,0,0,0,2h3Z"/></g><g id="Ellipse_9-4" data-name="Ellipse 9"><path id="path23_fill-2" data-name="path23 fill" class="cls-3" d="M211.15,182.8a4,4,0,1,1-4-4A4,4,0,0,1,211.15,182.8Z"/></g><g id="Union-4" data-name="Union"><path id="path19_fill" data-name="path19 fill" d="M26.49,107.8a1,1,0,0,0,2,0v-3h3a1,1,0,1,0,0-2h-3v-3a1,1,0,0,0-2,0v3h-3a1,1,0,1,0,0,2h3Z"/></g><g id="Union-5" data-name="Union"><path id="path21_fill" data-name="path21 fill" class="cls-3" d="M26.49,208.8a1,1,0,0,0,2,0v-1h1a1,1,0,1,0,0-2h-1v-1a1,1,0,0,0-2,0v1h-1a1,1,0,0,0,0,2h1Z"/></g><g id="Ellipse_9-5" data-name="Ellipse 9"><path id="path24_fill" data-name="path24 fill" d="M31.49,171.8a4,4,0,1,1-4-4A4,4,0,0,1,31.49,171.8Z"/></g><g id="Ellipse_9-6" data-name="Ellipse 9"><path id="path25_fill-3" data-name="path25 fill" class="cls-3" d="M40.49,136.8a2,2,0,1,1-2-2A2,2,0,0,1,40.49,136.8Z"/></g><g id="Union-6" data-name="Union"><path id="path22_fill" data-name="path22 fill" class="cls-3" d="M229.51,123.8a1,1,0,1,0,2,0v-1h1a1,1,0,0,0,0-2h-1v-1a1,1,0,0,0-2,0v1h-1a1,1,0,0,0,0,2h1Z"/></g><g id="Ellipse_9-7" data-name="Ellipse 9"><path id="path25_fill-4" data-name="path25 fill" d="M229.51,85.8a2,2,0,1,1-2-2A2,2,0,0,1,229.51,85.8Z"/></g><g id="Ellipse_9-8" data-name="Ellipse 9"><path id="path25_fill-5" data-name="path25 fill" d="M237.51,183.29a2,2,0,1,1-2-2A2,2,0,0,1,237.51,183.29Z"/></g><g id="Ellipse_9-9" data-name="Ellipse 9"><path id="path25_fill-6" data-name="path25 fill" class="cls-3" d="M49.66,82.19a2,2,0,1,1-2-2A2,2,0,0,1,49.66,82.19Z"/></g><rect class="cls-4" x="51.81" y="107.83" width="124.63" height="99.93" rx="5.81" ry="5.81"/><path d="M170.63,109.83a3.81,3.81,0,0,1,3.81,3.81V202a3.8,3.8,0,0,1-3.81,3.8h-113a3.81,3.81,0,0,1-3.81-3.8V113.64a3.82,3.82,0,0,1,3.81-3.81h113m0-4h-113a7.82,7.82,0,0,0-7.81,7.81V202a7.82,7.82,0,0,0,7.81,7.8h113a7.81,7.81,0,0,0,7.81-7.8V113.64a7.81,7.81,0,0,0-7.81-7.81Z"/><path class="cls-3" d="M51.81,129V113.64a5.82,5.82,0,0,1,5.81-5.81h113a5.81,5.81,0,0,1,5.81,5.81V129Z"/><path d="M170.63,109.83a3.81,3.81,0,0,1,3.81,3.81V127H53.81V113.64a3.82,3.82,0,0,1,3.81-3.81h113m0-4h-113a7.82,7.82,0,0,0-7.81,7.81V131H178.44V113.64a7.81,7.81,0,0,0-7.81-7.81Z"/><path class="cls-3" d="M66.91,139.88h92.66a1.62,1.62,0,0,1,1.62,1.62v8.43a1.63,1.63,0,0,1-1.62,1.63H66.91a1.62,1.62,0,0,1-1.62-1.62v-8.43A1.62,1.62,0,0,1,66.91,139.88Z"/><path d="M159.07,142v7.42H67.42V142h91.65m.51-4.26H66.91a3.75,3.75,0,0,0-3.75,3.76v8.43a3.75,3.75,0,0,0,3.75,3.75h92.67a3.75,3.75,0,0,0,3.75-3.75v-8.43a3.75,3.75,0,0,0-3.75-3.76Z"/><path class="cls-3" d="M66.91,161.55h92.66a1.62,1.62,0,0,1,1.62,1.62v8.43a1.63,1.63,0,0,1-1.62,1.63H66.92a1.63,1.63,0,0,1-1.62-1.62v-8.43A1.62,1.62,0,0,1,66.91,161.55Z"/><path d="M159.07,163.68v7.42H67.42v-7.42h91.65m.51-4.26H66.91a3.75,3.75,0,0,0-3.75,3.76v8.42a3.75,3.75,0,0,0,3.75,3.76h92.67a3.75,3.75,0,0,0,3.75-3.76v-8.42a3.75,3.75,0,0,0-3.75-3.76Z"/><line class="cls-5" x1="76.91" y1="140.18" x2="76.91" y2="152.05"/><line class="cls-5" x1="76.91" y1="161.43" x2="76.91" y2="173.3"/><path class="cls-3" d="M66.91,183.22h92.66a1.62,1.62,0,0,1,1.62,1.62v8.43a1.63,1.63,0,0,1-1.62,1.63H66.91a1.62,1.62,0,0,1-1.62-1.62v-8.43A1.62,1.62,0,0,1,66.91,183.22Z"/><path d="M159.07,185.35v7.42H67.42v-7.42h91.65m.51-4.26H66.91a3.75,3.75,0,0,0-3.75,3.75v8.43A3.76,3.76,0,0,0,66.91,197h92.67a3.76,3.76,0,0,0,3.75-3.76v-8.43a3.75,3.75,0,0,0-3.75-3.75Z"/><line class="cls-5" x1="76.91" y1="182.68" x2="76.91" y2="194.55"/><path class="cls-3" d="M89.08,121.34A2.94,2.94,0,1,1,92,118.4,2.95,2.95,0,0,1,89.08,121.34Z"/><path d="M89.08,117.46a.94.94,0,1,1-1,.94.94.94,0,0,1,1-.94m0-4A4.94,4.94,0,1,0,94,118.4a4.95,4.95,0,0,0-4.94-4.94Z"/><path class="cls-3" d="M76.51,121.34a2.94,2.94,0,1,1,2.95-2.94A2.94,2.94,0,0,1,76.51,121.34Z"/><path d="M76.51,117.46a.94.94,0,1,1-.94.94.95.95,0,0,1,.94-.94m0-4a4.94,4.94,0,1,0,4.95,4.94,4.94,4.94,0,0,0-4.95-4.94Z"/><path class="cls-3" d="M64,121.34a2.94,2.94,0,1,1,2.94-2.94A2.94,2.94,0,0,1,64,121.34Z"/><path d="M64,117.46a.94.94,0,1,1-.94.94.94.94,0,0,1,.94-.94m0-4a4.94,4.94,0,1,0,4.94,4.94A4.94,4.94,0,0,0,64,113.46Z"/><path class="cls-3" d="M175.55,144.82a41.6,41.6,0,1,1,41.6-41.6A41.64,41.64,0,0,1,175.55,144.82Z"/><path d="M175.55,63.62a39.6,39.6,0,1,1-39.6,39.6,39.6,39.6,0,0,1,39.6-39.6m0-4a43.6,43.6,0,1,0,43.6,43.6,43.65,43.65,0,0,0-43.6-43.6Z"/><path class="cls-3" d="M175.55,106.16a2.95,2.95,0,1,1,2.94-2.94A2.95,2.95,0,0,1,175.55,106.16Z"/><path d="M175.55,102.27a.95.95,0,1,1-1,1,.95.95,0,0,1,1-1m0-4a4.95,4.95,0,1,0,4.94,5,5,5,0,0,0-4.94-5Z"/><line class="cls-6" x1="176.49" y1="142.82" x2="176.49" y2="136.68"/><line class="cls-6" x1="204.22" y1="130.55" x2="202.26" y2="128.6"/><line class="cls-6" x1="202.88" y1="74.55" x2="200.93" y2="76.51"/><line class="cls-6" x1="146.88" y1="75.88" x2="148.84" y2="77.84"/><line class="cls-6" x1="148.21" y1="131.89" x2="150.17" y2="129.93"/><line class="cls-6" x1="135.95" y1="104.16" x2="142.09" y2="104.16"/><line class="cls-6" x1="174.6" y1="63.62" x2="174.6" y2="69.76"/><line class="cls-6" x1="215.15" y1="102.27" x2="209.01" y2="102.27"/><line class="cls-6" x1="178.15" y1="105.81" x2="192.9" y2="120.57"/><line class="cls-6" x1="175.55" y1="99.47" x2="175.55" y2="78.68"/></svg>