<svg id="Layer_1" data-name="Layer 1" xmlns="http://www.w3.org/2000/svg" viewBox="0 0 260 260"><defs><style>.cls-1{opacity:0.45;}.cls-2{fill:#09161d;}.cls-3{fill:#16242d;}.cls-4{fill:#37474f;}.cls-5{fill:#2b383f;}</style></defs><title>imageWhiteList_dark</title><g id="shield_kevin_light" data-name="shield kevin light"><g id="Ellipse_3" data-name="Ellipse 3" class="cls-1"><path id="path0_fill" data-name="path0 fill" class="cls-2" d="M193.16,225.68c0,8.84-28.2,16-63,16s-63-7.16-63-16,28.21-16,63-16S193.16,216.84,193.16,225.68Z"/></g></g><path id="Fill-41" class="cls-3" d="M170.37,102.3H89.24A8.23,8.23,0,0,0,81,110.51v70.78a8.24,8.24,0,0,0,8.24,8.24h12.44a3.32,3.32,0,0,1,3.3,3.3v11.34l13.7-13.68a3.26,3.26,0,0,1,2.34-1h49.35a8.22,8.22,0,0,0,8.23-8.23h0V110.53a8.38,8.38,0,0,0-8.23-8.23"/><path id="Fill-42" d="M178.6,181.29a8.32,8.32,0,0,1-8.32,8.24H121a3.28,3.28,0,0,0-2.35,1l-13.7,13.68V192.83a3.32,3.32,0,0,0-3.3-3.3H89.2A8.24,8.24,0,0,1,81,181.29V110.53a8.22,8.22,0,0,1,8.23-8.23h81.18a8.22,8.22,0,0,1,8.23,8.23v70.76m-8.23-85.51H89.24a14.89,14.89,0,0,0-14.87,14.85v70.76a14.91,14.91,0,0,0,14.87,14.87h9.18v16a3.42,3.42,0,0,0,2,3.11,2.66,2.66,0,0,0,1.28.21,3.26,3.26,0,0,0,2.34-1l18.28-18.24h48a14.89,14.89,0,0,0,14.85-14.87V110.81a15,15,0,0,0-14.82-15"/><path id="Fill-47" class="cls-4" d="M70.32,154.89A11.18,11.18,0,0,0,81.42,166h36.67l8.14-20.41a3.55,3.55,0,0,1,4.59-2,3.5,3.5,0,0,1,2,2L141,166h36.46a11.12,11.12,0,0,0,11.12-11.12h0l.1-32.92H70.21l.11,32.92"/><path id="Fill-48" d="M188.65,154.89A11.19,11.19,0,0,1,177.53,166H141.08L133,145.6a3.56,3.56,0,0,0-6.63,0L118.2,166H81.55a11.12,11.12,0,0,1-11.12-11.12h0L70.32,122H188.76Zm6.1-38.91a3.69,3.69,0,0,0-2.47-1.06H66.68A3.05,3.05,0,0,0,64.23,116a3.73,3.73,0,0,0-1.07,2.56L63.27,155a18.25,18.25,0,0,0,18.28,18.18h39.08a3.57,3.57,0,0,0,3.31-2.24l5.66-14.34,5.67,14.34a3.55,3.55,0,0,0,3.32,2.24H177.5A18.25,18.25,0,0,0,195.81,155h0l.11-36.45A5.19,5.19,0,0,0,194.75,116Z"/><path id="Fill-49" d="M157.58,143.45A5.46,5.46,0,1,1,163,138h0A5.48,5.48,0,0,1,157.58,143.45Zm1.78-14.87a11,11,0,0,0-10.91,10.9v9.19a10.91,10.91,0,0,0,21.82,0V139.5a10.82,10.82,0,0,0-10.71-10.92Z"/><path id="Fill-50" class="cls-4" d="M163,138a5.46,5.46,0,1,0-5.45,5.46h0A5.48,5.48,0,0,0,163,138"/><path id="Fill-51" d="M98.42,143.45a5.46,5.46,0,1,1,5.46-5.46h0A5.48,5.48,0,0,1,98.42,143.45Zm1.78-14.86A11,11,0,0,0,89.29,139.5v9.19a10.91,10.91,0,0,0,21.8.88c0-.3,0-.59,0-.88V139.5a10.87,10.87,0,0,0-10.82-10.92h-.07Z"/><path id="Fill-52" class="cls-4" d="M103.88,138a5.46,5.46,0,1,0-5.46,5.46h0a5.46,5.46,0,0,0,5.46-5.46"/><g id="Union"><path id="path18_fill" data-name="path18 fill" d="M225.54,207.82a1,1,0,0,0,2,0v-3h3a1,1,0,1,0,0-2h-3v-3a1,1,0,0,0-2,0v3h-3a1,1,0,0,0,0,2h3Z"/></g><g id="Ellipse_9" data-name="Ellipse 9"><path id="path23_fill" data-name="path23 fill" class="cls-5" d="M215.54,175.82a4,4,0,1,1-4-4A4,4,0,0,1,215.54,175.82Z"/></g><g id="Union-2" data-name="Union"><path id="path19_fill" data-name="path19 fill" d="M225.92,87.32a1,1,0,1,0,2,0v-3h3a1,1,0,1,0,0-2h-3v-3a1,1,0,0,0-2,0v3h-3a1,1,0,0,0,0,2h3Z"/></g><g id="Union-3" data-name="Union"><path id="path19_fill-2" data-name="path19 fill" d="M45.88,78.74a1,1,0,0,0,2,0v-3h3a1,1,0,1,0,0-2h-3v-3a1,1,0,0,0-2,0v3h-3a1,1,0,0,0,0,2h3Z"/></g><g id="Union-4" data-name="Union"><path id="path19_fill-3" data-name="path19 fill" d="M151.86,27.32a1,1,0,0,0,2,0v-3h3a1,1,0,0,0,0-2h-3v-3a1,1,0,1,0-2,0v3h-3a1,1,0,0,0,0,2h3Z"/></g><g id="Union-5" data-name="Union"><path id="path22_fill" data-name="path22 fill" class="cls-5" d="M59.16,195.32a1,1,0,0,0,2,0v-1h1a1,1,0,0,0,0-2h-1v-1a1,1,0,0,0-2,0v1h-1a1,1,0,0,0,0,2h1Z"/></g><g id="Ellipse_9-2" data-name="Ellipse 9"><path id="path23_fill-2" data-name="path23 fill" d="M110,23.32a4,4,0,1,1-4-4A4,4,0,0,1,110,23.32Z"/></g><g id="Ellipse_9-3" data-name="Ellipse 9"><path id="path25_fill" data-name="path25 fill" class="cls-5" d="M33.88,102.3a2,2,0,1,1-2-2A2,2,0,0,1,33.88,102.3Z"/></g><g id="Ellipse_9-4" data-name="Ellipse 9"><path id="path25_fill-2" data-name="path25 fill" class="cls-5" d="M76,35.07a2,2,0,1,1-2-2A2,2,0,0,1,76,35.07Z"/></g><g id="Ellipse_9-5" data-name="Ellipse 9"><path id="path24_fill" data-name="path24 fill" d="M218.11,128.2a4,4,0,1,1-4-4A4,4,0,0,1,218.11,128.2Z"/></g><g id="Ellipse_9-6" data-name="Ellipse 9"><path id="path24_fill-2" data-name="path24 fill" d="M180.69,38.25a4,4,0,1,1-4-4A4,4,0,0,1,180.69,38.25Z"/></g><g id="Ellipse_9-7" data-name="Ellipse 9"><path id="path24_fill-3" data-name="path24 fill" d="M35.88,170a4,4,0,1,1-4-4A4,4,0,0,1,35.88,170Z"/></g><g id="Ellipse_9-8" data-name="Ellipse 9"><path id="path25_fill-3" data-name="path25 fill" d="M232.12,148.35a2,2,0,1,1-2-2A2,2,0,0,1,232.12,148.35Z"/></g><g id="Ellipse_9-9" data-name="Ellipse 9"><path id="path25_fill-4" data-name="path25 fill" d="M43.88,134.41a2,2,0,1,1-2-2A2,2,0,0,1,43.88,134.41Z"/></g><path class="cls-4" d="M130.16,88.45C106.1,88.45,78,84.06,78,71.68c0-5.83,5.71-10.11,17.45-13.09,9.33-2.37,21.65-3.68,34.7-3.68,24.06,0,52.15,4.39,52.15,16.77,0,5.83-5.7,10.11-17.45,13.1C155.54,87.15,143.21,88.45,130.16,88.45ZM87.8,71.68C90.47,73.82,103.53,79,130.16,79s39.69-5.19,42.36-7.33c-2.67-2.13-15.73-7.32-42.36-7.32S90.47,69.55,87.8,71.68Z"/><path d="M130.16,56.91c24.16,0,50.15,4.62,50.15,14.77,0,4.72-5.36,8.47-15.94,11.16-9.17,2.33-21.32,3.61-34.21,3.61C106,86.45,80,81.83,80,71.68,80,67,85.37,63.21,96,60.52c9.17-2.32,21.32-3.61,34.21-3.61m0,24.1c29.5,0,44.71-6.54,44.71-9.33s-15.21-9.32-44.71-9.32-44.71,6.53-44.71,9.32S100.66,81,130.16,81m0-28.1c-13.21,0-25.71,1.33-35.19,3.74-4.69,1.19-19,4.81-19,15,0,17.86,45.11,18.77,54.15,18.77,13.21,0,25.71-1.33,35.19-3.74,4.69-1.19,19-4.81,19-15,0-17.86-45.11-18.77-54.15-18.77ZM92,71.68c5.51-2.27,18-5.32,38.16-5.32s32.65,3,38.16,5.32C162.81,74,150.34,77,130.16,77S97.51,74,92,71.68Z"/><path class="cls-4" d="M180.31,66.71s-6.93-2.79-7.25,5.29"/><path d="M179.57,68.56a5.75,5.75,0,0,0-.92-.27,4.94,4.94,0,0,0-1-.12,2.62,2.62,0,0,0-1.51.39,2.77,2.77,0,0,0-.95,1.32c-.13.31-.19.68-.3,1l-.14,1.16-3.41-.14.11-1.57a16.82,16.82,0,0,1,.38-1.64,6.46,6.46,0,0,1,2.09-3.13,6.31,6.31,0,0,1,3.64-1.27,9.2,9.2,0,0,1,1.75.1,9.09,9.09,0,0,1,1.73.43Z"/><path class="cls-4" d="M80,66.71s6.93-2.79,7.25,5.29"/><path d="M79.26,64.85A9.09,9.09,0,0,1,81,64.42a9.26,9.26,0,0,1,1.76-.1,6.3,6.3,0,0,1,3.63,1.27,6.48,6.48,0,0,1,2.1,3.13,14.27,14.27,0,0,1,.37,1.64L89,71.93l-3.4.14-.15-1.16c-.1-.35-.17-.72-.29-1a2.78,2.78,0,0,0-1-1.32,2.62,2.62,0,0,0-1.51-.39,4.94,4.94,0,0,0-1,.12,5.75,5.75,0,0,0-.92.27Z"/></svg>