<svg width="40" height="40" viewBox="0 0 40 40" fill="none" xmlns="http://www.w3.org/2000/svg">
<path fill-rule="evenodd" clip-rule="evenodd" d="M10.2789 37H29.7205C29.9194 37 30.1047 36.8943 30.2054 36.7248L39.9249 20.2731C40.025 20.103 40.025 19.8958 39.9249 19.7257L30.2054 3.27402C30.1047 3.10391 29.9194 3 29.7205 3H10.2789C10.08 3 9.89532 3.10451 9.79522 3.27402L0.075074 19.7257C-0.0250247 19.8952 -0.0250247 20.103 0.075074 20.2731L9.79522 36.7248C9.89532 36.8943 10.0806 37 10.2789 37ZM23.3774 14.49H29.7247L20.7363 19.9988L29.7247 25.5082H23.3774L17.1284 21.7644V25.5647H13.2202V25.5082V19.9988V14.49V14.4329H17.1284V18.2338L23.3774 14.49Z" fill="white"/>
</svg>
