<?xml version="1.0" encoding="UTF-8"?>
<svg width="122px" height="24px" viewBox="0 0 122 24" version="1.1" xmlns="http://www.w3.org/2000/svg" xmlns:xlink="http://www.w3.org/1999/xlink">
    <!-- Generator: sketchtool 50.2 (55047) - http://www.bohemiancoding.com/sketch -->
    <title>9B549AC2-41BB-4072-82FD-8DC3445B46D1</title>
    <desc>Created with sketchtool.</desc>
    <defs>
        <linearGradient x1="-0.814480208%" y1="50%" x2="422.147232%" y2="50%" id="linearGradient-1">
            <stop stop-color="#5421FE" offset="0%"></stop>
            <stop stop-color="#00A4FF" offset="100%"></stop>
        </linearGradient>
        <linearGradient x1="-109.147814%" y1="50%" x2="313.813898%" y2="50%" id="linearGradient-2">
            <stop stop-color="#5421FE" offset="0%"></stop>
            <stop stop-color="#00A4FF" offset="100%"></stop>
        </linearGradient>
        <linearGradient x1="-217.481147%" y1="50%" x2="205.480565%" y2="50%" id="linearGradient-3">
            <stop stop-color="#5421FE" offset="0%"></stop>
            <stop stop-color="#00A4FF" offset="100%"></stop>
        </linearGradient>
        <linearGradient x1="-325.81448%" y1="50%" x2="97.1472317%" y2="50%" id="linearGradient-4">
            <stop stop-color="#5421FE" offset="0%"></stop>
            <stop stop-color="#00A4FF" offset="100%"></stop>
        </linearGradient>
    </defs>
    <g id="Symbols" stroke="none" stroke-width="1" fill="none" fill-rule="evenodd">
        <g id="logo">
            <g id="Лого">
                <path d="M1.708,0 C0.765,0 0,0.7645 0,1.7085 L0,22.2915 C0,23.2355 0.765,24 1.708,24 L22.2915,24 C23.2355,24 24,23.2355 24,22.2915 L24,1.7085 C24,0.7645 23.2355,0 22.2915,0 L1.708,0 Z" id="Fill-1" fill="url(#linearGradient-1)"></path>
                <path d="M27.7085,0 C26.765,0 26,0.7645 26,1.7085 L26,22.2915 C26,23.2355 26.765,24 27.7085,24 L48.2915,24 C49.235,24 50,23.2355 50,22.2915 L50,1.7085 C50,0.7645 49.235,0 48.2915,0 L27.7085,0 Z" id="Fill-4" fill="url(#linearGradient-2)"></path>
                <path d="M53.7085,0 C52.7645,0 52,0.7645 52,1.7085 L52,22.2915 C52,23.2355 52.7645,24 53.7085,24 L74.2915,24 C75.2355,24 76,23.2355 76,22.2915 L76,1.7085 C76,0.7645 75.2355,0 74.2915,0 L53.7085,0 Z" id="Fill-7" fill="url(#linearGradient-3)"></path>
                <path d="M79.7085,0 C78.765,0 78,0.7645 78,1.7085 L78,22.2915 C78,23.2355 78.765,24 79.7085,24 L100.2915,24 C101.235,24 102,23.2355 102,22.2915 L102,1.7085 C102,0.7645 101.235,0 100.2915,0 L79.7085,0 Z" id="Fill-10" fill="url(#linearGradient-4)"></path>
                <path d="M113.0249,9.75585 L111.4329,9.75585 L111.4329,14.98785 C111.4329,15.28885 111.3659,15.51235 111.2314,15.65835 C111.0974,15.80385 110.9239,15.87685 110.7109,15.87685 C110.4944,15.87685 110.3189,15.80335 110.1824,15.65585 C110.0469,15.50835 109.9789,15.28585 109.9789,14.98785 L109.9789,9.75585 L108.3874,9.75585 C108.1384,9.75585 107.9529,9.70135 107.8319,9.59135 C107.7109,9.48135 107.6504,9.33685 107.6504,9.15685 C107.6504,8.96985 107.7134,8.82285 107.8394,8.71435 C107.9659,8.60635 108.1484,8.55235 108.3874,8.55235 L113.0249,8.55235 C113.2769,8.55235 113.4644,8.60785 113.5874,8.71935 C113.7099,8.83035 113.7714,8.97635 113.7714,9.15685 C113.7714,9.33685 113.7089,9.48135 113.5844,9.59135 C113.4599,9.70135 113.2734,9.75585 113.0249,9.75585 Z M116.70215,9.3877 L118.33315,14.2162 L119.96865,9.3532 C120.05415,9.0977 120.11765,8.9197 120.16065,8.8202 C120.20315,8.7202 120.27365,8.6302 120.37165,8.5497 C120.46965,8.4697 120.60415,8.4297 120.77465,8.4297 C120.89915,8.4297 121.01465,8.4607 121.12115,8.5232 C121.22715,8.5852 121.31065,8.6682 121.37165,8.7712 C121.43215,8.8742 121.46265,8.9782 121.46265,9.0832 C121.46265,9.1547 121.45265,9.2327 121.43265,9.3162 C121.41315,9.3997 121.38865,9.4812 121.35865,9.5622 C121.32965,9.6422 121.30015,9.7247 121.27065,9.8102 L119.52665,14.5162 C119.46415,14.6962 119.40215,14.8672 119.34015,15.0292 C119.27765,15.1912 119.20565,15.3342 119.12415,15.4567 C119.04215,15.5797 118.93315,15.6802 118.79715,15.7587 C118.66115,15.8372 118.49515,15.8772 118.29865,15.8772 C118.10215,15.8772 117.93615,15.8382 117.79965,15.7612 C117.66415,15.6847 117.55415,15.5832 117.47065,15.4567 C117.38715,15.3307 117.31465,15.1877 117.25265,15.0267 C117.19015,14.8662 117.12815,14.6962 117.06565,14.5162 L115.35115,9.8492 C115.32165,9.7642 115.29165,9.6807 115.26015,9.5987 C115.22915,9.5172 115.20315,9.4282 115.18165,9.3337 C115.16015,9.2382 115.15015,9.1582 115.15015,9.0927 C115.15015,8.9257 115.21665,8.7732 115.35115,8.6357 C115.48515,8.4987 115.65415,8.4297 115.85715,8.4297 C116.10615,8.4297 116.28215,8.5057 116.38515,8.6582 C116.48815,8.8102 116.59415,9.0532 116.70215,9.3877 Z M105.9951,15.87695 C105.7921,15.87695 105.6166,15.81095 105.4691,15.67995 C105.3216,15.54945 105.2481,15.36595 105.2481,15.12995 C105.2481,14.92995 105.3181,14.75845 105.4596,14.61445 C105.6001,14.47045 105.7741,14.39795 105.9801,14.39795 C106.1866,14.39795 106.3621,14.46945 106.5081,14.61195 C106.6536,14.75445 106.7271,14.92695 106.7271,15.12995 C106.7271,15.36295 106.6536,15.54495 106.5081,15.67795 C106.3621,15.81045 106.1916,15.87695 105.9951,15.87695 Z" id="Fill-15" fill="#1D1000"></path>
                <path d="M95.7417,11.38135 L87.7077,5.46535 C87.3752,5.22035 86.9042,5.29035 86.6587,5.62435 C86.4132,5.95785 86.4842,6.42785 86.8177,6.67335 L94.0447,11.99485 L88.0127,16.57685 L88.0127,10.81235 C88.0127,10.39835 87.6767,10.06235 87.2627,10.06235 C86.8487,10.06235 86.5127,10.39835 86.5127,10.81235 L86.5127,18.08835 C86.5127,18.37285 86.6742,18.63385 86.9292,18.76035 C87.0352,18.81235 87.1487,18.83835 87.2627,18.83835 C87.4232,18.83835 87.5837,18.78685 87.7162,18.68535 L95.7507,12.58235 C95.9392,12.43935 96.0487,12.21635 96.0467,11.97985 C96.0447,11.74335 95.9322,11.52135 95.7417,11.38135 M64.3662,11.2617 C65.9732,11.9732 67.6877,12.9032 67.6877,14.9477 C67.6877,17.0012 65.8682,18.2292 64.1092,18.2292 C62.0172,18.2292 59.9062,17.0307 59.9062,14.3542 C59.9062,13.9397 60.2417,13.6042 60.6562,13.6042 C61.0707,13.6042 61.4062,13.9397 61.4062,14.3542 C61.4062,16.5577 63.4752,16.7292 64.1092,16.7292 C65.1307,16.7292 66.1877,16.0627 66.1877,14.9477 C66.1877,14.1632 65.7902,13.5327 63.7587,12.6337 C62.2562,11.9682 60.5312,10.9527 60.5312,8.9837 C60.5312,7.5197 61.7222,5.9632 63.9297,5.9632 C66.1542,5.9632 67.5312,7.7552 67.5312,9.4157 C67.5312,9.8297 67.1952,10.1657 66.7812,10.1657 C66.3672,10.1657 66.0312,9.8297 66.0312,9.4157 C66.0312,8.6282 65.3632,7.4632 63.9297,7.4632 C62.4282,7.4632 62.0312,8.4582 62.0312,8.9837 C62.0312,9.6302 62.3142,10.3537 64.3662,11.2617 Z M38.69555,5.9326 L43.04155,16.6981 C43.19655,17.0826 43.01105,17.5196 42.62705,17.6741 C42.53505,17.7116 42.44005,17.7291 42.34655,17.7291 C42.04955,17.7291 41.76855,17.5516 41.65055,17.2596 L40.90855,15.4221 L38.00005,15.4221 C37.53555,15.4221 37.15905,15.0456 37.15905,14.5811 C37.15905,14.1166 37.53555,13.7401 38.00005,13.7401 L40.22955,13.7401 L38.00005,8.2166 L34.34955,17.2596 C34.19455,17.6436 33.75755,17.8286 33.37305,17.6741 C32.98905,17.5196 32.80305,17.0826 32.95805,16.6981 L37.30455,5.9326 C37.41905,5.6491 37.69405,5.4636 38.00005,5.4636 C38.30605,5.4636 38.58105,5.6491 38.69555,5.9326 Z M12.781,9.1797 C13.165,9.3352 13.3505,9.7722 13.1955,10.1562 L10.337,17.2292 C10.222,17.5127 9.947,17.6977 9.6415,17.6977 L9.6285,17.6977 C9.318,17.6922 9.043,17.4962 8.937,17.2047 L5.199,6.9392 C5.0575,6.5492 5.258,6.1192 5.647,5.9777 C6.036,5.8352 6.4665,6.0362 6.6085,6.4252 L9.678,14.8562 L11.8045,9.5937 C11.9595,9.2102 12.397,9.0242 12.781,9.1797 Z M19.3528,5.97755 C19.7418,6.11905 19.9428,6.54955 19.8008,6.93905 L16.0633,17.20455 C15.9568,17.49605 15.6818,17.69255 15.3718,17.69755 L15.3583,17.69755 C15.0533,17.69755 14.7778,17.51255 14.6633,17.22905 L13.3843,14.06505 C13.2288,13.68055 13.4148,13.24355 13.7988,13.08855 C14.1818,12.93305 14.6193,13.11805 14.7748,13.50255 L15.3218,14.85605 L18.3913,6.42555 C18.5338,6.03655 18.9643,5.83655 19.3528,5.97755 Z" id="Fill-28" fill="#FFFFFF"></path>
            </g>
        </g>
    </g>
</svg>