<svg xmlns="http://www.w3.org/2000/svg" viewBox="0 0 128 128"><title>add-file</title><path d="M103.832,0H22.168A8.168,8.168,0,0,0,14,8.17V119.83c0,4.515,3.659,8.17,9.393,8.17h81.664c3.284,0,6.943-3.654,6.943-8.17V8.17A8.168,8.168,0,0,0,103.832,0ZM35.89,8.432a.983.983,0,0,1,.984-.984H90.169a.984.984,0,0,1,.984.984v3.955a.984.984,0,0,1-.984.984H36.874a.983.983,0,0,1-.984-.984ZM98.443,90.645a4.427,4.427,0,0,1-4.43,4.421H76.291a4.427,4.427,0,0,0-4.43,4.421V117.17a4.427,4.427,0,0,1-4.43,4.421H58.57a4.427,4.427,0,0,1-4.43-4.421V99.487a4.427,4.427,0,0,0-4.43-4.421H31.988a4.427,4.427,0,0,1-4.43-4.421V81.8a4.427,4.427,0,0,1,4.43-4.421H49.709a4.427,4.427,0,0,0,4.43-4.421V55.279a4.427,4.427,0,0,1,4.43-4.421H67.43a4.427,4.427,0,0,1,4.43,4.421V72.962a4.427,4.427,0,0,0,4.43,4.421H94.012a4.427,4.427,0,0,1,4.43,4.421Zm2.648-57.591a1.158,1.158,0,0,1-1.157,1.157H25.479a1.158,1.158,0,0,1-1.157-1.157V28.289a1.159,1.159,0,0,1,1.157-1.157H99.933a1.159,1.159,0,0,1,1.157,1.157Z"/></svg>