<svg xmlns="http://www.w3.org/2000/svg" viewBox="0 0 128 128"><title>add-folder</title><path d="M116.89,40.032h-53.1L50.949,22.973a10.691,10.691,0,0,0-8.533-4.25H10.223c-5.9,0-10.667,4.768-10.667,8.318v87.713c0,8.2,4.771,12.969,10.667,12.969H116.89a10.654,10.654,0,0,0,10.667-10.644v-66.4A10.654,10.654,0,0,0,116.89,40.032ZM99,90.645a4.427,4.427,0,0,1-4.43,4.421H76.847a4.427,4.427,0,0,0-4.43,4.421V117.17a4.427,4.427,0,0,1-4.43,4.421H59.126a4.427,4.427,0,0,1-4.43-4.421V99.487a4.427,4.427,0,0,0-4.43-4.421H32.544a4.427,4.427,0,0,1-4.43-4.421V81.8a4.427,4.427,0,0,1,4.43-4.421H50.266a4.427,4.427,0,0,0,4.43-4.421V55.279a4.427,4.427,0,0,1,4.43-4.421h8.861a4.427,4.427,0,0,1,4.43,4.421V72.962a4.427,4.427,0,0,0,4.43,4.421H94.569A4.427,4.427,0,0,1,99,81.8Z"/></svg>