<svg xmlns="http://www.w3.org/2000/svg" viewBox="0 0 128 128"><title>add</title><path d="M72.688,0H55.312a4.345,4.345,0,0,0-4.344,4.344v42.28a4.345,4.345,0,0,1-4.344,4.344H4.344A4.345,4.345,0,0,0,0,55.312V72.688a4.345,4.345,0,0,0,4.344,4.344h42.28a4.345,4.345,0,0,1,4.344,4.344v42.28A4.345,4.345,0,0,0,55.312,128H72.688a4.345,4.345,0,0,0,4.344-4.344V81.376a4.345,4.345,0,0,1,4.344-4.344h42.28A4.345,4.345,0,0,0,128,72.688V55.312a4.345,4.345,0,0,0-4.344-4.344H81.376a4.345,4.345,0,0,1-4.344-4.344V4.344A4.345,4.345,0,0,0,72.688,0Z" transform="translate(0)"/></svg>