<?xml version="1.0" encoding="UTF-8"?>
<svg viewBox="0 0 24 24" version="1.1" xmlns="http://www.w3.org/2000/svg" xmlns:xlink="http://www.w3.org/1999/xlink">
    <g stroke="none" stroke-width="1" fill-rule="evenodd">
        <g transform="translate(4.000000, 3.000000)">
            <path d="M7.4241,3.4477 C7.4001,3.5227 7.3731,3.5957 7.3371,3.6647 C7.3201,3.6997 7.3031,3.7327 7.2831,3.7657 C7.2421,3.8337 7.1941,3.8997 7.1431,3.9597 C7.1231,3.9837 7.1051,4.0087 7.0841,4.0317 C7.0071,4.1127 6.9231,4.1857 6.8301,4.2477 C6.5921,4.4067 6.3071,4.4997 6.0001,4.4997 C5.6931,4.4997 5.4081,4.4067 5.1701,4.2477 C5.0771,4.1857 4.9931,4.1127 4.9161,4.0317 C4.8941,4.0087 4.8771,3.9837 4.8571,3.9597 C4.8061,3.8997 4.7581,3.8337 4.7171,3.7657 C4.6971,3.7327 4.6801,3.6997 4.6631,3.6647 C4.6271,3.5957 4.6001,3.5227 4.5761,3.4477 C4.5651,3.4127 4.5521,3.3797 4.5441,3.3457 C4.5181,3.2347 4.5001,3.1187 4.5001,2.9997 C4.5001,2.8807 4.5181,2.7657 4.5441,2.6547 C4.5521,2.6197 4.5651,2.5867 4.5761,2.5527 C4.6001,2.4777 4.6271,2.4047 4.6631,2.3347 C4.6801,2.3007 4.6971,2.2677 4.7171,2.2347 C4.7581,2.1657 4.8061,2.1007 4.8571,2.0397 C4.8771,2.0167 4.8941,1.9917 4.9161,1.9687 C4.9931,1.8877 5.0771,1.8147 5.1701,1.7517 C5.4081,1.5937 5.6931,1.4997 6.0001,1.4997 C6.3071,1.4997 6.5921,1.5937 6.8301,1.7517 C6.9231,1.8147 7.0071,1.8877 7.0841,1.9687 C7.1051,1.9917 7.1231,2.0167 7.1431,2.0397 C7.1941,2.1007 7.2421,2.1657 7.2831,2.2347 C7.3031,2.2677 7.3201,2.3007 7.3371,2.3347 C7.3731,2.4047 7.4001,2.4777 7.4241,2.5527 C7.4351,2.5867 7.4481,2.6197 7.4561,2.6547 C7.4821,2.7657 7.5001,2.8807 7.5001,2.9997 C7.5001,3.1187 7.4821,3.2347 7.4561,3.3457 C7.4481,3.3797 7.4351,3.4127 7.4241,3.4477 Z M8.7201,1.7497 C8.2451,0.7197 7.2091,-0.0003 6.0001,-0.0003 C4.7911,-0.0003 3.7551,0.7197 3.2801,1.7497 L0.5001,1.7497 C0.2241,1.7497 0.0001,1.9737 0.0001,2.2497 L0.0001,3.7497 C0.0001,4.0267 0.2241,4.2497 0.5001,4.2497 L3.2801,4.2497 C3.7551,5.2807 4.7911,5.9997 6.0001,5.9997 C7.2091,5.9997 8.2451,5.2807 8.7201,4.2497 L15.5001,4.2497 C15.7761,4.2497 16.0001,4.0267 16.0001,3.7497 L16.0001,2.2497 C16.0001,1.9737 15.7761,1.7497 15.5001,1.7497 L8.7201,1.7497 Z"></path>
            <path d="M10.9164,10.031 C10.8944,10.009 10.8774,9.983 10.8574,9.96 C10.8054,9.899 10.7584,9.834 10.7174,9.766 C10.6974,9.732 10.6794,9.699 10.6624,9.665 C10.6274,9.596 10.5994,9.522 10.5754,9.447 C10.5654,9.413 10.5524,9.38 10.5444,9.346 C10.5174,9.234 10.5004,9.119 10.5004,9 C10.5004,8.881 10.5174,8.766 10.5444,8.654 C10.5524,8.62 10.5654,8.587 10.5754,8.553 C10.5994,8.477 10.6274,8.404 10.6624,8.335 C10.6794,8.301 10.6974,8.268 10.7174,8.234 C10.7584,8.166 10.8054,8.101 10.8574,8.04 C10.8774,8.017 10.8944,7.991 10.9164,7.969 C10.9934,7.888 11.0774,7.814 11.1704,7.752 C11.4084,7.594 11.6934,7.5 12.0004,7.5 C12.3064,7.5 12.5914,7.594 12.8294,7.752 C12.9224,7.814 13.0064,7.888 13.0844,7.969 C13.1054,7.991 13.1234,8.017 13.1424,8.04 C13.1944,8.101 13.2414,8.166 13.2824,8.234 C13.3024,8.268 13.3204,8.301 13.3374,8.335 C13.3724,8.404 13.4004,8.477 13.4244,8.553 C13.4354,8.587 13.4474,8.62 13.4564,8.654 C13.4824,8.766 13.5004,8.881 13.5004,9 C13.5004,9.119 13.4824,9.234 13.4564,9.346 C13.4474,9.38 13.4354,9.413 13.4244,9.447 C13.4004,9.522 13.3724,9.596 13.3374,9.665 C13.3204,9.699 13.3024,9.732 13.2824,9.766 C13.2414,9.834 13.1944,9.899 13.1424,9.96 C13.1234,9.983 13.1054,10.009 13.0844,10.031 C13.0064,10.112 12.9224,10.186 12.8294,10.248 C12.5914,10.406 12.3064,10.5 12.0004,10.5 C11.6934,10.5 11.4084,10.406 11.1704,10.248 C11.0774,10.186 10.9934,10.112 10.9164,10.031 Z M14.7194,7.75 C14.2444,6.72 13.2094,6 12.0004,6 C10.7914,6 9.7554,6.72 9.2804,7.75 L0.5004,7.75 C0.2234,7.75 0.0004,7.974 0.0004,8.25 L0.0004,9.75 C0.0004,10.026 0.2234,10.25 0.5004,10.25 L9.2804,10.25 C9.7554,11.28 10.7914,12 12.0004,12 C13.2094,12 14.2444,11.28 14.7194,10.25 L15.5004,10.25 C15.7764,10.25 16.0004,10.026 16.0004,9.75 L16.0004,8.25 C16.0004,7.974 15.7764,7.75 15.5004,7.75 L14.7194,7.75 Z"></path>
            <path d="M9.4241,15.4477 C9.4001,15.5227 9.3731,15.5957 9.3371,15.6647 C9.3201,15.6997 9.3031,15.7327 9.2831,15.7657 C9.2421,15.8337 9.1941,15.8997 9.1431,15.9597 C9.1231,15.9837 9.1051,16.0087 9.0841,16.0317 C9.0071,16.1127 8.9231,16.1857 8.8301,16.2477 C8.5921,16.4067 8.3071,16.4997 8.0001,16.4997 C7.6931,16.4997 7.4081,16.4067 7.1701,16.2477 C7.0771,16.1857 6.9931,16.1127 6.9161,16.0317 C6.8941,16.0087 6.8771,15.9837 6.8571,15.9597 C6.8061,15.8997 6.7581,15.8337 6.7171,15.7657 C6.6971,15.7327 6.6801,15.6997 6.6631,15.6647 C6.6271,15.5957 6.6001,15.5227 6.5761,15.4477 C6.5651,15.4127 6.5521,15.3797 6.5441,15.3457 C6.5181,15.2347 6.5001,15.1187 6.5001,14.9997 C6.5001,14.8807 6.5181,14.7657 6.5441,14.6547 C6.5521,14.6197 6.5651,14.5867 6.5761,14.5527 C6.6001,14.4777 6.6271,14.4047 6.6631,14.3347 C6.6801,14.3007 6.6971,14.2677 6.7171,14.2347 C6.7581,14.1657 6.8061,14.1007 6.8571,14.0397 C6.8771,14.0167 6.8941,13.9917 6.9161,13.9687 C6.9931,13.8877 7.0771,13.8147 7.1701,13.7517 C7.4081,13.5937 7.6931,13.4997 8.0001,13.4997 C8.3071,13.4997 8.5921,13.5937 8.8301,13.7517 C8.9231,13.8147 9.0071,13.8877 9.0841,13.9687 C9.1051,13.9917 9.1231,14.0167 9.1431,14.0397 C9.1941,14.1007 9.2421,14.1657 9.2831,14.2347 C9.3031,14.2677 9.3201,14.3007 9.3371,14.3347 C9.3731,14.4047 9.4001,14.4777 9.4241,14.5527 C9.4351,14.5867 9.4481,14.6197 9.4561,14.6547 C9.4821,14.7657 9.5001,14.8807 9.5001,14.9997 C9.5001,15.1187 9.4821,15.2347 9.4561,15.3457 C9.4481,15.3797 9.4351,15.4127 9.4241,15.4477 Z M10.7201,13.7497 C10.2451,12.7197 9.2091,11.9997 8.0001,11.9997 C6.7911,11.9997 5.7551,12.7197 5.2801,13.7497 L0.5001,13.7497 C0.2241,13.7497 0.0001,13.9737 0.0001,14.2497 L0.0001,15.7497 C0.0001,16.0267 0.2241,16.2497 0.5001,16.2497 L5.2801,16.2497 C5.7551,17.2807 6.7911,17.9997 8.0001,17.9997 C9.2091,17.9997 10.2451,17.2807 10.7201,16.2497 L15.5001,16.2497 C15.7761,16.2497 16.0001,16.0267 16.0001,15.7497 L16.0001,14.2497 C16.0001,13.9737 15.7761,13.7497 15.5001,13.7497 L10.7201,13.7497 Z"></path>
        </g>
    </g>
</svg>
