<svg xmlns="http://www.w3.org/2000/svg" viewBox="0 0 128 128"><title>close</title><path d="M126.808,12.715,115.285,1.192a4.078,4.078,0,0,0-5.762,0L66.877,43.83a4.064,4.064,0,0,1-5.762,0L18.477,1.192a4.078,4.078,0,0,0-5.762,0L1.192,12.715a4.078,4.078,0,0,0,0,5.762L43.83,61.115a4.064,4.064,0,0,1,0,5.762L1.192,109.523a4.078,4.078,0,0,0,0,5.762l11.523,11.523a4.078,4.078,0,0,0,5.762,0L61.115,84.17a4.064,4.064,0,0,1,5.762,0l42.646,42.638a4.078,4.078,0,0,0,5.762,0l11.523-11.523a4.078,4.078,0,0,0,0-5.762L84.17,66.877a4.064,4.064,0,0,1,0-5.762l42.638-42.638a4.078,4.078,0,0,0,0-5.762"/></svg>