<svg xmlns="http://www.w3.org/2000/svg" viewBox="0 0 128 128"><title>close</title><path d="M117.333,0H10.667A10.718,10.718,0,0,0,0,10.762V117.238A10.718,10.718,0,0,0,10.667,128H117.333A10.718,10.718,0,0,0,128,117.238V10.762A10.718,10.718,0,0,0,117.333,0ZM80.9,66.414,104.386,89.9a3.415,3.415,0,0,1,0,4.827l-9.654,9.654a3.415,3.415,0,0,1-4.827,0L66.414,80.9a3.415,3.415,0,0,0-4.827,0L38.1,104.386a3.414,3.414,0,0,1-4.827,0l-9.654-9.654a3.414,3.414,0,0,1,0-4.827L47.1,66.414a3.415,3.415,0,0,0,0-4.827L23.614,38.1a3.415,3.415,0,0,1,0-4.827l9.654-9.654a3.414,3.414,0,0,1,4.827,0L61.586,47.1a3.415,3.415,0,0,0,4.827,0L89.9,23.614a3.414,3.414,0,0,1,4.827,0l9.654,9.654a3.414,3.414,0,0,1,0,4.827L80.9,61.586A3.414,3.414,0,0,0,80.9,66.414Z"/></svg>