<svg xmlns="http://www.w3.org/2000/svg" viewBox="0 0 128 128"><title>color</title><path d="M33.943,95.518C62.688,91.67,45.616,59.926,73.164,54.57c11.429-2.222,15.906,7.446,27.719,10.793,9.986,2.83,27.175-7.2,27.118-19.04-.138-28.608-33.86-43.305-69.715-38.9S-3.922,39.9.481,75.752C1.874,87.1,14.64,98.1,33.943,95.518Zm68.47-66.565A12.263,12.263,0,1,1,91.736,42.619,12.263,12.263,0,0,1,102.413,28.953ZM69.183,13.982A12.263,12.263,0,1,1,58.506,27.648,12.263,12.263,0,0,1,69.183,13.982ZM35.691,28.118A12.263,12.263,0,1,1,25.014,41.784,12.263,12.263,0,0,1,35.691,28.118ZM20.977,62.076A12.263,12.263,0,1,1,10.3,75.742,12.263,12.263,0,0,1,20.977,62.076Z"/><path d="M111.336,99.893c-5.484-2.618-5.931-4.195-11.479-3.307-4.864.778-6.706,8.975-6.914,10.669l-.088-.594c-9.278-2.868-7.744-6.068-30.866-2.631C41.033,107.144,9.8,117.727.636,122.707l.406,3.325c10.214,2.1,43.029,1.544,63.985-1.571,23.122-3.437,20.723-6.053,28.766-11.5l-.131-.877a8.517,8.517,0,0,0,2.108,3.178c3.23,2.9,9.174,6.224,15.761,4.472,8.251-2.195,11.381-6.389,14.786-13.035,3-5.849.289-17.764.289-17.764S121.323,104.661,111.336,99.893Z"/></svg>