<svg viewBox="0 0 128 128" xmlns="http://www.w3.org/2000/svg">
<path d="M9.55022 0H118.443C123.698 0 128 4.29511 128 9.55022V89.9982C128 95.2604 123.698 99.5555 118.443 99.5555H61.7529L30.3218 126.884C26.624 129.628 21.3547 127.012 21.3547 122.439V99.5555H9.55022C4.29511 99.5555 0 95.2604 0 89.9982V9.55022C0 4.29511 4.29511 0 9.55022 0ZM97.7969 43.6558L89.4769 43.222L82.3516 31.126L86.1987 23.5669C86.604 22.6496 86.2485 21.5687 85.3809 21.0638L78.1703 16.9038C77.3027 16.406 76.1934 16.6336 75.596 17.4513L70.7676 24.8825H57.228L52.3996 17.4513C51.8023 16.6336 50.6929 16.406 49.8183 16.9038L42.6218 21.0638C41.7472 21.5687 41.3916 22.6496 41.7969 23.5669L45.6369 31.1118L38.5045 43.222L30.1987 43.6558C29.196 43.7696 28.4423 44.6087 28.4423 45.6185V53.9313C28.4423 54.9411 29.196 55.7873 30.1987 55.9011L38.5116 56.3349L45.644 68.438L41.7969 75.99C41.3916 76.9073 41.7472 77.9882 42.6218 78.4931L49.8183 82.646C50.6929 83.1509 51.8023 82.9162 52.3996 82.1127L57.2423 74.6602H70.7534L75.596 82.1127C76.1934 82.9162 77.3027 83.1509 78.1703 82.646L85.3809 78.4931C86.2485 77.9882 86.604 76.9073 86.1987 75.99L82.3445 68.4238L89.4698 56.3349L97.7969 55.9011C98.7996 55.7873 99.5534 54.9411 99.5534 53.9313V45.6185C99.5534 44.6087 98.7996 43.7696 97.7969 43.6558Z"/>
<path d="M49.7684 49.7713C49.7684 57.622 56.14 63.9935 63.9907 63.9935C71.8413 63.9935 78.2129 57.622 78.2129 49.7713C78.2129 41.9206 71.8413 35.5491 63.9907 35.5491C56.14 35.5491 49.7684 41.9206 49.7684 49.7713Z"/>
</svg>
