<?xml version="1.0" encoding="UTF-8" standalone="no"?><!DOCTYPE svg PUBLIC "-//W3C//DTD SVG 1.1//EN" "http://www.w3.org/Graphics/SVG/1.1/DTD/svg11.dtd"><svg width="100%" height="100%" viewBox="0 0 100 100" version="1.1" xmlns="http://www.w3.org/2000/svg" xmlns:xlink="http://www.w3.org/1999/xlink" xml:space="preserve" style="fill-rule:evenodd;clip-rule:evenodd;stroke-linejoin:round;stroke-miterlimit:1.41421;"><path d="M24,80l-16,0c-4.418,0 -8,-3.582 -8,-8c0,-15.328 0,-48.672 0,-64c0,-4.418 3.582,-8 8,-8c18.732,0 65.268,0 84,0c4.418,0 8,3.582 8,8c0,15.328 0,48.672 0,64c0,4.418 -3.582,8 -8,8l-39.493,0l-20.92,18.828c-1.271,1.144 -3.183,1.487 -4.843,0.867c-1.661,-0.619 -2.744,-2.077 -2.744,-3.695l0,-16Z"/></svg>
