<svg viewBox="0 0 128 128" xmlns="http://www.w3.org/2000/svg">
<path d="M7.273 48C3.256 48 0 50.865 0 54.4V121.6C0 125.135 3.256 128 7.273 128H72.727C76.744 128 80 125.135 80 121.6V54.4C80 50.865 76.744 48 72.727 48H7.273Z"/>
<path d="M116.8 116.571H104V59.429H116.8V116.571ZM99.84 48C95.952 48 92.8 50.865 92.8 54.4V121.6C92.8 125.135 95.952 128 99.84 128H120.96C124.848 128 128 125.135 128 121.6V54.4C128 50.865 124.848 48 120.96 48H99.84Z"/>
<path d="M18.079 37.243C17.2929 36.8682 16.6676 36.2236 16.3169 35.4265C15.9661 34.6294 15.9133 33.7328 16.168 32.9C21.913 15.632 37.815 3.02904 56.967 0.564039C76.119 -1.90096 95.067 3.62604 105.586 18.801L107.568 17.692C108.181 17.3529 108.868 17.1714 109.569 17.1639C110.269 17.1564 110.96 17.3231 111.58 17.649C112.18 17.9541 112.686 18.4173 113.042 18.9887C113.398 19.5601 113.591 20.2179 113.6 20.891V37.868C113.592 38.5283 113.407 39.1743 113.064 39.7386C112.721 40.3029 112.233 40.7648 111.651 41.076C111.049 41.4075 110.375 41.5871 109.688 41.5993C109 41.6115 108.321 41.4559 107.707 41.146L91.825 33.054C91.2154 32.7681 90.6977 32.3175 90.3305 31.7531C89.9633 31.1887 89.761 30.5329 89.7466 29.8597C89.7321 29.1865 89.906 28.5226 90.2487 27.9429C90.5914 27.3633 91.0892 26.8909 91.686 26.579L95.313 24.549C87.16 13.07 72.631 9.64704 58.067 11.722C43.503 13.797 31.545 23.585 27.415 36.814C27.2439 37.3608 26.951 37.8616 26.5583 38.2787C26.1656 38.6958 25.6834 39.0183 25.148 39.222C24.5978 39.4378 24.0082 39.5349 23.4178 39.5072C22.8274 39.4794 22.2496 39.3274 21.722 39.061C20.471 38.462 19.177 37.8 18.079 37.243Z"/>
</svg>
