<svg xmlns="http://www.w3.org/2000/svg" viewBox="0 0 128 128"><title>contents-tree</title><path d="M112.64,0H15.36A15.405,15.405,0,0,0,0,15.36v97.28A15.405,15.405,0,0,0,15.36,128h97.28A15.405,15.405,0,0,0,128,112.64V15.36A15.405,15.405,0,0,0,112.64,0ZM103.3,116.25a13.375,13.375,0,0,1-3.84-26.187V77.837H67.84V90.065a13.376,13.376,0,1,1-7.68,0V77.837H28.538V90.065a13.376,13.376,0,1,1-7.68,0V74a3.84,3.84,0,0,1,3.84-3.84H60.16V56.589H36.582a10.271,10.271,0,0,1-10.24-10.24V25.025a10.271,10.271,0,0,1,10.24-10.24H91.418a10.271,10.271,0,0,1,10.24,10.24V46.353a10.271,10.271,0,0,1-10.24,10.24H67.84V70.161H103.3a3.84,3.84,0,0,1,3.84,3.84V90.063a13.375,13.375,0,0,1-3.84,26.187Z"/></svg>