<svg xmlns="http://www.w3.org/2000/svg" viewBox="0 0 128 128"><title>cpu</title><path d="M21.627,18.528H27.1a2.786,2.786,0,0,0,2.785-2.785v-4.4A2.786,2.786,0,0,0,27.1,8.562H17.232c-4.6,0-8.356,1.12-8.356,5.715V28.1a2.786,2.786,0,0,0,2.785,2.785h4.4A2.786,2.786,0,0,0,18.841,28.1v-6.79a2.786,2.786,0,0,1,2.785-2.785"/><path d="M106.778,109.472h-5.47a2.786,2.786,0,0,0-2.785,2.785v4.4a2.786,2.786,0,0,0,2.785,2.785h9.865c4.6,0,8.356-1.12,8.356-5.715V101.217a2.786,2.786,0,0,0-2.785-2.785h-4.4a2.786,2.786,0,0,0-2.785,2.785v5.47c0,1.538-2.568,2.785-4.106,2.785"/><path d="M18.841,106.686v-5.47a2.786,2.786,0,0,0-2.785-2.785h-4.4a2.786,2.786,0,0,0-2.785,2.785v12.505c0,4.6,3.76,5.715,8.356,5.715H27.1a2.786,2.786,0,0,0,2.785-2.785v-4.4a2.786,2.786,0,0,0-2.785-2.785h-5.47a2.786,2.786,0,0,1-2.785-2.785"/><rect x="32.267" y="31.576" width="64.847" height="64.847"/><path d="M109.564,21.314V28.1a2.786,2.786,0,0,0,2.785,2.785h4.4A2.786,2.786,0,0,0,119.53,28.1V14.278c0-4.6-3.76-5.715-8.356-5.715h-9.865a2.786,2.786,0,0,0-2.785,2.785v4.4a2.786,2.786,0,0,0,2.785,2.785h5.47a2.786,2.786,0,0,1,2.785,2.785"/><path d="M58,2.793V20.234a2.794,2.794,0,0,0,2.79,2.793h7.942a2.794,2.794,0,0,0,2.793-2.793V2.793A2.794,2.794,0,0,0,68.737,0H60.795A2.794,2.794,0,0,0,58,2.793Z"/><path d="M78.806,2.793V20.234a2.794,2.794,0,0,0,2.79,2.793h7.942a2.794,2.794,0,0,0,2.793-2.793V2.793A2.794,2.794,0,0,0,89.541,0H81.6A2.794,2.794,0,0,0,78.806,2.793Z"/><path d="M37.2,2.793V20.234a2.794,2.794,0,0,0,2.79,2.793h7.942a2.794,2.794,0,0,0,2.793-2.793V2.793A2.794,2.794,0,0,0,47.933,0H39.991A2.794,2.794,0,0,0,37.2,2.793Z"/><path d="M58,107.766v17.441A2.794,2.794,0,0,0,60.791,128h7.942a2.794,2.794,0,0,0,2.793-2.793V107.766a2.794,2.794,0,0,0-2.79-2.793H60.795A2.794,2.794,0,0,0,58,107.766Z"/><path d="M78.806,107.766v17.441A2.794,2.794,0,0,0,81.6,128h7.942a2.794,2.794,0,0,0,2.793-2.793V107.766a2.794,2.794,0,0,0-2.79-2.793H81.6A2.794,2.794,0,0,0,78.806,107.766Z"/><path d="M37.2,107.766v17.441A2.794,2.794,0,0,0,39.987,128h7.942a2.794,2.794,0,0,0,2.793-2.793V107.766a2.794,2.794,0,0,0-2.79-2.793H39.991A2.794,2.794,0,0,0,37.2,107.766Z"/><path d="M125.3,57.238H107.863a2.794,2.794,0,0,0-2.793,2.79v7.942a2.794,2.794,0,0,0,2.793,2.793H125.3a2.794,2.794,0,0,0,2.793-2.79V60.031A2.794,2.794,0,0,0,125.3,57.238Z"/><path d="M125.3,78.042H107.863a2.794,2.794,0,0,0-2.793,2.79v7.942a2.794,2.794,0,0,0,2.793,2.793H125.3a2.794,2.794,0,0,0,2.793-2.79V80.835A2.794,2.794,0,0,0,125.3,78.042Z"/><path d="M125.3,36.433H107.863a2.794,2.794,0,0,0-2.793,2.79v7.942a2.794,2.794,0,0,0,2.793,2.793H125.3a2.794,2.794,0,0,0,2.793-2.79V39.227A2.794,2.794,0,0,0,125.3,36.433Z"/><path d="M20.331,57.238H2.89A2.794,2.794,0,0,0,.1,60.027v7.942a2.794,2.794,0,0,0,2.793,2.793H20.331a2.794,2.794,0,0,0,2.793-2.79V60.031A2.794,2.794,0,0,0,20.331,57.238Z"/><path d="M20.331,78.042H2.89A2.794,2.794,0,0,0,.1,80.831v7.942a2.794,2.794,0,0,0,2.793,2.793H20.332a2.794,2.794,0,0,0,2.793-2.79V80.835A2.794,2.794,0,0,0,20.331,78.042Z"/><path d="M20.331,36.433H2.89A2.794,2.794,0,0,0,.1,39.223v7.942a2.794,2.794,0,0,0,2.793,2.793H20.331a2.794,2.794,0,0,0,2.793-2.79V39.227A2.794,2.794,0,0,0,20.331,36.433Z"/></svg>