<svg xmlns="http://www.w3.org/2000/svg" viewBox="0 0 128 128"><title>delete-file</title><path d="M103.841,0H22.177a8.168,8.168,0,0,0-8.168,8.17V119.83c0,4.515,3.659,8.17,9.393,8.17h81.664c3.284,0,6.943-3.654,6.943-8.17V8.17A8.168,8.168,0,0,0,103.841,0ZM35.9,8.432a.983.983,0,0,1,.984-.984H90.177a.984.984,0,0,1,.984.984v3.955a.984.984,0,0,1-.984.984H36.883a.983.983,0,0,1-.984-.984ZM98.451,80.539a4.427,4.427,0,0,1-4.43,4.421H32a4.427,4.427,0,0,1-4.43-4.421V71.7A4.427,4.427,0,0,1,32,67.277H94.021a4.427,4.427,0,0,1,4.43,4.421ZM101.1,33.054a1.158,1.158,0,0,1-1.157,1.157H25.488a1.158,1.158,0,0,1-1.157-1.157V28.289a1.159,1.159,0,0,1,1.157-1.157H99.942a1.159,1.159,0,0,1,1.157,1.157Z"/></svg>