<svg xmlns="http://www.w3.org/2000/svg" viewBox="0 0 128 128"><title>delete</title><path d="M120.471,17.778H95.765a3.544,3.544,0,0,1-3.529-3.556V3.556A3.544,3.544,0,0,0,88.706,0H39.294a3.544,3.544,0,0,0-3.529,3.556V14.222a3.544,3.544,0,0,1-3.529,3.556H7.529A3.544,3.544,0,0,0,4,21.333V32a3.544,3.544,0,0,0,3.529,3.556H120.471A3.544,3.544,0,0,0,124,32V21.333a3.544,3.544,0,0,0-3.529-3.556"/><path d="M108.919,49.583H17.832a3.542,3.542,0,0,0-3.515,3.875l5.831,64.647a10.62,10.62,0,0,0,10.546,9.7H96.058a10.62,10.62,0,0,0,10.546-9.7l5.831-64.647A3.546,3.546,0,0,0,108.919,49.583ZM41.357,115.05H33.129a3.161,3.161,0,0,1-3.078-2.807l-4.537-47.1a2.506,2.506,0,0,1,2.537-2.807H36.28a3.161,3.161,0,0,1,3.078,2.807l4.537,47.1A2.507,2.507,0,0,1,41.357,115.05Zm29.564-2.808a2.808,2.808,0,0,1-2.807,2.807H59.886a2.808,2.808,0,0,1-2.807-2.807l-2-47.1a2.808,2.808,0,0,1,2.807-2.807H68.114a2.808,2.808,0,0,1,2.807,2.807Zm26.184,0a3.161,3.161,0,0,1-3.077,2.807H85.8a2.506,2.506,0,0,1-2.537-2.807l4.537-47.1a3.161,3.161,0,0,1,3.078-2.807h8.228a2.506,2.506,0,0,1,2.537,2.807Z"/></svg>