<svg xmlns="http://www.w3.org/2000/svg" viewBox="0 0 128 128"><title>details-setting</title><path d="M68.455,74.368a2.376,2.376,0,0,0,.992-3.01l-4.1-8.055a2.143,2.143,0,0,1,.068-2.056l7.383-12.531a2.148,2.148,0,0,1,1.731-1.047l8.867-.47a2.374,2.374,0,0,0,2.112-2.36v-10a2.373,2.373,0,0,0-2.112-2.356l-8.858-.47a2.125,2.125,0,0,1-1.727-1.047L65.415,18.427a2.124,2.124,0,0,1-.064-2.052l4.1-8.046a2.374,2.374,0,0,0-.992-3.01L59.8.317a2.376,2.376,0,0,0-3.1.65L51.521,8.936a2.133,2.133,0,0,1-1.791.97H35.775a2.133,2.133,0,0,1-1.791-.97L28.806.967a2.381,2.381,0,0,0-3.1-.65l-8.657,5a2.372,2.372,0,0,0-.988,3.01l4.087,8.029a2.132,2.132,0,0,1-.064,2.056l-7.4,12.552a2.142,2.142,0,0,1-1.731,1.052l-8.837.466A2.373,2.373,0,0,0,0,34.84v10A2.374,2.374,0,0,0,2.112,47.2l8.845.47a2.138,2.138,0,0,1,1.731,1.047l7.4,12.548a2.143,2.143,0,0,1,.068,2.056l-4.1,8.037a2.375,2.375,0,0,0,.988,3.01l8.657,5a2.372,2.372,0,0,0,3.1-.65l5.186-7.982a2.145,2.145,0,0,1,1.8-.975H49.717a2.144,2.144,0,0,1,1.8.975L56.7,78.716a2.367,2.367,0,0,0,3.1.65ZM40.037,56.729a17.109,17.109,0,1,1,19.6-19.6A17.171,17.171,0,0,1,40.037,56.729Z"/><path d="M125.878,90.384l-7.031-.373a1.687,1.687,0,0,1-1.371-.831l-5.867-9.953a1.685,1.685,0,0,1-.051-1.629l3.251-6.386a1.884,1.884,0,0,0-.787-2.389l-6.872-3.97a1.886,1.886,0,0,0-2.46.516l-4.109,6.325a1.693,1.693,0,0,1-1.422.77H88.083a1.693,1.693,0,0,1-1.422-.77l-4.109-6.325a1.89,1.89,0,0,0-2.464-.516l-6.872,3.97a1.883,1.883,0,0,0-.784,2.389l3.244,6.373a1.692,1.692,0,0,1-.051,1.632l-5.874,9.963a1.7,1.7,0,0,1-1.374.835l-7.014.37a1.884,1.884,0,0,0-1.676,1.87v7.937a1.885,1.885,0,0,0,1.676,1.873l7.021.373a1.7,1.7,0,0,1,1.374.831l5.87,9.96a1.7,1.7,0,0,1,.054,1.632l-3.251,6.38a1.885,1.885,0,0,0,.784,2.389l6.872,3.967a1.883,1.883,0,0,0,2.464-.516l4.116-6.335a1.7,1.7,0,0,1,1.425-.774H99.148a1.7,1.7,0,0,1,1.425.774l4.116,6.335a1.878,1.878,0,0,0,2.46.516l6.872-3.967a1.886,1.886,0,0,0,.787-2.389l-3.258-6.393a1.7,1.7,0,0,1,.054-1.632l5.86-9.946a1.7,1.7,0,0,1,1.374-.831l7.038-.373a1.885,1.885,0,0,0,1.676-1.873V92.254A1.884,1.884,0,0,0,125.878,90.384ZM91.466,109.628a13.58,13.58,0,1,1,15.555-15.555A13.629,13.629,0,0,1,91.466,109.628Z"/></svg>