<svg xmlns="http://www.w3.org/2000/svg" viewBox="0 0 128 128"><title>display</title><path d="M116.55.71H11.45A11.449,11.449,0,0,0,0,12.159V88.491a11.449,11.449,0,0,0,11.45,11.45h105.1A11.449,11.449,0,0,0,128,88.491V12.159A11.449,11.449,0,0,0,116.55.71Zm-7.633,38.166V77.041a3.818,3.818,0,0,1-3.817,3.817H22.9a3.818,3.818,0,0,1-3.817-3.817V23.609A3.818,3.818,0,0,1,22.9,19.792h82.2a3.818,3.818,0,0,1,3.817,3.817Z"/><path d="M112.876,112.624H82.251a2.876,2.876,0,0,1-2.875-2.875v-7.172a2.864,2.864,0,0,1,1.489-2.5H47.135a2.864,2.864,0,0,1,1.489,2.5v7.172a2.876,2.876,0,0,1-2.875,2.875H15.124a2.876,2.876,0,0,0-2.875,2.875V128h103.5V115.5A2.876,2.876,0,0,0,112.876,112.624Z"/></svg>