<svg xmlns="http://www.w3.org/2000/svg" viewBox="0 0 128 128"><title>drop-fps</title><path d="M15.51,74.246V128H-1V.332H35.8V27.209H15.51v20.16H35.8V74.246Z"/><path d="M127,47.037v80.631H91V100.791h19.85V73.914H91V0h36V26.877H107.15v20.16Z"/><path d="M80.109,100.79H64.336A3.237,3.237,0,0,1,61.1,97.554V74.25h.209v0H81.6V.332H44.8V74.25h.121v23.3a3.237,3.237,0,0,1-3.236,3.236H25.911a3.547,3.547,0,0,0-2.492,6.071L50.46,126.629a3.657,3.657,0,0,0,5.106,0L82.6,106.861A3.547,3.547,0,0,0,80.109,100.79ZM56.734,27.209H69.666v20.16H56.734Z"/></svg>