<svg xmlns="http://www.w3.org/2000/svg" width="100%" height="100%" viewBox="0 0 20 20"><path fill="#000" fill-rule="evenodd" d="M6.557176 10.6066017l2.8284271 2.8284271-3.3548098 1.2808161c-.7857789.2999986-1.0529671.0267-.769171-.7164949l1.2955537-3.3927483zM16.8114495.3523283c.1945855-.1945856.5043967-.2002598.6991489-.0055076l2.1347858 2.1347857c.1915437.1915438.1913232.5023182-.0055076.699149l-9.5471667 9.5471667-2.8284271-2.8284272L16.8114495.3523283zM12.7805176 2H2v16s16-.0022852 16-.0039318V7.1774902l2-2v12.818578C20 19.1028092 19.1017876 20 18.0092049 20H1.9907951C.8913093 20 0 19.1017876 0 18.0092049V1.9907951C0 .8913093.8936434 0 1.9986135 0h12.7819041l-2 2z"/></svg>