<svg xmlns="http://www.w3.org/2000/svg" viewBox="0 0 19.95 20.01"><g><g id="emotion"><path d="M17.16,12.07A8.15,8.15,0,0,0,18,8.5,8.76,8.76,0,0,0,9,0,8.76,8.76,0,0,0,0,8.5,8.76,8.76,0,0,0,9,17a9.74,9.74,0,0,0,1.72-.16,4.55,4.55,0,0,0,2.09.51,4.38,4.38,0,0,0,4.5-4.25A3.88,3.88,0,0,0,17.16,12.07Zm-13-4.4A1.38,1.38,0,1,1,5.53,9.05,1.38,1.38,0,0,1,4.15,7.67ZM11.8,12.2,9.36,13.61a.7.7,0,0,1-.72,0L6.2,12.2a.7.7,0,0,1-.34-.43.68.68,0,0,1,.08-.54.7.7,0,0,1,1-.26L9,12.17,11.09,11a.71.71,0,0,1,.71,1.23Zm.67-3.15a1.38,1.38,0,1,1,1.38-1.38A1.38,1.38,0,0,1,12.47,9.05Z"/><path d="M19.57,17.22a1.71,1.71,0,0,0-2.65,2.16,1.71,1.71,0,1,0,2.65-2.16Z"/></g></g></svg>