<svg xmlns="http://www.w3.org/2000/svg" viewBox="0 0 100 92.593"><title>extention</title><path d="M46.3,0A46.332,46.332,0,0,1,91.152,57.8a7.227,7.227,0,0,0-2.1-4.789,7.108,7.108,0,0,0-5.1-2.081H80.711a34.718,34.718,0,1,0-22.04,27.814,7.124,7.124,0,0,0,6.867,5.018H71.8v1.178A46.3,46.3,0,1,1,46.3,0Z"/><path d="M100,76.6a2.525,2.525,0,0,1-2.522,2.526H86.536V90.067a2.528,2.528,0,0,1-2.526,2.526H78.957a2.528,2.528,0,0,1-2.526-2.526V79.13H65.489a2.524,2.524,0,0,1-2.526-2.522v-5.06a2.522,2.522,0,0,1,2.519-2.524H76.424V58.081a2.525,2.525,0,0,1,2.526-2.525H84a2.478,2.478,0,0,1,1.777.728,2.576,2.576,0,0,1,.751,1.8V69.023H97.471a2.475,2.475,0,0,1,1.778.727,2.57,2.57,0,0,1,.751,1.8Z"/><path d="M67.126,50.926H43.985a2.314,2.314,0,0,1-2.318-2.314V20.833a2.314,2.314,0,0,1,2.318-2.314h4.638a2.316,2.316,0,0,1,2.318,2.314V41.669H67.126a2.317,2.317,0,0,1,2.318,2.314v4.629a2.317,2.317,0,0,1-2.318,2.314"/></svg>