<svg viewBox="0 0 128 128" xmlns="http://www.w3.org/2000/svg">
<path d="M67.2 114.939H12.8V61.0612H67.2V114.939ZM7.27273 48C3.25611 48 0 50.8654 0 54.4V121.6C0 125.135 3.25611 128 7.27273 128H72.7273C76.7439 128 80 125.135 80 121.6V54.4C80 50.8654 76.7439 48 72.7273 48H7.27273Z"/>
<path d="M92.8 54.4C92.8 50.8654 95.9519 48 99.84 48H120.96C124.848 48 128 50.8654 128 54.4V121.6C128 125.135 124.848 128 120.96 128H99.84C95.9519 128 92.8 125.135 92.8 121.6V54.4Z"/>
<path d="M111.521 37.2435C113.175 36.4002 113.972 34.5889 113.432 32.9006C107.687 15.6321 91.7853 3.02901 72.6325 0.564245C53.4797 -1.90053 34.5308 3.62563 24.0143 18.8014L22.0322 17.6922C20.8008 17.0033 19.2686 16.9866 18.0204 17.6485C16.7722 18.3104 16.0006 19.5487 16 20.8909V37.8684C15.999 39.1846 16.7397 40.4037 17.9491 41.0763C19.1584 41.7489 20.6572 41.7753 21.8928 41.1458L37.7751 33.0543C39.0319 32.4142 39.8254 31.1929 39.8542 29.8545C39.883 28.5161 39.1426 27.266 37.9144 26.579L34.2872 24.5492C42.4397 13.0697 56.9688 9.64685 71.5334 11.7217C86.0981 13.7966 98.0546 23.5846 102.185 36.8138C102.509 37.8977 103.344 38.7842 104.452 39.2217C105.561 39.6591 106.822 39.5998 107.878 39.0606C109.129 38.4619 110.422 37.8028 111.521 37.2435Z"/>
</svg>
