<svg xmlns="http://www.w3.org/2000/svg" viewBox="0 0 128 128"><title>game-capture</title><path d="M122.957,27.915H5.043A5.043,5.043,0,0,0,0,32.959V96.137a5.043,5.043,0,0,0,5.043,5.043H122.957A5.043,5.043,0,0,0,128,96.137V32.959A5.043,5.043,0,0,0,122.957,27.915ZM42.812,68.04a1.747,1.747,0,0,1-1.746,1.746H32.338a1.746,1.746,0,0,0-1.746,1.746V80.26a1.747,1.747,0,0,1-1.746,1.746H21.862a1.747,1.747,0,0,1-1.746-1.746V71.531a1.746,1.746,0,0,0-1.746-1.746H9.642A1.747,1.747,0,0,1,7.9,68.04V61.056A1.747,1.747,0,0,1,9.642,59.31H18.37a1.747,1.747,0,0,0,1.746-1.746V48.836a1.747,1.747,0,0,1,1.746-1.746h6.984a1.747,1.747,0,0,1,1.746,1.746v8.728a1.747,1.747,0,0,0,1.746,1.746h8.728a1.747,1.747,0,0,1,1.746,1.746Zm16.166,7.231a.806.806,0,0,1-.806.806H48.314a.807.807,0,0,1-.806-.806v-2.49a.807.807,0,0,1,.806-.806h9.857a.807.807,0,0,1,.806.806Zm17.559,0a.807.807,0,0,1-.806.806H65.873a.807.807,0,0,1-.806-.806v-2.49a.808.808,0,0,1,.806-.806H75.73a.808.808,0,0,1,.806.806ZM93.1,82.006a7.98,7.98,0,1,1,7.98-7.98A7.98,7.98,0,0,1,93.1,82.006Zm22,0a7.98,7.98,0,1,1,7.98-7.98A7.98,7.98,0,0,1,115.1,82.006Z"/></svg>