<svg xmlns="http://www.w3.org/2000/svg" viewBox="0 0 128 128"><title>gift</title><rect width="128" height="128" fill="none"/><rect width="128" height="128" fill="none"/><path d="M111.29,33.955h-4.278a21.762,21.762,0,0,0,5.147-10.481,19.181,19.181,0,0,0-4.8-16.253A21.537,21.537,0,0,0,91.218.534,30.347,30.347,0,0,0,77.061,4.221a41.033,41.033,0,0,0-13.074,13.03A41.055,41.055,0,0,0,50.906,4.221,30.347,30.347,0,0,0,36.749.528,21.532,21.532,0,0,0,20.607,7.221a19.177,19.177,0,0,0-4.792,16.256,21.765,21.765,0,0,0,5.133,10.481H16.71A16.71,16.71,0,0,0,0,50.665V67.556a16.676,16.676,0,0,0,7.185,13.7v29.51a16.71,16.71,0,0,0,16.708,16.712H104.1a16.71,16.71,0,0,0,16.711-16.709h0V81.258A16.669,16.669,0,0,0,128,67.556V50.665a16.71,16.71,0,0,0-16.71-16.71ZM85.021,18.921a13.492,13.492,0,0,1,6.2-1.678,5.165,5.165,0,0,1,3.833,1.278c1.711,1.865-.013,5.053-3.85,7.125a55.329,55.329,0,0,1-14.671,2.9A34.644,34.644,0,0,1,85.021,18.921Zm-52.109-.388a5.162,5.162,0,0,1,3.837-1.29,13.492,13.492,0,0,1,6.2,1.678,34.7,34.7,0,0,1,8.489,9.631,55.386,55.386,0,0,1-14.679-2.894c-3.833-2.077-5.559-5.272-3.847-7.13Zm22.733,92.24H23.9v-26.5H55.645Zm0-43.212H16.71v-16.9H55.645ZM104.1,110.768H72.355v-26.5H104.1Zm7.186-43.212H72.355V50.665H111.29Z"/></svg>