<svg xmlns="http://www.w3.org/2000/svg" viewBox="0 0 128 128"><title>help</title><path d="M64,0A64,64,0,0,0,11.131,100.065L4.813,119.732A5.613,5.613,0,0,0,12,126.708l18.73-8.028A64,64,0,1,0,64,0Zm8.269,106.654a5.36,5.36,0,0,1-5.36,5.36H59.962a5.36,5.36,0,0,1-5.36-5.36V98.865a5.36,5.36,0,0,1,5.36-5.36h6.947a5.36,5.36,0,0,1,5.36,5.36ZM82.6,64.9c-6.611,4.446-11.3,6.971-11.3,14.422v.645a5.363,5.363,0,0,1-5.36,5.365h-5.5a5.359,5.359,0,0,1-5.36-5.323c0-.433,0-.828,0-1.167,0-11.057,5.167-16.826,13.58-22.234,5.769-3.846,9.134-8.172,9.134-14.423,0-7.09-6.37-12.018-14.782-12.018-7.01,0-12.6,4-14.48,11.042a5.292,5.292,0,0,1-5.958,3.759l-5.749-.894a5.384,5.384,0,0,1-4.376-6.621c3.31-13.625,16.118-21.467,32-21.467,18.149,0,31.249,10.7,31.249,24.878C95.7,52.162,91.377,59.012,82.6,64.9Z"/></svg>