<svg xmlns="http://www.w3.org/2000/svg" viewBox="0 0 128 128"><title>hide</title><path d="M125.126,24.476c-22.89-.692-52.985-6.987-52.985-6.987l.035.017a55.008,55.008,0,0,0-42.815,7.475l6.324,6.324A49.12,49.12,0,0,1,59.576,25.44c27.281,0,46.334,19.053,46.334,46.334a49.12,49.12,0,0,1-5.865,23.891l6.324,6.324a55.38,55.38,0,0,0,8.965-30.215c0-.3-.04-.584-.044-.879,1.432-16.421,4.792-33.114,11.211-40.725C129.466,26.653,127.513,24.548,125.126,24.476Z"/><path d="M3.44,31.823l9.492,9.492a55.41,55.41,0,0,0-6.4,47.575c.978,5.3-4.65,20.069-6.393,25.782-1.031,3.378,3.947,4.853,5.764,4.607a71.636,71.636,0,0,1,27.488,1.691,55.49,55.49,0,0,0,56.644-2.553L100.9,129.284l8.33-8.33L11.77,23.494Zm55.743,80.2c2.169,0,6.466-5.713,9.813-14.64L83.713,112.1a49.011,49.011,0,0,1-24.137,6.011c-27.281,0-46.334-19.053-46.334-46.334a49.011,49.011,0,0,1,6.011-24.137L44.772,73.155C45.153,94.721,55.693,112.019,59.183,112.019Z"/><path d="M59.183,31.921c-1.7-.1-5.816,5.235-9.224,13.658L73.54,69.161C72.625,48.374,61.924,32.1,59.183,31.921Z"/></svg>