<svg xmlns="http://www.w3.org/2000/svg" viewBox="0 0 128 128"><title>image</title><path d="M35.339,88.7,22.053,106.538a1.678,1.678,0,0,0,1.33,2.684l26.528-.049a1.677,1.677,0,0,0,1.327-2.681L38,88.7a1.654,1.654,0,0,0-2.657,0"/><path d="M71.9,62.668,41.767,103.135a3.805,3.805,0,0,0,3.017,6.088l60.163-.11a3.8,3.8,0,0,0,3.009-6.08L77.926,62.668a3.751,3.751,0,0,0-6.026,0"/><ellipse cx="43.316" cy="41.236" rx="20.504" ry="20.687"/><path d="M10.667,0A10.718,10.718,0,0,0,0,10.762V117.238A10.718,10.718,0,0,0,10.667,128H117.333A10.718,10.718,0,0,0,128,117.238V10.762A10.718,10.718,0,0,0,117.333,0ZM110.882,13.684a3.573,3.573,0,0,1,3.556,3.587v93.458a3.573,3.573,0,0,1-3.556,3.587H17.118a3.573,3.573,0,0,1-3.556-3.587V17.271a3.573,3.573,0,0,1,3.556-3.587"/></svg>