<svg xmlns="http://www.w3.org/2000/svg" viewBox="0 0 128 128"><title>keyborad</title><path d="M122.957,27.367H5.043A5.043,5.043,0,0,0,0,32.411V95.589a5.043,5.043,0,0,0,5.043,5.043H122.957A5.043,5.043,0,0,0,128,95.589V32.411A5.043,5.043,0,0,0,122.957,27.367ZM77.21,37.929H92.471V53.19H77.21Zm0,22.646H92.471V75.836H77.21ZM56.369,37.929H71.631V53.19H56.369Zm0,22.646H71.631V75.836H56.369ZM35.529,37.929H50.79V53.19H35.529Zm0,22.646H50.79V75.836H35.529ZM14.688,37.929H29.95V53.19H14.688Zm0,22.646H29.95V75.836H14.688Zm98.623,32.937H14.688v-10.7h98.623Zm0-17.676H98.051V60.575h15.261Zm0-22.646H98.051V37.929h15.261Z"/></svg>