<svg xmlns="http://www.w3.org/2000/svg" viewBox="0 0 128 128"><title>live</title><path d="M96.079,35.417l-.219-.287L89.975,41l.157.217a40.745,40.745,0,0,1-.089,48.964l-.16.217,5.878,5.861.219-.286a49.2,49.2,0,0,0,.1-60.557Z"/><path d="M111.631,24.4l-.221-.261-5.821,5.807.182.22a54.384,54.384,0,0,1-.1,71.064l-.185.221,5.572,5.561.244.24.221-.259a62.63,62.63,0,0,0,.1-82.593Z"/><path d="M31.849,35.417l.219-.287L37.953,41l-.157.217a40.745,40.745,0,0,0,.088,48.964l.16.217-5.878,5.861-.219-.286a49.2,49.2,0,0,1-.1-60.557Z"/><path d="M16.3,24.4l.221-.261,5.821,5.807-.182.22a54.384,54.384,0,0,0,.1,71.064l.185.221-5.572,5.561-.244.24-.221-.259A62.63,62.63,0,0,1,16.3,24.4Z"/><circle cx="64.035" cy="67.288" r="20.234"/></svg>