<svg xmlns="http://www.w3.org/2000/svg" viewBox="0 0 128 128"><title>lock</title><path d="M69.063,86.649v21.14a3.373,3.373,0,0,1-3.375,3.368H62.312a3.373,3.373,0,0,1-3.375-3.368V86.649a15.129,15.129,0,0,1-9.571-18.392,14.956,14.956,0,0,1,10.5-10.449,15.142,15.142,0,0,1,9.193,28.84M57.25,23.579h13.5a3.369,3.369,0,0,1,3.375,3.368V40.421H53.875V26.947a3.369,3.369,0,0,1,3.375-3.368m50.625,16.842H91V16.842A10.119,10.119,0,0,0,80.875,6.737H47.125A10.119,10.119,0,0,0,37,16.842V40.421H20.125A10.119,10.119,0,0,0,10,50.526v67.368A10.119,10.119,0,0,0,20.125,128h87.75A10.119,10.119,0,0,0,118,117.895V50.526a10.119,10.119,0,0,0-10.125-10.105"/></svg>