<svg xmlns="http://www.w3.org/2000/svg" viewBox="0 0 128 128"><title>log-in</title><path d="M19,10.764V35.653a3.565,3.565,0,0,0,3.571,3.556H33.286a3.565,3.565,0,0,0,3.571-3.556V21.431a3.565,3.565,0,0,1,3.571-3.556H87.571a3.565,3.565,0,0,1,3.571,3.556v85.333a3.565,3.565,0,0,1-3.571,3.556H40.429a3.565,3.565,0,0,1-3.571-3.556V92.542a3.565,3.565,0,0,0-3.571-3.556H22.572A3.565,3.565,0,0,0,19,92.542v24.889A10.694,10.694,0,0,0,29.715,128.1h68.57A10.694,10.694,0,0,0,109,117.431V10.764A10.694,10.694,0,0,0,98.285.1H29.715A10.694,10.694,0,0,0,19,10.764"/><path d="M58.13,40.278a3.9,3.9,0,0,0-6.67,2.738v8.54A3.557,3.557,0,0,1,47.9,55.112H15.748a3.552,3.552,0,0,0-3.556,3.556V69.334a3.552,3.552,0,0,0,3.556,3.556H47.9a3.557,3.557,0,0,1,3.556,3.556v8.54a3.9,3.9,0,0,0,6.67,2.738L78.752,66.8a4.018,4.018,0,0,0,0-5.611L58.13,40.278"/></svg>