<svg xmlns="http://www.w3.org/2000/svg" viewBox="0 0 128 128"><title>log-out</title><path d="M36.667,10.667V35.556a3.565,3.565,0,0,0,3.571,3.556H50.953a3.565,3.565,0,0,0,3.571-3.556V21.333A3.565,3.565,0,0,1,58.1,17.778h47.142a3.565,3.565,0,0,1,3.571,3.556v85.333a3.565,3.565,0,0,1-3.571,3.556H58.1a3.565,3.565,0,0,1-3.571-3.556V92.444a3.565,3.565,0,0,0-3.571-3.556H40.239a3.565,3.565,0,0,0-3.571,3.556v24.889A10.694,10.694,0,0,0,47.381,128h68.57a10.694,10.694,0,0,0,10.714-10.667V10.667A10.694,10.694,0,0,0,115.952,0H47.381A10.694,10.694,0,0,0,36.667,10.667"/><path d="M23.29,40.278a3.9,3.9,0,0,1,6.67,2.738v8.54a3.557,3.557,0,0,0,3.556,3.556H65.671a3.552,3.552,0,0,1,3.556,3.556V69.334a3.552,3.552,0,0,1-3.556,3.556H33.516a3.557,3.557,0,0,0-3.556,3.556v8.54a3.9,3.9,0,0,1-6.67,2.738L2.668,66.8a4.018,4.018,0,0,1,0-5.611L23.29,40.278"/></svg>