<svg xmlns="http://www.w3.org/2000/svg" viewBox="0 0 128 128"><title>manual-extention</title><rect width="128" height="128" fill="none"/><path d="M128,20.424v4.981a2.513,2.513,0,0,1-2.535,2.49h-11v10.79a2.516,2.516,0,0,1-2.539,2.49h-5.08a2.516,2.516,0,0,1-2.539-2.49V27.9h-11a2.513,2.513,0,0,1-2.539-2.486V20.424A2.511,2.511,0,0,1,93.3,17.935h11V7.145a2.515,2.515,0,0,1,2.539-2.49h5.078a2.514,2.514,0,0,1,2.541,2.489h0v10.79h11A2.513,2.513,0,0,1,128,20.423ZM97.746,74.471A48.873,48.873,0,1,1,48.871,25.6h0A48.886,48.886,0,0,1,97.746,74.473Zm-13.03,0a35.841,35.841,0,1,0-35.84,35.84h0A35.875,35.875,0,0,0,84.713,74.473ZM58.647,53.7V82.211a2.08,2.08,0,0,1-2.121,2.038l-.05,0H34.754a2.08,2.08,0,0,1-2.171-1.986V78.138A2.08,2.08,0,0,1,34.7,76.1l.05,0h15.2V53.7a2.079,2.079,0,0,1,2.121-2.038l.05,0h4.345a2.081,2.081,0,0,1,2.173,1.983Z" transform="translate(0)"/><rect width="128" height="128" fill="none"/></svg>