<svg xmlns="http://www.w3.org/2000/svg" viewBox="0 0 128 128"><title>maximize</title><path d="M117.333,0H10.667A10.718,10.718,0,0,0,0,10.762V117.238A10.718,10.718,0,0,0,10.667,128H117.333A10.718,10.718,0,0,0,128,117.238V10.762A10.718,10.718,0,0,0,117.333,0ZM54.452,103.936A3.45,3.45,0,0,1,51,107.386H30.962A10.378,10.378,0,0,1,20.615,97.038V76a3.45,3.45,0,0,1,3.449-3.449H34.411A3.45,3.45,0,0,1,37.86,76V86.691a3.45,3.45,0,0,0,3.449,3.449H51a3.45,3.45,0,0,1,3.449,3.449Zm0-69.525A3.45,3.45,0,0,1,51,37.86H41.309a3.45,3.45,0,0,0-3.449,3.449V52a3.45,3.45,0,0,1-3.449,3.449H24.064A3.45,3.45,0,0,1,20.615,52V30.962A10.378,10.378,0,0,1,30.962,20.614H51a3.45,3.45,0,0,1,3.449,3.449Zm52.933,62.627a10.378,10.378,0,0,1-10.347,10.347H76a3.45,3.45,0,0,1-3.449-3.449V93.589A3.45,3.45,0,0,1,76,90.14H86.691a3.45,3.45,0,0,0,3.449-3.449V76a3.45,3.45,0,0,1,3.449-3.449h10.347A3.45,3.45,0,0,1,107.385,76Zm0-45.035a3.45,3.45,0,0,1-3.449,3.449H93.589A3.45,3.45,0,0,1,90.14,52V41.309a3.45,3.45,0,0,0-3.449-3.449H76a3.45,3.45,0,0,1-3.449-3.449V24.064A3.45,3.45,0,0,1,76,20.614H97.038a10.378,10.378,0,0,1,10.347,10.347Z"/></svg>