<svg xmlns="http://www.w3.org/2000/svg" viewBox="0 0 128 128"><title>media</title><path d="M10.667,0A10.718,10.718,0,0,0,0,10.762V117.238A10.718,10.718,0,0,0,10.667,128H117.333A10.718,10.718,0,0,0,128,117.238V10.762A10.718,10.718,0,0,0,117.333,0ZM110.882,13.684a3.573,3.573,0,0,1,3.556,3.587v93.458a3.573,3.573,0,0,1-3.556,3.587H17.118a3.573,3.573,0,0,1-3.556-3.587V17.271a3.573,3.573,0,0,1,3.556-3.587"/><path d="M77.948,90.285H35.2V45.1H79.984V88.231a2.046,2.046,0,0,1-2.036,2.054M103.5,51.37,90.163,58.1V38.934a4.1,4.1,0,0,0-4.071-4.107H29.087a4.1,4.1,0,0,0-4.071,4.107V96.447a4.1,4.1,0,0,0,4.071,4.107H86.092a4.1,4.1,0,0,0,4.071-4.107V77.279L106.45,85.5V53.21a2.04,2.04,0,0,0-2.948-1.84"/><path d="M106.45,33.8a7.126,7.126,0,1,1-7.125-7.189A7.157,7.157,0,0,1,106.45,33.8"/></svg>