<svg width="24" height="24" viewBox="0 0 24 24" xmlns="http://www.w3.org/2000/svg">
<path d="M12 13.75C12.9665 13.75 13.75 12.9665 13.75 12C13.75 11.0335 12.9665 10.25 12 10.25C11.0335 10.25 10.25 11.0335 10.25 12C10.25 12.9665 11.0335 13.75 12 13.75Z" fill="black"/>
<path d="M19.3184 5.36955L12.5205 2.11965C12.1894 1.95945 11.8135 1.96145 11.4824 2.11765L4.6816 5.36955C4.2675 5.56775 4 5.99355 4 6.45255V11.9924C4 17.1262 6.8867 20.8554 11.7246 21.9688C11.8144 21.9893 11.9072 22 12 22C12.0928 22 12.1855 21.9893 12.2773 21.9688C17.1132 20.8554 20 17.126 20 11.9924V6.45255C20 5.99355 19.7324 5.56775 19.3184 5.36955ZM15.75 12C15.75 12.2551 15.7234 12.5043 15.6746 12.7455L16.7046 13.4932C16.7874 13.5533 16.8115 13.6663 16.7603 13.7549L15.8978 15.2488C15.8481 15.3348 15.7334 15.3718 15.6427 15.3313L14.465 14.8032C14.0969 15.1273 13.6679 15.3762 13.1936 15.5371L13.0591 16.8208C13.0484 16.9226 12.9625 17 12.8602 17H11.1352C11.0359 17 10.9464 16.9192 10.9362 16.8203L10.8047 15.5366C10.3305 15.3757 9.9017 15.1264 9.5336 14.8022L8.3544 15.3277C8.2608 15.3693 8.151 15.3337 8.0998 15.2451L7.2373 13.7512C7.1877 13.6651 7.2129 13.5472 7.2934 13.489L8.325 12.7438C8.2764 12.5033 8.2497 12.2547 8.2497 12C8.2497 11.7449 8.2763 11.4957 8.3251 11.2546L7.2951 10.5068C7.2123 10.4467 7.1882 10.3337 7.2394 10.2451L8.1019 8.75125C8.1516 8.66515 8.2663 8.62805 8.357 8.66875L9.5347 9.19685C9.9028 8.87275 10.3318 8.62385 10.806 8.46295L10.9405 7.17925C10.9512 7.07745 11.0371 7.00005 11.1394 7.00005H12.8644C12.9637 7.00005 13.0532 7.08085 13.0634 7.17975L13.1949 8.46345C13.6691 8.62435 14.0979 8.87365 14.466 9.19785L15.6452 8.67235C15.7388 8.63075 15.8486 8.66635 15.8998 8.75495L16.7623 10.2488C16.8119 10.3348 16.7867 10.4528 16.7062 10.5109L15.6746 11.2563C15.7232 11.4969 15.75 11.7453 15.75 12Z"/>
</svg>
