<svg xmlns="http://www.w3.org/2000/svg" viewBox="0 0 128 128"><title>mic</title><path d="M64,0C41.91,0,24,11.132,24,24.858V74.575c0,11.93,13.521,21.889,31.554,24.3a2.692,2.692,0,0,1,1.3,2.284v9.555a2.732,2.732,0,0,1-2.739,2.723H34.941a2.732,2.732,0,0,0-2.739,2.723V128H95.8V116.158a2.732,2.732,0,0,0-2.739-2.723H73.886a2.732,2.732,0,0,1-2.739-2.723v-9.555a2.692,2.692,0,0,1,1.3-2.284C90.479,96.464,104,86.5,104,74.575V24.858C104,11.132,86.09,0,64,0ZM91.5,74.575C91.5,78.96,81.06,87,64,87S36.5,78.96,36.5,74.575V24.858c0-4.38,10.44-12.429,27.5-12.429s27.5,8.049,27.5,12.429ZM32.347,40.151l0,20.376l63.307,0l0,-20.376l-63.307,0Z"/></svg>
