<svg xmlns="http://www.w3.org/2000/svg" viewBox="0 0 128 128"><title>minus</title><path d="M10.667,0A10.718,10.718,0,0,0,0,10.762V117.238A10.718,10.718,0,0,0,10.667,128H117.333A10.718,10.718,0,0,0,128,117.238V10.762A10.718,10.718,0,0,0,117.333,0ZM110.882,13.684a3.573,3.573,0,0,1,3.556,3.587v93.458a3.573,3.573,0,0,1-3.556,3.587H17.118a3.573,3.573,0,0,1-3.556-3.587V17.271a3.573,3.573,0,0,1,3.556-3.587"/><path d="M10.667,0A10.718,10.718,0,0,0,0,10.762V117.238A10.718,10.718,0,0,0,10.667,128H117.333A10.718,10.718,0,0,0,128,117.238V10.762A10.718,10.718,0,0,0,117.333,0ZM110.882,13.684a3.573,3.573,0,0,1,3.556,3.587v93.458a3.573,3.573,0,0,1-3.556,3.587H17.118a3.573,3.573,0,0,1-3.556-3.587V17.271a3.573,3.573,0,0,1,3.556-3.587"/><rect x="22.644" y="55.579" width="82.713" height="16.843" rx="2.807" ry="2.807"/></svg>