<svg viewBox="0 0 24 24" xmlns="http://www.w3.org/2000/svg">
<path d="M19.3184 5.36955L12.5205 2.11965C12.1894 1.95945 11.8135 1.96145 11.4824 2.11765L4.6816 5.36955C4.2675 5.56775 4 5.99355 4 6.45255V11.9924C4 17.1262 6.8867 20.8554 11.7246 21.9688C11.8144 21.9893 11.9072 22 12 22C12.0928 22 12.1855 21.9893 12.2773 21.9688C17.1132 20.8554 20 17.126 20 11.9924V6.45255C20 5.99355 19.7324 5.56775 19.3184 5.36955ZM16.4419 10.6628L14.3794 12.7375L15.1107 15.7536C15.1509 15.9197 14.9773 16.0559 14.826 15.977L12.0916 14.5522C12.0341 14.5223 11.9657 14.5223 11.9083 14.5522L9.1739 15.977C9.0226 16.056 8.849 15.9197 8.8892 15.7536L9.5942 12.8458C9.6106 12.7786 9.5907 12.7075 9.542 12.6584L7.5581 10.6628C7.4436 10.5476 7.5078 10.351 7.6681 10.3259L10.4229 9.89455C10.4881 9.88445 10.5441 9.84235 10.5721 9.78245L11.8201 7.11445C11.8916 6.96175 12.1084 6.96175 12.1798 7.11445L13.4278 9.78245C13.4558 9.84225 13.5117 9.88435 13.577 9.89455L16.3318 10.3259C16.4921 10.351 16.5564 10.5476 16.4419 10.6628Z"/>
</svg>
