<svg xmlns="http://www.w3.org/2000/svg" viewBox="0 0 128 128"><title>mute</title><path d="M64.644,19.576a6.338,6.338,0,0,0-9.164-5.671l-15.031,10.9L64.644,49Z"/><path d="M15.069,12.43,7.763,19.736,22.345,34.319H6.4a6.4,6.4,0,0,0-6.4,6.4V87.666a6.4,6.4,0,0,0,6.4,6.4H27.336L55.48,114.482a6.338,6.338,0,0,0,9.164-5.671V76.618L83.387,95.361q-1.526,2.505-3.321,4.89l-.235.32,8.655,8.631.322-.421c1.188-1.517,2.284-3.081,3.334-4.664l7.827,7.827c-1.132,1.549-2.3,3.081-3.553,4.576l-.272.325,8.206,8.189.359.354.326-.381a100.787,100.787,0,0,0,6.913-9.123l3.287-3.287Z"/><path d="M105.187,3.385,104.861,3,96.29,11.552l.268.323c12.683,15.259,19.386,33.32,19.386,52.232a78.84,78.84,0,0,1-6.005,30.19l9.147,9.147A90.95,90.95,0,0,0,128,64.107C128,41.975,120.109,20.978,105.187,3.385Z"/><path d="M91.084,75.443l9.94,9.94a72.435,72.435,0,0,0-12.07-65.774h0l-.322-.423-8.666,8.644.232.32A59.976,59.976,0,0,1,91.084,75.443Z"/></svg>