<svg xmlns="http://www.w3.org/2000/svg" viewBox="0 0 128 128"><title>n-air</title><path d="M43.022,32.217H53.728V20.429H43.022a4.786,4.786,0,0,0-4.786,4.786v2.216A4.786,4.786,0,0,0,43.022,32.217Z"/><path d="M89.51,27.431V25.215a4.786,4.786,0,0,0-4.786-4.786H74.018V32.217H84.724A4.786,4.786,0,0,0,89.51,27.431Z"/><path d="M32.04,72.874h0c1.5,4.087,4.861,6.906,9.271,8.606,6.069,2.39,14.192,3.05,23.03,3.054s16.793-.666,22.7-3.059c4.291-1.7,7.517-4.529,8.957-8.6a8.578,8.578,0,1,0-2.991-16.692,26.564,26.564,0,0,0-5.914-5.993,37.516,37.516,0,0,0-17.709-6.755h0v-23H58.362V43.46a37.433,37.433,0,0,0-17.453,6.726,26.551,26.551,0,0,0-5.914,5.993,8.5,8.5,0,0,0-2.653-.46,8.58,8.58,0,0,0-.3,17.156Zm66.948-8.565a3.328,3.328,0,0,1-2.173,3.111c0,.105.021.206.021.312a19.033,19.033,0,0,0-1.272-6.739c.032,0,.062-.01.095-.01A3.336,3.336,0,0,1,98.988,64.309ZM36.22,67.773v-.04c0-5.02,2.734-9.81,7.7-13.487C49.237,50.3,56.368,48.13,64,48.128s14.763,2.175,20.083,6.12c4.964,3.677,7.7,8.466,7.7,13.416l0,.116v.04c.006,2.717-.671,6.6-6.637,8.97-4.513,1.828-11.124,2.682-20.8,2.689-9.779,0-16.509-.863-21.215-2.716-6.2-2.391-6.915-6.257-6.91-8.885Zm-3.878-6.79c.033,0,.063.009.1.01h0a19.043,19.043,0,0,0-1.272,6.739c0-.105.019-.206.021-.311a3.321,3.321,0,0,1,1.156-6.437Zm1.215-2.468-.008.016Z"/><circle cx="50.382" cy="62.494" r="3.502"/><circle cx="77.618" cy="62.494" r="3.502"/><path d="M59.209,72.557a.156.156,0,0,0,.031,0,8.567,8.567,0,0,0,4.634-2.047,8.558,8.558,0,0,0,4.634,2.047.252.252,0,0,0,.292-.23l.337-2.929a.263.263,0,0,0-.058-.2A.258.258,0,0,0,68.9,69.1a4.967,4.967,0,0,1-3.842-2.314h0a1.435,1.435,0,0,0-2.361,0A4.984,4.984,0,0,1,58.849,69.1a.258.258,0,0,0-.181.095.263.263,0,0,0-.058.2l.337,2.929A.263.263,0,0,0,59.209,72.557Z"/><path d="M41.261,93.05a8.023,8.023,0,0,0-2.269-1.741,12,12,0,0,0-2.655-.976,12.282,12.282,0,0,0-5.629,0,11.978,11.978,0,0,0-2.65.976A7.777,7.777,0,0,0,25.8,93.052a4.3,4.3,0,0,0-1.1,2.708V105.4a1.936,1.936,0,0,0,.659,1.491,2.217,2.217,0,0,0,1.542.579H26.9a2.049,2.049,0,0,0,2.046-2.07l0-8.79a1.674,1.674,0,0,1,.523-1.152,4.306,4.306,0,0,1,1.187-.8,6.659,6.659,0,0,1,1.4-.458,7.1,7.1,0,0,1,2.931,0,6.751,6.751,0,0,1,1.4.458,4.327,4.327,0,0,1,1.187.8,1.665,1.665,0,0,1,.523,1.131V105.4a1.935,1.935,0,0,0,.657,1.491,2.223,2.223,0,0,0,1.544.579h.007a2.084,2.084,0,0,0,2.07-2.07l0-9.657A4.239,4.239,0,0,0,41.261,93.05Z"/><path d="M79.753,95.835H79.74a2.156,2.156,0,0,0-1.509.583,2.046,2.046,0,0,0-.67,1.488V105.4a1.935,1.935,0,0,0,.659,1.491,2.206,2.206,0,0,0,1.542.579h.007a2.085,2.085,0,0,0,2.072-2.07V97.894A2.068,2.068,0,0,0,81.2,96.45,2.133,2.133,0,0,0,79.753,95.835Z"/><path d="M71.09,91.828a8.632,8.632,0,0,0-2.529-1.343,14.684,14.684,0,0,0-3.592-.452,18.892,18.892,0,0,0-3.988.437,8.849,8.849,0,0,0-2.544,1.258,7.087,7.087,0,0,0-1.886,2.016,5.137,5.137,0,0,0-.741,2.743v8.959a1.977,1.977,0,0,0,.588,1.436,2,2,0,0,0,3.426-1.436v-3.72h9.867v3.72a2,2,0,0,0,.588,1.436,2.01,2.01,0,0,0,2.845,0,1.978,1.978,0,0,0,.584-1.433V96.83a5.62,5.62,0,0,0-.741-2.867A7.211,7.211,0,0,0,71.09,91.828Zm-1.4,5.864H59.826v-.122a3.63,3.63,0,0,1,.393-1.815,3.2,3.2,0,0,1,.955-1.082,3.275,3.275,0,0,1,1.251-.544,22.9,22.9,0,0,1,2.544-.153,16.314,16.314,0,0,1,2.129.153,3.265,3.265,0,0,1,2.208,1.627,3.685,3.685,0,0,1,.387,1.814Z"/><path d="M50.8,97.7H46.67a2.011,2.011,0,1,0,0,4.023H50.8a2.011,2.011,0,1,0,0-4.023Z"/><path d="M80.23,90.009H79.17a1.984,1.984,0,1,0,0,3.967h1.06a1.984,1.984,0,1,0,0-3.967Z"/><path d="M100.348,101.544a5.746,5.746,0,0,0,3.807-5.367c0-3.039-2.482-5.364-5.814-5.364H87.889a2.149,2.149,0,0,0-1.509.583,2.051,2.051,0,0,0-.67,1.488V105.4a1.936,1.936,0,0,0,.659,1.492,2.213,2.213,0,0,0,1.542.578h.007a2.069,2.069,0,0,0,2.066-2.029V94.854h8.357c1.188,0,1.773.621,1.773,1.324a1.732,1.732,0,0,1-1.773,1.679H94.984a2.027,2.027,0,0,0-2.02,2.021,2.371,2.371,0,0,0,.824,1.707L101,107.15a2.02,2.02,0,1,0,2.468-3.2Z"/><path d="M107.466,40.292a.263.263,0,0,0-.192-.1.246.246,0,0,0-.2.076l-4.211,4.211a.263.263,0,0,0-.027.34,31.67,31.67,0,0,1-.07,37.982.264.264,0,0,0,.027.341l4.205,4.206a.263.263,0,0,0,.186.077h.017a.263.263,0,0,0,.192-.1,38.281,38.281,0,0,0,.076-47.027Z"/><path d="M25.238,82.8a31.67,31.67,0,0,1-.07-37.982.263.263,0,0,0-.027-.34L20.93,40.265a.24.24,0,0,0-.2-.076.263.263,0,0,0-.192.1,38.281,38.281,0,0,0,.076,47.027.263.263,0,0,0,.192.1h.017a.263.263,0,0,0,.186-.077l4.205-4.206A.264.264,0,0,0,25.238,82.8Z"/><path d="M6.378,63.758a42.771,42.771,0,0,1,10.187-27.52.264.264,0,0,0-.016-.354l-4.163-4.162a.3.3,0,0,0-.2-.077.261.261,0,0,0-.189.094,48.719,48.719,0,0,0,.081,64.131.265.265,0,0,0,.19.093h.01a.263.263,0,0,0,.186-.077l4.159-4.159a.264.264,0,0,0,.016-.355A42.774,42.774,0,0,1,6.378,63.758Z"/><path d="M116,31.739a.261.261,0,0,0-.189-.094.288.288,0,0,0-.2.077l-4.163,4.162a.264.264,0,0,0-.016.354,42.271,42.271,0,0,1-.076,55.133.264.264,0,0,0,.016.355l4.159,4.159a.263.263,0,0,0,.186.077h.01a.265.265,0,0,0,.19-.093A48.721,48.721,0,0,0,116,31.739Z"/></svg>