<svg xmlns="http://www.w3.org/2000/svg" viewBox="0 0 24 24">
    <title>なまこ</title>
    <path d="M10.243,16.44,9.07,17.731a.267.267,0,0,0,.2.447h2.5a.267.267,0,0,0,.2-.447L10.789,16.44A.369.369,0,0,0,10.243,16.44Z"/>
    <path d="M12.909,14.117a1.148,1.148,0,1,0,1.148-1.148A1.148,1.148,0,0,0,12.909,14.117Z"/>
    <path d="M5.716,15.155a1.149,1.149,0,1,0,1.149-1.148A1.149,1.149,0,0,0,5.716,15.155Z"/>
    <path d="M4.709,20.761a1.241,1.241,0,0,0,1.3,1.229h8.1c2.917,0,5.2-2.856,5.2-6.5s-2.285-6.5-5.2-6.5l-2.334,0v-.7a3.239,3.239,0,1,0-2.135,0v.693H6.009A1.277,1.277,0,0,0,4.7,10.249a1.261,1.261,0,0,0,1.308,1.245h8.2c1.437,0,2.656,1.831,2.656,3.986s-1.219,4.072-2.656,4.072h-8.2A1.226,1.226,0,0,0,4.709,20.761ZM11.927,5.249a1.219,1.219,0,1,1-1.219-1.218A1.218,1.218,0,0,1,11.927,5.249Z"/>
</svg>
