<svg xmlns="http://www.w3.org/2000/svg" viewBox="0 0 128 128"><title>NDI</title><path d="M96.587,66.831c-2.5-4.266-7.336-6.428-14.373-6.428H67.393v47.2H82.214c7.421,0,12.658-3.678,15.564-10.935a36.053,36.053,0,0,0,2.253-13.334C100.031,76.185,98.9,70.787,96.587,66.831ZM93.846,95.095c-1.573,3.927-3.934,6.423-7.151,7.557A107.611,107.611,0,0,0,71.627,76V64.637H82.214c5.5,0,9.01,1.418,10.72,4.334,1.9,3.243,2.863,8.075,2.863,14.36A31.9,31.9,0,0,1,93.846,95.095Z"/><path d="M117.333,0H10.667A10.718,10.718,0,0,0,0,10.762v2.181c31.453.094,60.019,13.78,81.2,36.027H40.552v.567A86.614,86.614,0,0,0,0,39.232v79.8H17.053v-1.245A32.065,32.065,0,0,1,25.368,128H47.854a58.73,58.73,0,0,0-3.3-8.965H70.164A87.766,87.766,0,0,1,72.305,128H93.379c-.466-3.289-1.092-6.518-1.833-9.7a25.227,25.227,0,0,0,16.9-12.607,36.411,36.411,0,0,0,1.649-3.265v16.6h5.908c.523,2.957.984,5.94,1.323,8.965h0a10.694,10.694,0,0,0,10.506-8.965H128V10.762A10.718,10.718,0,0,0,117.333,0ZM40.552,75.874V88.99L29.188,69.028A72,72,0,0,1,40.552,75.874Zm-23.5,16.1V78.153L29.041,99.047A48.868,48.868,0,0,0,17.053,91.976ZM53.37,114.8H42.961L12.818,62.263V114.8H4.235V53.2H15.307l29.48,51.784V53.2H53.37Zm51.418-11.23c-4.4,7.557-11.023,11.23-20.25,11.23H58.273V53.2H84.508a32.777,32.777,0,0,1,9.559,1.323h0a19.505,19.505,0,0,1,10.146,7.555,27.319,27.319,0,0,1,4.36,9.867,49.144,49.144,0,0,1,1.2,10.445C109.776,90.73,108.1,97.856,104.788,103.57Zm18.977,11.23h-9.432V53.2h9.432Z"/></svg>