<svg xmlns="http://www.w3.org/2000/svg" viewBox="0 0 128 128"><title>browser</title><path d="M55.1,69.86c.392.061.768.122,1.07.163,1.2.172,2.781.319,4.415.417V65.617c0-1.515,0-2.786,0-3.794C58.541,63.366,56.568,66.229,55.1,69.86Z"/><path d="M55.11,106.478c1.576,3.766,3.484,6.531,5.473,8.043v-3.778c0-1.793,0-3.57-.008-4.857C58.721,106,56.944,106.188,55.11,106.478Z"/><path d="M52.088,83.008c-.049.547-.094,1.177-.126,1.752h8.622V77.233a60.264,60.264,0,0,1-7.495-.837A54.647,54.647,0,0,0,52.088,83.008Z"/><path d="M50.266,64.158a27.54,27.54,0,0,0-4.244,2.994c-.069.061-.151.131-.241.212.841.335,1.732.65,2.642.94C48.976,66.883,49.654,65.359,50.266,64.158Z"/><path d="M45.205,84.377A60.657,60.657,0,0,1,46.5,74.815a46.452,46.452,0,0,1-4.955-1.9c-.147-.065-.31-.143-.47-.22A27.7,27.7,0,0,0,36.55,84.76h8.635C45.193,84.634,45.2,84.5,45.205,84.377Z"/><path d="M72.894,69.869c-.233-.564-.5-1.176-.772-1.74A17.43,17.43,0,0,0,67.4,61.81v8.643c1.606-.094,3.435-.278,4.9-.494C72.486,69.934,72.686,69.905,72.894,69.869Z"/><path d="M47.619,108.308c-.576.192-1.217.437-1.817.678.118.11.233.208.339.294a27.643,27.643,0,0,0,4.133,2.9,40.119,40.119,0,0,1-1.846-4.142C48.142,108.132,47.861,108.222,47.619,108.308Z"/><path d="M45.173,91.581H36.542a27.971,27.971,0,0,0,4.4,11.862c.041.065.086.135.139.208a44.553,44.553,0,0,1,5.412-2.107A62.39,62.39,0,0,1,45.173,91.581Z"/><path d="M53.084,99.951c.629-.11,1.274-.217,1.724-.282,1.748-.257,3.525-.429,5.775-.56V91.581H51.945A59.6,59.6,0,0,0,53.084,99.951Z"/><path d="M81.488,74.807A62.912,62.912,0,0,1,82.8,84.76h8.638A27.758,27.758,0,0,0,86.9,72.687,44.365,44.365,0,0,1,81.488,74.807Z"/><path d="M67.4,105.894v8.635a.274.274,0,0,0,.041-.033c2.054-1.548,3.962-4.358,5.449-8.005-1.748-.266-3.7-.482-5.367-.589C67.487,105.9,67.446,105.9,67.4,105.894Z"/><path d="M0,44.7v72.631A10.666,10.666,0,0,0,10.667,128H117.339a10.666,10.666,0,0,0,10.667-10.667V44.7ZM96.809,98.611a36.372,36.372,0,0,1-4.779,9.537,34.922,34.922,0,0,1-15.349,12.033,34.71,34.71,0,0,1-32.509-3.86,35.5,35.5,0,0,1-9.018-9.337,34.578,34.578,0,0,1-.392-37.009,35.238,35.238,0,0,1,10.4-10.632,34.888,34.888,0,0,1,11.886-4.9,37.217,37.217,0,0,1,5.048-.662c.951-.065,4.464.029,5.432.135a34.138,34.138,0,0,1,18.135,7.5,44.977,44.977,0,0,1,4.808,4.734,34.435,34.435,0,0,1,6.343,32.463Z"/><path d="M79.58,108.038a36.967,36.967,0,0,1-1.879,4.154,27.549,27.549,0,0,0,4.367-3.092c.041-.037.09-.078.139-.123a.177.177,0,0,0-.041-.016C81.517,108.7,80.467,108.328,79.58,108.038Z"/><path d="M82.783,91.978a58.727,58.727,0,0,1-1.287,9.55,42.607,42.607,0,0,1,5.416,2.12,27.412,27.412,0,0,0,4.521-12.066H82.8C82.8,91.713,82.791,91.847,82.783,91.978Z"/><path d="M67.4,99.1a67.191,67.191,0,0,1,7.483.853c.224-1.074.49-2.446.629-3.415.217-1.466.417-3.447.515-4.959H67.4Z"/><path d="M81.97,67.447l.229-.09a28.8,28.8,0,0,0-4.481-3.194A38.093,38.093,0,0,1,79.56,68.3C80.385,68.035,81.333,67.7,81.97,67.447Z"/><path d="M67.4,77.233V84.76h8.627A52.475,52.475,0,0,0,74.9,76.4,61.433,61.433,0,0,1,67.4,77.233Z"/><path d="M117.339,0H10.667A10.666,10.666,0,0,0,0,10.667V33.6H128.007V10.667A10.666,10.666,0,0,0,117.339,0ZM16.564,25.355A9.634,9.634,0,1,1,26.2,15.721,9.634,9.634,0,0,1,16.564,25.355Zm24.736,0a9.634,9.634,0,1,1,9.634-9.634A9.634,9.634,0,0,1,41.3,25.355Zm24.736,0a9.634,9.634,0,1,1,9.634-9.634A9.633,9.633,0,0,1,66.036,25.355Z"/></svg>