<svg xmlns="http://www.w3.org/2000/svg" viewBox="0 0 128 128"><title>nicolive</title><path d="M127.452,63.969a63.033,63.033,0,0,0-3.65-20.994l2.113-7.3.054-.371a1.816,1.816,0,0,0-1.008-1.733,2.311,2.311,0,0,0-2.48.6l-1.663,1.642A64.137,64.137,0,0,0,90.58,6.251c-.052-.193-.086-.387-.152-.579A8.126,8.126,0,0,0,85.414.656a8.548,8.548,0,0,0-7.878,1.151A63.406,63.406,0,0,0,9.585,30.565a2.111,2.111,0,0,0-2.191-.2l-1.035.771.3,1.044h0c.023.079.281.939.69,2.3A63.353,63.353,0,0,0,8.269,95.2a8.217,8.217,0,0,0,3.651,5.722,63.577,63.577,0,0,0,102.819,1.127c4.587-1.307,6.716-4.663,6.6-10.54,0-.114-.016-.211-.02-.323A63.291,63.291,0,0,0,127.452,63.969ZM78.07,15.833a9.435,9.435,0,0,0,4.452,1.181,8.306,8.306,0,0,0,5.3-1.9,8.45,8.45,0,0,0,.682-.651,55.814,55.814,0,0,1,26.049,27.542l-1.181,1.166L104.46,37.6a2.693,2.693,0,0,0-2.126-.458,2.312,2.312,0,0,0-1.456,1.165L93.421,62.929a2.652,2.652,0,0,0,.387,2.559c-9.669-4.871-21.41-6.57-30.113-6.57-.589,0-1.2.016-1.828.041a16.571,16.571,0,0,0,1.511-1.115c1.9-1.514,17.426-14.071,18.851-15.317a3.908,3.908,0,0,0,1.494-3.276A3.221,3.221,0,0,0,82,36.768c-.79-.446-2.843-1.452-4.641-2.332-1.362-.665-2.569-1.254-2.9-1.446l-.035-.02L75.6,27.916c1.037-4.434,2.354-10.061,2.523-10.768A2.193,2.193,0,0,0,78.07,15.833ZM10.462,35.263l.746.748c2.4,2.4,6.019,6.034,6.2,6.2a1.825,1.825,0,0,0,1.818.767L29.7,40.721c1.579,4.129,3.6,9.437,4.834,12.7-2.889-2.283-7.6-6.019-8.012-6.351a1.748,1.748,0,0,0-1.393-.431,1.9,1.9,0,0,0-1.318.864c-.222.309-2.353,3.01-4.248,5.412-1.146,1.454-2.208,2.8-2.738,3.48-.5-1.653-1.575-5.229-2.764-9.175C12.8,43.029,11.412,38.418,10.462,35.263ZM84.2,115.469a14.011,14.011,0,0,0-.213-2.391,69.6,69.6,0,0,0,7.046-.916A55.23,55.23,0,0,1,84.2,115.469Zm-5.763-2.079a8.1,8.1,0,0,1,.26,2.093,8.583,8.583,0,0,1-.211,1.922,55.121,55.121,0,0,1-29.477.005,8.584,8.584,0,0,1-.212-1.927,8.4,8.4,0,0,1,.208-1.9c.792.016,1.582.026,2.361.026,2.421,0,4.766-.065,6.948-.126,3.442-.1,6.159-.113,9.589-.065C71.078,113.46,74.689,113.505,78.435,113.39Zm-35.143,2.082a55.16,55.16,0,0,1-6.674-3.218,51.049,51.049,0,0,0,6.849,1.038A14.177,14.177,0,0,0,43.292,115.472ZM18.762,79.823c-1.829,2.856-1.911,16.013-.832,18.356.387.838.351,1.314.273,1.411-.085.113-.654.347-2.112.04h-.005c-3.309-.685-5.49-2.319-5.366-8.059.14-6.672,1.913-10.107,6.116-11.848A4.866,4.866,0,0,1,18.7,79.3a1.573,1.573,0,0,0,.278,0A1.063,1.063,0,0,1,18.762,79.823Zm89.977,11.644c.113,4.893-1.263,8.715-4.2,11.681-7.847,7.916-25.158,7.68-36.594,7.516-3.476-.048-6.226-.032-9.706.065-10.334.3-24.484.688-31.919-6.543-3.6-3.5-5.347-8.395-5.347-14.97C20.969,69.749,48.8,61.67,63.7,61.67,80.171,61.67,108.2,67.946,108.739,91.467Zm-42.2-51.82-.435-.871-.38-.085L57.7,31.36c6.107-4.639,14.325-10.871,17.343-13.131-.508,2.167-1.384,5.915-2.12,9.06l-1.271,5.417a1.9,1.9,0,0,0,1.1,2.509,3.667,3.667,0,0,1,.333.164c.352.2,1.623.826,3.061,1.529,1.741.852,3.733,1.825,4.5,2.257.145.082.32.212.336.37.019.18-.118.529-.567.922C79.144,41.57,65.272,52.8,62.027,55.4c1.255-4.1,4.06-13.213,4.439-14.442A1.712,1.712,0,0,0,66.536,39.647Zm8.911-23.422.846,1.137a.391.391,0,0,1-.121-.009Zm-.693-1.189-.005,0c-.465.274-12.431,9.356-19.635,14.839a1.739,1.739,0,0,0-.218,2.6l8.81,8.1c-.825,2.679-4.322,14.042-4.85,15.794-.183.6-.583,1.972.372,2.759-12.819,1.135-30.7,6.974-37.859,18.837a2.557,2.557,0,0,0-.228-.328c-1.032-1.242-3.03-1.414-5.354-.46A11.518,11.518,0,0,0,11,80.707a53.34,53.34,0,0,1,.1-33.771l.326,1.081c1.6,5.31,3,9.951,3.047,10.117A2.191,2.191,0,0,0,16.2,59.771a2.089,2.089,0,0,0,.325.026,2.671,2.671,0,0,0,2.2-1.365c.153-.207,1.5-1.916,3-3.809,1.956-2.48,3.164-4.015,3.8-4.83,2.334,1.854,9.256,7.347,9.63,7.613a2.255,2.255,0,0,0,2.517.132,1.7,1.7,0,0,0,.609-1.923c-.2-.692-5.241-13.875-6.222-16.432a1.746,1.746,0,0,0-2.173-1.322L19.224,40.176c-.489-.506-1.489-1.515-3.6-3.633A55.443,55.443,0,0,1,63.752,8.525,54.881,54.881,0,0,1,74.135,9.548a9.727,9.727,0,0,0,1.306,3.841v0a6.456,6.456,0,0,0,.978,1.257A3.193,3.193,0,0,0,74.753,15.036Zm33.923,63.231a4.152,4.152,0,0,0-.371.525c-3.036-5.681-7.988-9.87-13.737-12.9a1.4,1.4,0,0,0,.328.055,2.693,2.693,0,0,0,1.564-.609L109.1,53.95l6.339,5.927a2.511,2.511,0,0,0,2.066.9,1.9,1.9,0,0,0,1.405-.906l.1-.333c.117,1.464.191,2.939.191,4.433a55.058,55.058,0,0,1-2.215,15.336,12.281,12.281,0,0,0-3.474-2.126A4.028,4.028,0,0,0,108.677,78.267Zm8.134-20.873-6.191-5.788a2.059,2.059,0,0,0-1.65-.684,2.106,2.106,0,0,0-1.567.849L96.775,61.337l6.414-21.281,8.782,5.471a2.058,2.058,0,0,0,2.943-.008l7.406-7.294ZM84.521,3.26a5.357,5.357,0,0,1,3.305,3.307,5.7,5.7,0,0,1-1.744,6.42,5.934,5.934,0,0,1-6.989.288,3.69,3.69,0,0,1-1.282-1.28A5.934,5.934,0,0,1,78.1,5,5.7,5.7,0,0,1,84.521,3.26Zm28.7,96.371h-.005c-1.454.306-2.032.067-2.118-.043s-.118-.572.266-1.4c1.07-2.3,1-13.165-.817-16.01a1.949,1.949,0,0,1,.242-2.142,1.2,1.2,0,0,1,.951-.473,1.888,1.888,0,0,1,.717.161c4.216,1.744,5.992,5.178,6.132,11.848C118.7,97.314,116.523,98.945,113.221,99.631Z" style="fill-rule:evenodd"/><circle cx="86.612" cy="85.56" r="5.288"/><circle cx="40.781" cy="85.56" r="5.288"/><path d="M73.278,97.471a35.716,35.716,0,0,1-5.016-3.156C67.7,93.81,65.1,91.1,63.986,91.1s-2.64,2.006-4.8,3.537-2.956,1.742-4.384,2.839c-.87.7-.6,3.317,4.526,0a35.007,35.007,0,0,0,4.714-3.362,35.013,35.013,0,0,0,4.714,3.362C73.783,100.348,74.148,98.167,73.278,97.471Z" style="fill-rule:evenodd"/></svg>