<svg viewBox="0 0 80 80" xmlns="http://www.w3.org/2000/svg">
<path d="M6.66699 0C4.89113 0.00843523 3.19129 0.721694 1.94113 1.98299C0.690967 3.24428 -0.0071926 4.95038 0.000117873 6.72625V73.2738C-0.0071926 75.0496 0.690967 76.7557 1.94113 78.017C3.19129 79.2783 4.89113 79.9916 6.66699 80H73.3332C75.1091 79.9916 76.809 79.2783 78.0591 78.017C79.3093 76.7557 80.0074 75.0496 80.0001 73.2738V6.72625C80.0074 4.95038 79.3093 3.24428 78.0591 1.98299C76.809 0.721694 75.1091 0.00843523 73.3332 0L6.66699 0ZM69.3014 8.5525C69.8933 8.55531 70.4599 8.79303 70.8767 9.21341C71.2934 9.63379 71.5262 10.2024 71.5239 10.7944V69.2056C71.5262 69.7976 71.2934 70.3662 70.8767 70.7866C70.4599 71.207 69.8933 71.4447 69.3014 71.4475H10.6989C10.1069 71.4447 9.54033 71.207 9.12358 70.7866C8.70683 70.3662 8.47404 69.7976 8.47637 69.2056V10.7944C8.47404 10.2024 8.70683 9.63379 9.12358 9.21341C9.54033 8.79303 10.1069 8.55531 10.6989 8.5525"/>
<path d="M61.3474 67H19.6526C19.2264 65.3418 19 63.6055 19 61.8173C19 50.157 28.6259 40.7045 40.5 40.7045C52.3741 40.7045 62 50.157 62 61.8173C62 63.6055 61.7736 65.3418 61.3474 67Z"/>
<path d="M40.5 38.4908C47.387 38.4908 52.97 33.0083 52.97 26.2454C52.97 19.4824 47.387 14 40.5 14C33.613 14 28.03 19.4824 28.03 26.2454C28.03 33.0083 33.613 38.4908 40.5 38.4908Z"/>
</svg>
