<svg xmlns="http://www.w3.org/2000/svg" viewBox="0 0 128 128"><title>output</title><path d="M104.767,26.755a3.86,3.86,0,0,0-6.607,2.712v8.459a3.523,3.523,0,0,1-3.522,3.522H64.025A3.518,3.518,0,0,0,60.5,44.969V55.534a3.518,3.518,0,0,0,3.522,3.522H94.639a3.523,3.523,0,0,1,3.522,3.522v8.459a3.86,3.86,0,0,0,6.607,2.712l20.425-20.721a3.98,3.98,0,0,0,0-5.557L104.767,26.755"/><path d="M116.55,0H11.45A11.449,11.449,0,0,0,0,11.45V87.781a11.449,11.449,0,0,0,11.45,11.45H48.267a2.8,2.8,0,0,1,.357,1.345v9.172a2.876,2.876,0,0,1-2.875,2.875H15.124a2.876,2.876,0,0,0-2.875,2.875V128h103.5V115.5a2.876,2.876,0,0,0-2.875-2.875H82.251a2.876,2.876,0,0,1-2.875-2.875v-9.172a2.8,2.8,0,0,1,.357-1.345H116.55A11.449,11.449,0,0,0,128,87.781V60.609L109.98,78.89a4.688,4.688,0,0,1-4.694,1.239c-.063,0-.122.019-.186.019H22.9a3.818,3.818,0,0,1-3.817-3.817V22.9A3.818,3.818,0,0,1,22.9,19.083h82.2a3.771,3.771,0,0,1,1.062.169,4.674,4.674,0,0,1,3.817,1.4L128,38.931V11.45A11.449,11.449,0,0,0,116.55,0Z"/></svg>