<svg xmlns="http://www.w3.org/2000/svg" viewBox="0 0 128 128"><title>plus</title><path d="M10.667,0A10.718,10.718,0,0,0,0,10.762V117.238A10.718,10.718,0,0,0,10.667,128H117.333A10.718,10.718,0,0,0,128,117.238V10.762A10.718,10.718,0,0,0,117.333,0ZM110.882,13.684a3.573,3.573,0,0,1,3.556,3.587v93.458a3.573,3.573,0,0,1-3.556,3.587H17.118a3.573,3.573,0,0,1-3.556-3.587V17.271a3.573,3.573,0,0,1,3.556-3.587"/><path d="M69.614,22.644H58.386a2.808,2.808,0,0,0-2.807,2.807V52.772a2.808,2.808,0,0,1-2.807,2.807H25.451a2.808,2.808,0,0,0-2.807,2.807V69.614a2.808,2.808,0,0,0,2.807,2.807H52.772a2.808,2.808,0,0,1,2.807,2.807v27.321a2.808,2.808,0,0,0,2.807,2.807H69.614a2.808,2.808,0,0,0,2.807-2.807V75.228a2.808,2.808,0,0,1,2.807-2.807h27.321a2.808,2.808,0,0,0,2.807-2.807V58.386a2.808,2.808,0,0,0-2.807-2.807H75.228a2.808,2.808,0,0,1-2.807-2.807V25.451A2.808,2.808,0,0,0,69.614,22.644Z"/></svg>