<svg xmlns="http://www.w3.org/2000/svg" viewBox="0 0 98 128"><title>program-text</title><path d="M96,0H2A2,2,0,0,0,0,2V126a2,2,0,0,0,2,2H96a2,2,0,0,0,2-2V2A2,2,0,0,0,96,0ZM87.384,107.526a1.158,1.158,0,0,1-1.157,1.157H11.773a1.158,1.158,0,0,1-1.157-1.157v-4.765a1.158,1.158,0,0,1,1.157-1.157H86.227a1.158,1.158,0,0,1,1.157,1.157Zm0-19.868a1.158,1.158,0,0,1-1.157,1.157H11.773a1.158,1.158,0,0,1-1.157-1.157V82.893a1.158,1.158,0,0,1,1.157-1.157H86.227a1.158,1.158,0,0,1,1.157,1.157Zm0-19.868a1.158,1.158,0,0,1-1.157,1.157H11.773a1.158,1.158,0,0,1-1.157-1.157V63.025a1.158,1.158,0,0,1,1.157-1.157H86.227a1.158,1.158,0,0,1,1.157,1.157Zm0-19.868a1.158,1.158,0,0,1-1.157,1.157H11.773a1.158,1.158,0,0,1-1.157-1.157V43.157A1.158,1.158,0,0,1,11.773,42H86.227a1.158,1.158,0,0,1,1.157,1.157Zm0-19.868a1.158,1.158,0,0,1-1.157,1.157H11.773a1.158,1.158,0,0,1-1.157-1.157V23.289a1.158,1.158,0,0,1,1.157-1.157H86.227a1.158,1.158,0,0,1,1.157,1.157Z"/></svg>