<svg viewBox="0 0 80 80" xmlns="http://www.w3.org/2000/svg">
<path fill-rule="evenodd" clip-rule="evenodd" d="M40 80C62.0914 80 80 62.0914 80 40C80 17.9086 62.0914 0 40 0C17.9086 0 0 17.9086 0 40C0 62.0914 17.9086 80 40 80ZM50.7303 41.16L50.7291 41.1608C47.0759 43.5914 44.5625 45.2636 44.5625 49.5762V49.9794C44.5632 51.8303 43.0635 53.3315 41.2125 53.3325H37.775C35.9337 53.3329 34.4374 51.8469 34.425 50.0056V49.2762C34.425 42.3656 37.6544 38.76 42.9125 35.38C46.5181 32.9762 48.6213 30.2725 48.6213 26.3656C48.6213 21.9344 44.64 18.8544 39.3825 18.8544C35.0013 18.8544 31.5075 21.3544 30.3325 25.7556C29.8686 27.3712 28.2667 28.3818 26.6088 28.105L23.0156 27.5462C22.0844 27.3978 21.2581 26.8653 20.7382 26.0786C20.2182 25.2919 20.0522 24.3231 20.2806 23.4081C22.3494 14.8925 30.3544 9.99125 40.2806 9.99125C51.6238 9.99125 59.8113 16.6787 59.8113 25.54C59.8125 32.6012 57.1106 36.8825 51.625 40.5625C51.32 40.7676 51.0215 40.9662 50.7303 41.16ZM45.1681 66.6588C45.1681 68.5089 43.6683 70.0088 41.8181 70.0088H37.4762C35.6261 70.0088 34.1262 68.5089 34.1262 66.6588V61.7906C34.1262 59.9405 35.6261 58.4406 37.4762 58.4406H41.8181C43.6683 58.4406 45.1681 59.9405 45.1681 61.7906V66.6588Z"/>
</svg>
