<svg xmlns="http://www.w3.org/2000/svg" width="100%" height="100%" viewBox="0 0 20 20"><path fill-rule="evenodd" d="M14.72 4.042A7.57 7.57 0 0 0 10.004 2.4 7.605 7.605 0 0 0 2.4 10c0 4.195 3.406 7.6 7.602 7.6a7.608 7.608 0 0 0 6.926-4.465.794.794 0 0 1 1.199-.317c.23.162.466.338.668.487a.8.8 0 0 1 .25.98C17.436 17.661 13.99 20 10.003 20 4.483 20 0 15.52 0 10S4.482 0 10.003 0a9.968 9.968 0 0 1 6.8 2.669l1.527-1.007a.8.8 0 0 1 1.24.614l.428 6.355a.8.8 0 0 1-1.164.766l-5.656-2.91a.8.8 0 0 1-.074-1.38l1.617-1.065z"/></svg>