<svg xmlns="http://www.w3.org/2000/svg" viewBox="0 0 128 128"><title>reload</title><path d="M122.692,77.037a5.12,5.12,0,0,1,2.455,5.968A64.023,64.023,0,0,1,10.294,98.8l-2.546,1.523A5.12,5.12,0,0,1,0,95.931V72.62a5.12,5.12,0,0,1,7.569-4.5l20.4,11.11a5.12,5.12,0,0,1,.179,8.891l-4.659,2.787A48.644,48.644,0,0,0,110.7,77.627a5.071,5.071,0,0,1,7.313-3.085C119.62,75.364,121.281,76.269,122.692,77.037ZM5.308,50.963A5.12,5.12,0,0,1,2.853,45,64.023,64.023,0,0,1,117.706,29.2l2.546-1.523A5.12,5.12,0,0,1,128,32.069V55.38a5.12,5.12,0,0,1-7.569,4.5l-20.4-11.11a5.12,5.12,0,0,1-.179-8.891l4.659-2.787A48.644,48.644,0,0,0,17.3,50.373a5.071,5.071,0,0,1-7.313,3.085C8.38,52.636,6.719,51.731,5.308,50.963Z" transform="translate(0 0)"/></svg>