<svg width="80" height="80" viewBox="0 0 80 80" fill="none" xmlns="http://www.w3.org/2000/svg">
<path fill-rule="evenodd" clip-rule="evenodd" d="M40 0C62.0914 0 80 17.9086 80 40C80 62.0914 62.0914 80 40 80C17.9086 80 0 62.0914 0 40C0 17.9086 17.9086 0 40 0ZM40 10C23.4315 10 10 23.4315 10 40C10 56.5685 23.4315 70 40 70C56.5685 70 70 56.5685 70 40C70 23.4315 56.5685 10 40 10ZM54.6807 45.018C55.0406 45.8948 54.8363 46.902 54.1632 47.5692L41.6154 59.9453C40.679 60.8588 39.185 60.8588 38.2485 59.9453L25.6929 47.5668C25.0199 46.8996 24.8155 45.8924 25.1754 45.0156C25.5352 44.1388 26.3882 43.5657 27.3359 43.5639H32.4604C33.6387 43.5635 34.5938 42.6083 34.5942 41.4298V22.1341C34.5935 21.5679 34.8181 21.0247 35.2184 20.6244C35.6187 20.224 36.1618 19.9994 36.728 20H43.1282C43.6943 19.9994 44.2374 20.224 44.6377 20.6244C45.038 21.0247 45.2626 21.5679 45.262 22.1341V41.4298C45.2615 41.9961 45.4861 42.5395 45.8863 42.9402C46.2865 43.3409 46.8295 43.5661 47.3958 43.5663H52.5202C53.4679 43.5681 54.3209 44.1412 54.6807 45.018Z" fill="black"/>
</svg>
