<svg width="80" height="80" viewBox="0 0 80 80" fill="none" xmlns="http://www.w3.org/2000/svg">
<path fill-rule="evenodd" clip-rule="evenodd" d="M56.3594 14.4006C45.4396 7.40624 31.2831 8.1115 21.1129 16.1565L27.575 20.4093C28.526 21.0341 29.0734 22.1169 29.0124 23.2528C28.9515 24.3888 28.2915 25.4069 27.2792 25.9264L4.66127 37.5635C3.63507 38.0911 2.40418 38.0251 1.44023 37.391C0.47629 36.7568 -0.0712302 35.6527 0.00747107 34.5018L1.72095 9.09888C1.79643 7.96176 2.47156 6.95074 3.49312 6.44504C4.51467 5.93935 5.72823 6.01541 6.67861 6.6447L12.7843 10.6691C25.4719 -1.09211 44.2842 -3.36723 59.4111 5.0302C74.5379 13.4276 82.5514 30.5947 79.2727 47.5791C75.994 64.5636 62.166 77.5165 44.9998 79.6834C27.8336 81.8502 11.2192 72.7399 3.82053 57.1033C3.18052 55.7256 3.59828 54.088 4.82006 53.185C4.88762 53.1352 4.95618 53.0845 5.02563 53.0333C5.23287 52.8802 5.44803 52.7213 5.66833 52.5592L7.49079 51.2379C7.67908 51.0979 7.88256 50.9795 8.09736 50.885C8.86748 50.5445 9.74139 50.5237 10.5268 50.8274C11.3122 51.1312 11.9447 51.7344 12.2851 52.5044C17.6326 64.3161 29.8894 71.433 42.8016 70.2236C55.7138 69.0143 66.4351 59.7453 69.4951 47.1461C72.555 34.547 67.2792 21.3949 56.3594 14.4006ZM40 51C46.0751 51 51 46.0751 51 40C51 33.9249 46.0751 29 40 29C33.9249 29 29 33.9249 29 40C29 46.0751 33.9249 51 40 51Z" fill="black"/>
</svg>
