<svg xmlns="http://www.w3.org/2000/svg" viewBox="0 0 128 128"><title>settings</title><path d="M89.274,62.916A25.613,25.613,0,1,1,68.032,41.548,25.705,25.705,0,0,1,89.274,62.916m35.565-7-13.261-.708a3.178,3.178,0,0,1-2.586-1.577L97.926,34.75a3.214,3.214,0,0,1-.1-3.09l6.131-12.116a3.585,3.585,0,0,0-1.485-4.532L89.517,7.478a3.543,3.543,0,0,0-4.64.979l-7.75,12a3.188,3.188,0,0,1-2.682,1.461H53.555a3.188,3.188,0,0,1-2.682-1.461l-7.75-12a3.551,3.551,0,0,0-4.646-.979l-12.96,7.533a3.582,3.582,0,0,0-1.478,4.532l6.118,12.091a3.227,3.227,0,0,1-.1,3.1l-11.078,18.9a3.2,3.2,0,0,1-2.592,1.584l-13.229.7A3.566,3.566,0,0,0,0,59.466V74.524a3.568,3.568,0,0,0,3.162,3.554l13.242.708A3.2,3.2,0,0,1,19,80.364l11.072,18.9a3.244,3.244,0,0,1,.1,3.1l-6.131,12.1a3.587,3.587,0,0,0,1.478,4.532l12.96,7.526a3.538,3.538,0,0,0,4.646-.979l7.763-12.02a3.205,3.205,0,0,1,2.688-1.468H74.426a3.205,3.205,0,0,1,2.688,1.468l7.763,12.02a3.529,3.529,0,0,0,4.64.979l12.96-7.526a3.589,3.589,0,0,0,1.485-4.532L97.818,102.33a3.245,3.245,0,0,1,.1-3.1l11.053-18.87a3.213,3.213,0,0,1,2.592-1.577l13.274-.708A3.568,3.568,0,0,0,128,74.524V59.466a3.566,3.566,0,0,0-3.162-3.547"/></svg>