<svg xmlns="http://www.w3.org/2000/svg" viewBox="0 0 128 128"><title>simple</title><path d="M97.129.686A13.594,13.594,0,0,0,82.272,5.058L65.037,26.083c-.286.346-.561.7-.833,1.061-.07.083-.132.163-.206.247q-.5-.665-1.026-1.306L45.732,5.056A13.615,13.615,0,0,0,30.854.693a14.3,14.3,0,0,0-9.516,13.724V71.345a18.68,18.68,0,0,0,4.224,11.816L61.252,126.7a3.557,3.557,0,0,0,5.5,0l35.683-43.536a18.684,18.684,0,0,0,4.225-11.817V14.411A14.292,14.292,0,0,0,97.129.686ZM93.986,14.03V71.344a5.973,5.973,0,0,1-1.356,3.785L67.3,106.188s-.317.273-.593.078-.207-.657-.207-.657V44.939a4.074,4.074,0,0,1,.176-1.282,6.643,6.643,0,0,1,.584-.829L92.071,13.1a1.031,1.031,0,0,1,.777-.419,1.31,1.31,0,0,1,.623.17A1.368,1.368,0,0,1,93.986,14.03Z"/></svg>