<svg xmlns="http://www.w3.org/2000/svg" viewBox="0 0 128 128"><title>slideshow</title><path d="M7.308,41.082A7.31,7.31,0,0,0,0,48.39v72.3A7.31,7.31,0,0,0,7.308,128H80.385a7.31,7.31,0,0,0,7.308-7.308V48.39a7.31,7.31,0,0,0-7.308-7.308Zm68.657,9.292A2.437,2.437,0,0,1,78.4,52.81v63.463a2.437,2.437,0,0,1-2.436,2.436H11.728a2.437,2.437,0,0,1-2.436-2.436V52.81a2.437,2.437,0,0,1,2.436-2.436"/><path d="M26.138,100.358l-8.029,10.688a1,1,0,0,0,.8,1.608l16.032-.029a1,1,0,0,0,.8-1.606l-8-10.661a1,1,0,0,0-1.606,0"/><path d="M48.233,84.768l-18.21,24.239a2.278,2.278,0,0,0,1.823,3.647l36.359-.066a2.276,2.276,0,0,0,1.819-3.642L51.875,84.768a2.279,2.279,0,0,0-3.642,0"/><circle cx="30.959" cy="71.93" r="12.391"/><path d="M100.21,128a2.537,2.537,0,0,1-2.515-2.557V38.485a7.612,7.612,0,0,0-7.544-7.672H2.515A2.534,2.534,0,0,1,0,28.255v-5.14a2.534,2.534,0,0,1,2.515-2.557h97.726a7.612,7.612,0,0,1,7.544,7.672v97.213A2.537,2.537,0,0,1,105.27,128Z"/><path d="M120.425,127.882a2.537,2.537,0,0,1-2.515-2.557V17.927a7.612,7.612,0,0,0-7.544-7.672H2.766A2.534,2.534,0,0,1,.251,7.7V2.557A2.534,2.534,0,0,1,2.766,0h117.69A7.612,7.612,0,0,1,128,7.672V125.325a2.537,2.537,0,0,1-2.515,2.557Z"/></svg>