<svg xmlns="http://www.w3.org/2000/svg" viewBox="0 0 128 128"><title>speaker</title><path d="M55.48,13.906,27.338,34.319H6.4a6.4,6.4,0,0,0-6.4,6.4V87.666a6.4,6.4,0,0,0,6.4,6.4H27.336L55.48,114.482a6.338,6.338,0,0,0,9.164-5.671V19.576A6.338,6.338,0,0,0,55.48,13.906Z"/><path d="M88.953,19.609l-.322-.423-8.666,8.644.232.32a60,60,0,0,1-.13,72.1l-.235.32,8.655,8.631.322-.421a72.444,72.444,0,0,0,.145-89.173Z"/><path d="M105.187,3.385,104.861,3,96.29,11.552l.268.323c12.683,15.259,19.386,33.32,19.386,52.232,0,19-6.753,37.121-19.527,52.413l-.272.325,8.206,8.189.359.354.326-.381C120.059,107.374,128,86.315,128,64.107,128,41.975,120.11,20.978,105.187,3.385Z"/></svg>