<svg xmlns="http://www.w3.org/2000/svg" viewBox="0 0 128 128"><title>stream</title><path d="M120,0H8C3.6,0,0,3.99,0,8.867V34.253A78.1,78.1,0,0,1,20,37.3V22.172h88v79.222a4.236,4.236,0,0,1-4,4.434H81.478A105.134,105.134,0,0,1,84.115,128H120c4.4,0,8-3.99,8-8.867V8.867C128,3.99,124.4,0,120,0Z"/><path d="M0,48.4v15.92c31.673,0,57.443,28.569,57.443,63.68H71.8C71.8,84.044,39.65,48.4,0,48.4"/><path d="M0,78.249v15.92c16.831,0,30.517,15.172,30.517,33.83H44.878c0-27.478-20.091-49.75-44.878-49.75"/><path d="M0,108.1v7.96C0,122.65,4.825,128,10.771,128h7.18c0-10.993-8.035-19.9-17.951-19.9"/></svg>