<svg xmlns="http://www.w3.org/2000/svg" viewBox="0 0 128 128"><title>studio-mode</title><path d="M1.732,59.63H126.58v68.276H1.732Zm57.473,4.9V123h10.9V64.531Z"/><path d="M97.143,8.662,108.41,22.725l-13.04,2L84.1,10.658Zm17.813-2.727,4.781-.732a3.9,3.9,0,0,1,4.447,3.266l1.181,7.713a3.884,3.884,0,0,1-.351,2.3ZM66.29,13.385,77.558,27.448l-13.04,2L53.25,15.381ZM35.437,18.107,46.7,32.171l-13.04,2L22.4,20.1ZM4.584,22.83,15.852,36.893,6.4,38.34a3.9,3.9,0,0,1-4.447-3.266L.772,27.361a3.9,3.9,0,0,1,3.266-4.447Z"/><path d="M109.565,39.9,100.555,55.5H87.363L96.373,39.9Zm16.681,2.319a3.888,3.888,0,0,1,.334,1.582v7.8a3.9,3.9,0,0,1-3.9,3.9h-4.1ZM78.353,39.9,69.343,55.5H56.151L65.161,39.9Zm-31.212,0L38.13,55.5H24.939L33.949,39.9Zm-31.212,0L6.918,55.5H5.633a3.9,3.9,0,0,1-3.9-3.9V43.8a3.9,3.9,0,0,1,3.9-3.9Z"/></svg>