<svg xmlns="http://www.w3.org/2000/svg" viewBox="0 0 128 128"><title>text</title><path d="M10.667,0A10.718,10.718,0,0,0,0,10.762V117.238A10.718,10.718,0,0,0,10.667,128H117.333A10.718,10.718,0,0,0,128,117.238V10.762A10.718,10.718,0,0,0,117.333,0ZM110.882,13.684a3.573,3.573,0,0,1,3.556,3.587v93.458a3.573,3.573,0,0,1-3.556,3.587H17.118a3.573,3.573,0,0,1-3.556-3.587V17.271a3.573,3.573,0,0,1,3.556-3.587"/><path d="M45.962,82.263,42.422,92.638a14.739,14.739,0,0,0-.762,4.426c0,7.973,9.359,8.227,13.161,8.351v3.163H21.672v-3.163c5.565-.124,11.891-.377,14.677-8.22l27.2-78.943h4.8L96.059,96.179c1.9,5.318,5.819,8.858,12.907,9.236v3.163H68.99v-3.163c4.172-.124,10.876-.254,10.876-5.441a7.886,7.886,0,0,0-.508-2.655L74.047,82.263ZM59.754,40.894l-12.4,36.943h25.3Z"/></svg>