<svg xmlns="http://www.w3.org/2000/svg" viewBox="0 0 128 128"><title>twitter</title><path d="M40.253,118.482c48.3,0,74.722-40.018,74.722-74.721,0-1.137,0-2.268-.077-3.4A53.416,53.416,0,0,0,128,26.773,52.43,52.43,0,0,1,112.916,30.9a26.349,26.349,0,0,0,11.546-14.525,52.613,52.613,0,0,1-16.676,6.374A26.287,26.287,0,0,0,63.032,46.705,74.559,74.559,0,0,1,8.909,19.267a26.281,26.281,0,0,0,8.13,35.056A26.064,26.064,0,0,1,5.12,51.036v.333A26.27,26.27,0,0,0,26.189,77.112a26.211,26.211,0,0,1-11.858.451A26.29,26.29,0,0,0,38.866,95.8,52.691,52.691,0,0,1,6.252,107.064,53.537,53.537,0,0,1,0,106.687a74.35,74.35,0,0,0,40.253,11.776"/><rect width="128" height="128" fill="none"/></svg>