<svg xmlns="http://www.w3.org/2000/svg" viewBox="0 0 100 100"><title>uad</title><path d="M94.29 68.4a5.68 5.68 0 0 0 2.58-1.4c3.19-3.19 1.83-10.26-2.88-18.88l-5.83 1.05c2.13 4.48 2.63 8 1 9.58-3.78 3.78-17.56-3.88-30.79-17.1s-20.87-27-17.1-30.78c1.62-1.62 5.1-1.13 9.58 1L51.9 6C43.29 1.3 36.21-.06 33 3.13a5.68 5.68 0 0 0-1.43 2.58L13.94 71.56 1.61 74.87a2.13 2.13 0 0 0-1 .53c-2.2 2.21 1.37 9.36 8 16s13.76 10.19 16 8a2.13 2.13 0 0 0 .54-1l3.3-12.32L94.3 68.41z"/><rect x="60.12" y="20.69" width="31.6" height="6.77" rx="3.05" ry="3.05" transform="rotate(-45 75.925 24.081)"/><rect x="47.39" y="10.43" width="28.22" height="6.77" rx="3.05" ry="3.05" transform="rotate(-75 61.238 13.758)"/><rect x="72.07" y="35.12" width="28.22" height="6.77" rx="3.05" ry="3.05" transform="rotate(-15 86.19 38.51)"/></svg>