<svg xmlns="http://www.w3.org/2000/svg" viewBox="0 0 128 128"><title>unhide</title><path d="M125.126,24.476c-22.89-.692-52.985-6.987-52.985-6.987l.035.017A55.677,55.677,0,0,0,6.532,88.89c.978,5.3-4.65,20.069-6.393,25.782-1.031,3.378,3.947,4.853,5.764,4.607a71.636,71.636,0,0,1,27.488,1.691,55.713,55.713,0,0,0,81.943-49.2c0-.3-.04-.584-.044-.879,1.432-16.421,4.792-33.114,11.211-40.725C129.466,26.653,127.513,24.548,125.126,24.476Zm-65.55,93.632c-27.281,0-46.334-19.053-46.334-46.334S32.3,25.44,59.576,25.44,105.91,44.493,105.91,71.774,86.857,118.108,59.576,118.108Z"/><path d="M59.183,31.921C56.06,31.733,44.736,49.852,44.736,71.97s10.892,40.049,14.447,40.049c3.85,0,14.447-17.931,14.447-40.049S62.047,32.109,59.183,31.921Z"/></svg>