<svg xmlns="http://www.w3.org/2000/svg" viewBox="0 0 128 128"><title>unlock</title><path d="M69.063,86.649v21.14a3.373,3.373,0,0,1-3.375,3.368H62.312a3.373,3.373,0,0,1-3.375-3.368V86.649a15.188,15.188,0,1,1,10.125,0m38.813-46.228H91V10.105A10.119,10.119,0,0,0,80.875,0H47.125A10.119,10.119,0,0,0,37,10.105V23.579a3.373,3.373,0,0,0,3.375,3.368H50.5a3.373,3.373,0,0,0,3.375-3.368V20.211a3.369,3.369,0,0,1,3.375-3.368h13.5a3.369,3.369,0,0,1,3.375,3.368V40.421h-54A10.119,10.119,0,0,0,10,50.526v67.368A10.119,10.119,0,0,0,20.125,128h87.75A10.119,10.119,0,0,0,118,117.895V50.526a10.119,10.119,0,0,0-10.125-10.105"/></svg>