<svg xmlns="http://www.w3.org/2000/svg" viewBox="0 0 128 128"><title>video-capture</title><path d="M30.634,46.433a34.192,34.192,0,0,1,67.074,0h18.082a52.042,52.042,0,0,0-103.239,0Z"/><path d="M97.708,59.769a34.192,34.192,0,0,1-67.074,0H12.552a52.042,52.042,0,0,0,103.239,0Z"/><path d="M64.171,29.556A23.545,23.545,0,1,0,87.716,53.1,23.545,23.545,0,0,0,64.171,29.556ZM71.107,52.3a6.139,6.139,0,1,1,6.139-6.139A6.139,6.139,0,0,1,71.107,52.3Z"/><path d="M125.751,112.253,104.485,97.487A68.275,68.275,0,0,1,64.275,110.82,68.312,68.312,0,0,1,23.809,97.283L2.249,112.253c-7.483,3.846,5.229,15.033,15.811,15.033,0,0,24.547-5.769,46.031-5.769s45.849,5.769,45.849,5.769C120.522,127.286,133.234,116.1,125.751,112.253Z"/></svg>