<svg xmlns="http://www.w3.org/2000/svg" viewBox="0 0 128 128"><title>visitor</title><path d="M98.619,128.812A3.37,3.37,0,0,0,101.3,123.4L81.67,97.643a4.95,4.95,0,0,1,1.28-7.2A47.055,47.055,0,0,0,63.672.814v0h-.036v0A47.055,47.055,0,0,0,44.357,90.438a4.95,4.95,0,0,1,1.28,7.2L26.005,123.4a3.37,3.37,0,0,0,2.682,5.412S99.59,127.841,98.619,128.812ZM81.542,35.176a6.766,6.766,0,1,1-6.786,6.766A6.783,6.783,0,0,1,81.542,35.176ZM45.765,48.709a6.766,6.766,0,1,1,6.786-6.767A6.775,6.775,0,0,1,45.765,48.709ZM77.6,65.826,64.384,73.448a2.907,2.907,0,0,1-.73.2,2.907,2.907,0,0,1-.73-.2L49.707,65.826a3.168,3.168,0,1,1,3.181-5.479L63.635,66.54v.021l.018-.01.018.01V66.54l10.747-6.193A3.168,3.168,0,1,1,77.6,65.826Z"/></svg>