<svg xmlns="http://www.w3.org/2000/svg" viewBox="0 0 128 128"><title>vr-google</title><path d="M116.687,33.49l-105.45-.006C4.9,33.634-.12,38.2,0,43.7L10,87.329c1.5,6.347,7.9,10.058,14.232,10.206H51.242L59.583,84.7a5.161,5.161,0,0,1,4.352-2.3,5.108,5.108,0,0,1,4.485,2.3l8.338,12.839h26.927c6.363-.117,12.564-4.691,14.311-10.206L128,43.7C128.11,38.175,123.053,33.609,116.687,33.49Zm-81.67,42A10.926,10.926,0,1,1,45.944,64.567,10.926,10.926,0,0,1,35.017,75.494Zm58.37,0a10.926,10.926,0,1,1,10.926-10.926A10.926,10.926,0,0,1,93.387,75.494Z"/></svg>