<?xml version="1.0" encoding="utf-8"?>
<!-- Generator: Adobe Illustrator 25.2.3, SVG Export Plug-In . SVG Version: 6.00 Build 0)  -->
<svg version="1.1" id="レイヤー_1" xmlns="http://www.w3.org/2000/svg" xmlns:xlink="http://www.w3.org/1999/xlink" x="0px"
	 y="0px" viewBox="0 0 128 128" style="enable-background:new 0 0 128 128;" xml:space="preserve">
<path d="M64,128c35.3,0,64-28.7,64-64S99.3,0,64,0S0,28.7,0,64S28.7,128,64,128z M53.5,27.3c0-2.9,2.3-5.2,5.2-5.2h10.5
	c2.9,0,5.2,2.3,5.2,5.2v42c0,2.9-2.3,5.2-5.2,5.2H58.8c-2.9,0-5.2-2.3-5.2-5.2L53.5,27.3z M53.5,90.2c0-2.9,2.3-5.2,5.2-5.2h10.5
	c2.9,0,5.2,2.3,5.2,5.2v10.5c0,2.9-2.3,5.2-5.2,5.2H58.8c-2.9,0-5.2-2.3-5.2-5.2L53.5,90.2z"/>
</svg>
